<svg xmlns="http://www.w3.org/2000/svg" xmlns:xlink="http://www.w3.org/1999/xlink" width="600" height="400" viewBox="0 0 2400 1600">
<defs>
  <clipPath id="clip190">
    <rect x="0" y="0" width="2400" height="1600"></rect>
  </clipPath>
</defs>
<path clip-path="url(#clip190)" d="M0 1600 L2400 1600 L2400 0 L0 0  Z" fill="#ffffff" fill-rule="evenodd" fill-opacity="1"></path>
<defs>
  <clipPath id="clip191">
    <rect x="480" y="0" width="1681" height="1600"></rect>
  </clipPath>
</defs>
<path clip-path="url(#clip190)" d="M279.704 1423.18 L2352.76 1423.18 L2352.76 47.2441 L279.704 47.2441  Z" fill="#ffffff" fill-rule="evenodd" fill-opacity="1"></path>
<defs>
  <clipPath id="clip192">
    <rect x="279" y="47" width="2074" height="1377"></rect>
  </clipPath>
</defs>
<polyline clip-path="url(#clip192)" style="stroke:#000000; stroke-linecap:round; stroke-linejoin:round; stroke-width:2; stroke-opacity:0.1; fill:none" points="338.375,1423.18 338.375,47.2441 "></polyline>
<polyline clip-path="url(#clip192)" style="stroke:#000000; stroke-linecap:round; stroke-linejoin:round; stroke-width:2; stroke-opacity:0.1; fill:none" points="827.303,1423.18 827.303,47.2441 "></polyline>
<polyline clip-path="url(#clip192)" style="stroke:#000000; stroke-linecap:round; stroke-linejoin:round; stroke-width:2; stroke-opacity:0.1; fill:none" points="1316.23,1423.18 1316.23,47.2441 "></polyline>
<polyline clip-path="url(#clip192)" style="stroke:#000000; stroke-linecap:round; stroke-linejoin:round; stroke-width:2; stroke-opacity:0.1; fill:none" points="1805.16,1423.18 1805.16,47.2441 "></polyline>
<polyline clip-path="url(#clip192)" style="stroke:#000000; stroke-linecap:round; stroke-linejoin:round; stroke-width:2; stroke-opacity:0.1; fill:none" points="2294.08,1423.18 2294.08,47.2441 "></polyline>
<polyline clip-path="url(#clip192)" style="stroke:#000000; stroke-linecap:round; stroke-linejoin:round; stroke-width:2; stroke-opacity:0.1; fill:none" points="279.704,1350.93 2352.76,1350.93 "></polyline>
<polyline clip-path="url(#clip192)" style="stroke:#000000; stroke-linecap:round; stroke-linejoin:round; stroke-width:2; stroke-opacity:0.1; fill:none" points="279.704,934.309 2352.76,934.309 "></polyline>
<polyline clip-path="url(#clip192)" style="stroke:#000000; stroke-linecap:round; stroke-linejoin:round; stroke-width:2; stroke-opacity:0.1; fill:none" points="279.704,517.685 2352.76,517.685 "></polyline>
<polyline clip-path="url(#clip192)" style="stroke:#000000; stroke-linecap:round; stroke-linejoin:round; stroke-width:2; stroke-opacity:0.1; fill:none" points="279.704,101.06 2352.76,101.06 "></polyline>
<polyline clip-path="url(#clip190)" style="stroke:#000000; stroke-linecap:round; stroke-linejoin:round; stroke-width:4; stroke-opacity:1; fill:none" points="279.704,1423.18 2352.76,1423.18 "></polyline>
<polyline clip-path="url(#clip190)" style="stroke:#000000; stroke-linecap:round; stroke-linejoin:round; stroke-width:4; stroke-opacity:1; fill:none" points="338.375,1423.18 338.375,1404.28 "></polyline>
<polyline clip-path="url(#clip190)" style="stroke:#000000; stroke-linecap:round; stroke-linejoin:round; stroke-width:4; stroke-opacity:1; fill:none" points="827.303,1423.18 827.303,1404.28 "></polyline>
<polyline clip-path="url(#clip190)" style="stroke:#000000; stroke-linecap:round; stroke-linejoin:round; stroke-width:4; stroke-opacity:1; fill:none" points="1316.23,1423.18 1316.23,1404.28 "></polyline>
<polyline clip-path="url(#clip190)" style="stroke:#000000; stroke-linecap:round; stroke-linejoin:round; stroke-width:4; stroke-opacity:1; fill:none" points="1805.16,1423.18 1805.16,1404.28 "></polyline>
<polyline clip-path="url(#clip190)" style="stroke:#000000; stroke-linecap:round; stroke-linejoin:round; stroke-width:4; stroke-opacity:1; fill:none" points="2294.08,1423.18 2294.08,1404.28 "></polyline>
<path clip-path="url(#clip190)" d="M315.76 1454.1 Q312.148 1454.1 310.32 1457.66 Q308.514 1461.2 308.514 1468.33 Q308.514 1475.44 310.32 1479.01 Q312.148 1482.55 315.76 1482.55 Q319.394 1482.55 321.199 1479.01 Q323.028 1475.44 323.028 1468.33 Q323.028 1461.2 321.199 1457.66 Q319.394 1454.1 315.76 1454.1 M315.76 1450.39 Q321.57 1450.39 324.625 1455 Q327.704 1459.58 327.704 1468.33 Q327.704 1477.06 324.625 1481.67 Q321.57 1486.25 315.76 1486.25 Q309.949 1486.25 306.871 1481.67 Q303.815 1477.06 303.815 1468.33 Q303.815 1459.58 306.871 1455 Q309.949 1450.39 315.76 1450.39 Z" fill="#000000" fill-rule="nonzero" fill-opacity="1"></path><path clip-path="url(#clip190)" d="M335.922 1479.7 L340.806 1479.7 L340.806 1485.58 L335.922 1485.58 L335.922 1479.7 Z" fill="#000000" fill-rule="nonzero" fill-opacity="1"></path><path clip-path="url(#clip190)" d="M360.991 1454.1 Q357.38 1454.1 355.551 1457.66 Q353.745 1461.2 353.745 1468.33 Q353.745 1475.44 355.551 1479.01 Q357.38 1482.55 360.991 1482.55 Q364.625 1482.55 366.431 1479.01 Q368.259 1475.44 368.259 1468.33 Q368.259 1461.2 366.431 1457.66 Q364.625 1454.1 360.991 1454.1 M360.991 1450.39 Q366.801 1450.39 369.857 1455 Q372.935 1459.58 372.935 1468.33 Q372.935 1477.06 369.857 1481.67 Q366.801 1486.25 360.991 1486.25 Q355.181 1486.25 352.102 1481.67 Q349.046 1477.06 349.046 1468.33 Q349.046 1459.58 352.102 1455 Q355.181 1450.39 360.991 1450.39 Z" fill="#000000" fill-rule="nonzero" fill-opacity="1"></path><path clip-path="url(#clip190)" d="M799.039 1481.64 L815.358 1481.64 L815.358 1485.58 L793.414 1485.58 L793.414 1481.64 Q796.076 1478.89 800.659 1474.26 Q805.266 1469.61 806.446 1468.27 Q808.692 1465.74 809.571 1464.01 Q810.474 1462.25 810.474 1460.56 Q810.474 1457.8 808.53 1456.07 Q806.608 1454.33 803.506 1454.33 Q801.307 1454.33 798.854 1455.09 Q796.423 1455.86 793.645 1457.41 L793.645 1452.69 Q796.469 1451.55 798.923 1450.97 Q801.377 1450.39 803.414 1450.39 Q808.784 1450.39 811.979 1453.08 Q815.173 1455.77 815.173 1460.26 Q815.173 1462.39 814.363 1464.31 Q813.576 1466.2 811.469 1468.8 Q810.891 1469.47 807.789 1472.69 Q804.687 1475.88 799.039 1481.64 Z" fill="#000000" fill-rule="nonzero" fill-opacity="1"></path><path clip-path="url(#clip190)" d="M825.173 1479.7 L830.057 1479.7 L830.057 1485.58 L825.173 1485.58 L825.173 1479.7 Z" fill="#000000" fill-rule="nonzero" fill-opacity="1"></path><path clip-path="url(#clip190)" d="M840.289 1451.02 L858.645 1451.02 L858.645 1454.96 L844.571 1454.96 L844.571 1463.43 Q845.589 1463.08 846.608 1462.92 Q847.627 1462.73 848.645 1462.73 Q854.432 1462.73 857.812 1465.9 Q861.191 1469.08 861.191 1474.49 Q861.191 1480.07 857.719 1483.17 Q854.247 1486.25 847.927 1486.25 Q845.752 1486.25 843.483 1485.88 Q841.238 1485.51 838.83 1484.77 L838.83 1480.07 Q840.914 1481.2 843.136 1481.76 Q845.358 1482.32 847.835 1482.32 Q851.839 1482.32 854.177 1480.21 Q856.515 1478.1 856.515 1474.49 Q856.515 1470.88 854.177 1468.77 Q851.839 1466.67 847.835 1466.67 Q845.96 1466.67 844.085 1467.08 Q842.233 1467.5 840.289 1468.38 L840.289 1451.02 Z" fill="#000000" fill-rule="nonzero" fill-opacity="1"></path><path clip-path="url(#clip190)" d="M1283.39 1451.02 L1301.75 1451.02 L1301.75 1454.96 L1287.68 1454.96 L1287.68 1463.43 Q1288.7 1463.08 1289.71 1462.92 Q1290.73 1462.73 1291.75 1462.73 Q1297.54 1462.73 1300.92 1465.9 Q1304.3 1469.08 1304.3 1474.49 Q1304.3 1480.07 1300.82 1483.17 Q1297.35 1486.25 1291.03 1486.25 Q1288.86 1486.25 1286.59 1485.88 Q1284.34 1485.51 1281.94 1484.77 L1281.94 1480.07 Q1284.02 1481.2 1286.24 1481.76 Q1288.46 1482.32 1290.94 1482.32 Q1294.95 1482.32 1297.28 1480.21 Q1299.62 1478.1 1299.62 1474.49 Q1299.62 1470.88 1297.28 1468.77 Q1294.95 1466.67 1290.94 1466.67 Q1289.07 1466.67 1287.19 1467.08 Q1285.34 1467.5 1283.39 1468.38 L1283.39 1451.02 Z" fill="#000000" fill-rule="nonzero" fill-opacity="1"></path><path clip-path="url(#clip190)" d="M1313.51 1479.7 L1318.39 1479.7 L1318.39 1485.58 L1313.51 1485.58 L1313.51 1479.7 Z" fill="#000000" fill-rule="nonzero" fill-opacity="1"></path><path clip-path="url(#clip190)" d="M1338.58 1454.1 Q1334.97 1454.1 1333.14 1457.66 Q1331.33 1461.2 1331.33 1468.33 Q1331.33 1475.44 1333.14 1479.01 Q1334.97 1482.55 1338.58 1482.55 Q1342.21 1482.55 1344.02 1479.01 Q1345.85 1475.44 1345.85 1468.33 Q1345.85 1461.2 1344.02 1457.66 Q1342.21 1454.1 1338.58 1454.1 M1338.58 1450.39 Q1344.39 1450.39 1347.45 1455 Q1350.52 1459.58 1350.52 1468.33 Q1350.52 1477.06 1347.45 1481.67 Q1344.39 1486.25 1338.58 1486.25 Q1332.77 1486.25 1329.69 1481.67 Q1326.63 1477.06 1326.63 1468.33 Q1326.63 1459.58 1329.69 1455 Q1332.77 1450.39 1338.58 1450.39 Z" fill="#000000" fill-rule="nonzero" fill-opacity="1"></path><path clip-path="url(#clip190)" d="M1771.48 1451.02 L1793.7 1451.02 L1793.7 1453.01 L1781.15 1485.58 L1776.27 1485.58 L1788.07 1454.96 L1771.48 1454.96 L1771.48 1451.02 Z" fill="#000000" fill-rule="nonzero" fill-opacity="1"></path><path clip-path="url(#clip190)" d="M1802.82 1479.7 L1807.7 1479.7 L1807.7 1485.58 L1802.82 1485.58 L1802.82 1479.7 Z" fill="#000000" fill-rule="nonzero" fill-opacity="1"></path><path clip-path="url(#clip190)" d="M1817.93 1451.02 L1836.29 1451.02 L1836.29 1454.96 L1822.22 1454.96 L1822.22 1463.43 Q1823.24 1463.08 1824.25 1462.92 Q1825.27 1462.73 1826.29 1462.73 Q1832.08 1462.73 1835.46 1465.9 Q1838.84 1469.08 1838.84 1474.49 Q1838.84 1480.07 1835.37 1483.17 Q1831.89 1486.25 1825.57 1486.25 Q1823.4 1486.25 1821.13 1485.88 Q1818.88 1485.51 1816.48 1484.77 L1816.48 1480.07 Q1818.56 1481.2 1820.78 1481.76 Q1823 1482.32 1825.48 1482.32 Q1829.49 1482.32 1831.82 1480.21 Q1834.16 1478.1 1834.16 1474.49 Q1834.16 1470.88 1831.82 1468.77 Q1829.49 1466.67 1825.48 1466.67 Q1823.61 1466.67 1821.73 1467.08 Q1819.88 1467.5 1817.93 1468.38 L1817.93 1451.02 Z" fill="#000000" fill-rule="nonzero" fill-opacity="1"></path><path clip-path="url(#clip190)" d="M2246.16 1481.64 L2253.8 1481.64 L2253.8 1455.28 L2245.49 1456.95 L2245.49 1452.69 L2253.75 1451.02 L2258.43 1451.02 L2258.43 1481.64 L2266.06 1481.64 L2266.06 1485.58 L2246.16 1485.58 L2246.16 1481.64 Z" fill="#000000" fill-rule="nonzero" fill-opacity="1"></path><path clip-path="url(#clip190)" d="M2285.51 1454.1 Q2281.9 1454.1 2280.07 1457.66 Q2278.26 1461.2 2278.26 1468.33 Q2278.26 1475.44 2280.07 1479.01 Q2281.9 1482.55 2285.51 1482.55 Q2289.14 1482.55 2290.95 1479.01 Q2292.78 1475.44 2292.78 1468.33 Q2292.78 1461.2 2290.95 1457.66 Q2289.14 1454.1 2285.51 1454.1 M2285.51 1450.39 Q2291.32 1450.39 2294.37 1455 Q2297.45 1459.58 2297.45 1468.33 Q2297.45 1477.06 2294.37 1481.67 Q2291.32 1486.25 2285.51 1486.25 Q2279.7 1486.25 2276.62 1481.67 Q2273.56 1477.06 2273.56 1468.33 Q2273.56 1459.58 2276.62 1455 Q2279.7 1450.39 2285.51 1450.39 Z" fill="#000000" fill-rule="nonzero" fill-opacity="1"></path><path clip-path="url(#clip190)" d="M2305.67 1479.7 L2310.55 1479.7 L2310.55 1485.58 L2305.67 1485.58 L2305.67 1479.7 Z" fill="#000000" fill-rule="nonzero" fill-opacity="1"></path><path clip-path="url(#clip190)" d="M2330.74 1454.1 Q2327.13 1454.1 2325.3 1457.66 Q2323.49 1461.2 2323.49 1468.33 Q2323.49 1475.44 2325.3 1479.01 Q2327.13 1482.55 2330.74 1482.55 Q2334.37 1482.55 2336.18 1479.01 Q2338.01 1475.44 2338.01 1468.33 Q2338.01 1461.2 2336.18 1457.66 Q2334.37 1454.1 2330.74 1454.1 M2330.74 1450.39 Q2336.55 1450.39 2339.61 1455 Q2342.68 1459.58 2342.68 1468.33 Q2342.68 1477.06 2339.61 1481.67 Q2336.55 1486.25 2330.74 1486.25 Q2324.93 1486.25 2321.85 1481.67 Q2318.8 1477.06 2318.8 1468.33 Q2318.8 1459.58 2321.85 1455 Q2324.93 1450.39 2330.74 1450.39 Z" fill="#000000" fill-rule="nonzero" fill-opacity="1"></path><path clip-path="url(#clip190)" d="M1187.83 1522.27 L1187.83 1532.4 L1199.9 1532.4 L1199.9 1536.95 L1187.83 1536.95 L1187.83 1556.3 Q1187.83 1560.66 1189.01 1561.9 Q1190.22 1563.14 1193.88 1563.14 L1199.9 1563.14 L1199.9 1568.04 L1193.88 1568.04 Q1187.1 1568.04 1184.52 1565.53 Q1181.95 1562.98 1181.95 1556.3 L1181.95 1536.95 L1177.65 1536.95 L1177.65 1532.4 L1181.95 1532.4 L1181.95 1522.27 L1187.83 1522.27 Z" fill="#000000" fill-rule="nonzero" fill-opacity="1"></path><path clip-path="url(#clip190)" d="M1207.6 1532.4 L1213.46 1532.4 L1213.46 1568.04 L1207.6 1568.04 L1207.6 1532.4 M1207.6 1518.52 L1213.46 1518.52 L1213.46 1525.93 L1207.6 1525.93 L1207.6 1518.52 Z" fill="#000000" fill-rule="nonzero" fill-opacity="1"></path><path clip-path="url(#clip190)" d="M1253.46 1539.24 Q1255.66 1535.29 1258.72 1533.41 Q1261.77 1531.54 1265.91 1531.54 Q1271.48 1531.54 1274.5 1535.45 Q1277.53 1539.33 1277.53 1546.53 L1277.53 1568.04 L1271.64 1568.04 L1271.64 1546.72 Q1271.64 1541.59 1269.82 1539.11 Q1268.01 1536.63 1264.29 1536.63 Q1259.73 1536.63 1257.09 1539.65 Q1254.45 1542.68 1254.45 1547.9 L1254.45 1568.04 L1248.56 1568.04 L1248.56 1546.72 Q1248.56 1541.56 1246.75 1539.11 Q1244.93 1536.63 1241.15 1536.63 Q1236.66 1536.63 1234.02 1539.68 Q1231.38 1542.71 1231.38 1547.9 L1231.38 1568.04 L1225.49 1568.04 L1225.49 1532.4 L1231.38 1532.4 L1231.38 1537.93 Q1233.38 1534.66 1236.18 1533.1 Q1238.98 1531.54 1242.83 1531.54 Q1246.72 1531.54 1249.42 1533.51 Q1252.16 1535.48 1253.46 1539.24 Z" fill="#000000" fill-rule="nonzero" fill-opacity="1"></path><path clip-path="url(#clip190)" d="M1319.7 1548.76 L1319.7 1551.62 L1292.77 1551.62 Q1293.15 1557.67 1296.4 1560.85 Q1299.68 1564 1305.5 1564 Q1308.88 1564 1312.03 1563.17 Q1315.21 1562.35 1318.33 1560.69 L1318.33 1566.23 Q1315.18 1567.57 1311.87 1568.27 Q1308.56 1568.97 1305.15 1568.97 Q1296.62 1568.97 1291.63 1564 Q1286.66 1559.04 1286.66 1550.57 Q1286.66 1541.82 1291.37 1536.69 Q1296.11 1531.54 1304.14 1531.54 Q1311.33 1531.54 1315.5 1536.18 Q1319.7 1540.8 1319.7 1548.76 M1313.84 1547.04 Q1313.78 1542.23 1311.14 1539.37 Q1308.53 1536.5 1304.2 1536.5 Q1299.3 1536.5 1296.34 1539.27 Q1293.41 1542.04 1292.96 1547.07 L1313.84 1547.04 Z" fill="#000000" fill-rule="nonzero" fill-opacity="1"></path><path clip-path="url(#clip190)" d="M1350.03 1532.4 L1355.89 1532.4 L1355.89 1568.04 L1350.03 1568.04 L1350.03 1532.4 M1350.03 1518.52 L1355.89 1518.52 L1355.89 1525.93 L1350.03 1525.93 L1350.03 1518.52 Z" fill="#000000" fill-rule="nonzero" fill-opacity="1"></path><path clip-path="url(#clip190)" d="M1397.77 1546.53 L1397.77 1568.04 L1391.92 1568.04 L1391.92 1546.72 Q1391.92 1541.66 1389.94 1539.14 Q1387.97 1536.63 1384.02 1536.63 Q1379.28 1536.63 1376.54 1539.65 Q1373.81 1542.68 1373.81 1547.9 L1373.81 1568.04 L1367.92 1568.04 L1367.92 1532.4 L1373.81 1532.4 L1373.81 1537.93 Q1375.91 1534.72 1378.74 1533.13 Q1381.61 1531.54 1385.33 1531.54 Q1391.47 1531.54 1394.62 1535.36 Q1397.77 1539.14 1397.77 1546.53 Z" fill="#000000" fill-rule="nonzero" fill-opacity="1"></path><path clip-path="url(#clip190)" d="M1452.9 1533.45 L1452.9 1538.98 Q1450.42 1537.71 1447.75 1537.07 Q1445.07 1536.44 1442.21 1536.44 Q1437.85 1536.44 1435.65 1537.77 Q1433.49 1539.11 1433.49 1541.79 Q1433.49 1543.82 1435.05 1545 Q1436.61 1546.15 1441.32 1547.2 L1443.32 1547.64 Q1449.56 1548.98 1452.17 1551.43 Q1454.81 1553.85 1454.81 1558.21 Q1454.81 1563.17 1450.86 1566.07 Q1446.95 1568.97 1440.07 1568.97 Q1437.21 1568.97 1434.09 1568.39 Q1431 1567.85 1427.57 1566.74 L1427.57 1560.69 Q1430.81 1562.38 1433.96 1563.24 Q1437.11 1564.07 1440.2 1564.07 Q1444.34 1564.07 1446.57 1562.66 Q1448.8 1561.23 1448.8 1558.65 Q1448.8 1556.27 1447.17 1554.99 Q1445.58 1553.72 1440.14 1552.54 L1438.1 1552.07 Q1432.66 1550.92 1430.24 1548.56 Q1427.82 1546.18 1427.82 1542.04 Q1427.82 1537.01 1431.39 1534.27 Q1434.95 1531.54 1441.51 1531.54 Q1444.75 1531.54 1447.62 1532.01 Q1450.48 1532.49 1452.9 1533.45 Z" fill="#000000" fill-rule="nonzero" fill-opacity="1"></path><polyline clip-path="url(#clip190)" style="stroke:#000000; stroke-linecap:round; stroke-linejoin:round; stroke-width:4; stroke-opacity:1; fill:none" points="279.704,1423.18 279.704,47.2441 "></polyline>
<polyline clip-path="url(#clip190)" style="stroke:#000000; stroke-linecap:round; stroke-linejoin:round; stroke-width:4; stroke-opacity:1; fill:none" points="279.704,1350.93 298.602,1350.93 "></polyline>
<polyline clip-path="url(#clip190)" style="stroke:#000000; stroke-linecap:round; stroke-linejoin:round; stroke-width:4; stroke-opacity:1; fill:none" points="279.704,934.309 298.602,934.309 "></polyline>
<polyline clip-path="url(#clip190)" style="stroke:#000000; stroke-linecap:round; stroke-linejoin:round; stroke-width:4; stroke-opacity:1; fill:none" points="279.704,517.685 298.602,517.685 "></polyline>
<polyline clip-path="url(#clip190)" style="stroke:#000000; stroke-linecap:round; stroke-linejoin:round; stroke-width:4; stroke-opacity:1; fill:none" points="279.704,101.06 298.602,101.06 "></polyline>
<path clip-path="url(#clip190)" d="M126.205 1336.73 Q122.593 1336.73 120.765 1340.3 Q118.959 1343.84 118.959 1350.97 Q118.959 1358.07 120.765 1361.64 Q122.593 1365.18 126.205 1365.18 Q129.839 1365.18 131.644 1361.64 Q133.473 1358.07 133.473 1350.97 Q133.473 1343.84 131.644 1340.3 Q129.839 1336.73 126.205 1336.73 M126.205 1333.03 Q132.015 1333.03 135.07 1337.63 Q138.149 1342.22 138.149 1350.97 Q138.149 1359.7 135.07 1364.3 Q132.015 1368.88 126.205 1368.88 Q120.394 1368.88 117.316 1364.3 Q114.26 1359.7 114.26 1350.97 Q114.26 1342.22 117.316 1337.63 Q120.394 1333.03 126.205 1333.03 Z" fill="#000000" fill-rule="nonzero" fill-opacity="1"></path><path clip-path="url(#clip190)" d="M146.366 1362.33 L151.251 1362.33 L151.251 1368.21 L146.366 1368.21 L146.366 1362.33 Z" fill="#000000" fill-rule="nonzero" fill-opacity="1"></path><path clip-path="url(#clip190)" d="M161.575 1367.5 L161.575 1363.24 Q163.334 1364.07 165.14 1364.51 Q166.945 1364.95 168.681 1364.95 Q173.311 1364.95 175.741 1361.85 Q178.195 1358.72 178.542 1352.38 Q177.2 1354.37 175.139 1355.44 Q173.079 1356.5 170.579 1356.5 Q165.394 1356.5 162.362 1353.38 Q159.353 1350.23 159.353 1344.79 Q159.353 1339.46 162.501 1336.25 Q165.649 1333.03 170.88 1333.03 Q176.876 1333.03 180.024 1337.63 Q183.195 1342.22 183.195 1350.97 Q183.195 1359.14 179.306 1364.02 Q175.44 1368.88 168.889 1368.88 Q167.13 1368.88 165.325 1368.54 Q163.519 1368.19 161.575 1367.5 M170.88 1352.84 Q174.028 1352.84 175.857 1350.69 Q177.709 1348.54 177.709 1344.79 Q177.709 1341.06 175.857 1338.91 Q174.028 1336.73 170.88 1336.73 Q167.732 1336.73 165.88 1338.91 Q164.052 1341.06 164.052 1344.79 Q164.052 1348.54 165.88 1350.69 Q167.732 1352.84 170.88 1352.84 Z" fill="#000000" fill-rule="nonzero" fill-opacity="1"></path><path clip-path="url(#clip190)" d="M191.737 1367.5 L191.737 1363.24 Q193.496 1364.07 195.301 1364.51 Q197.107 1364.95 198.843 1364.95 Q203.473 1364.95 205.903 1361.85 Q208.357 1358.72 208.704 1352.38 Q207.362 1354.37 205.301 1355.44 Q203.241 1356.5 200.741 1356.5 Q195.556 1356.5 192.524 1353.38 Q189.514 1350.23 189.514 1344.79 Q189.514 1339.46 192.663 1336.25 Q195.811 1333.03 201.042 1333.03 Q207.037 1333.03 210.186 1337.63 Q213.357 1342.22 213.357 1350.97 Q213.357 1359.14 209.468 1364.02 Q205.602 1368.88 199.051 1368.88 Q197.292 1368.88 195.487 1368.54 Q193.681 1368.19 191.737 1367.5 M201.042 1352.84 Q204.19 1352.84 206.019 1350.69 Q207.871 1348.54 207.871 1344.79 Q207.871 1341.06 206.019 1338.91 Q204.19 1336.73 201.042 1336.73 Q197.894 1336.73 196.042 1338.91 Q194.213 1341.06 194.213 1344.79 Q194.213 1348.54 196.042 1350.69 Q197.894 1352.84 201.042 1352.84 Z" fill="#000000" fill-rule="nonzero" fill-opacity="1"></path><path clip-path="url(#clip190)" d="M231.76 1336.73 Q228.148 1336.73 226.32 1340.3 Q224.514 1343.84 224.514 1350.97 Q224.514 1358.07 226.32 1361.64 Q228.148 1365.18 231.76 1365.18 Q235.394 1365.18 237.199 1361.64 Q239.028 1358.07 239.028 1350.97 Q239.028 1343.84 237.199 1340.3 Q235.394 1336.73 231.76 1336.73 M231.76 1333.03 Q237.57 1333.03 240.625 1337.63 Q243.704 1342.22 243.704 1350.97 Q243.704 1359.7 240.625 1364.3 Q237.57 1368.88 231.76 1368.88 Q225.949 1368.88 222.871 1364.3 Q219.815 1359.7 219.815 1350.97 Q219.815 1342.22 222.871 1337.63 Q225.949 1333.03 231.76 1333.03 Z" fill="#000000" fill-rule="nonzero" fill-opacity="1"></path><path clip-path="url(#clip190)" d="M127.2 920.108 Q123.589 920.108 121.76 923.673 Q119.955 927.214 119.955 934.344 Q119.955 941.45 121.76 945.015 Q123.589 948.557 127.2 948.557 Q130.834 948.557 132.64 945.015 Q134.468 941.45 134.468 934.344 Q134.468 927.214 132.64 923.673 Q130.834 920.108 127.2 920.108 M127.2 916.404 Q133.01 916.404 136.066 921.01 Q139.144 925.594 139.144 934.344 Q139.144 943.071 136.066 947.677 Q133.01 952.26 127.2 952.26 Q121.39 952.26 118.311 947.677 Q115.256 943.071 115.256 934.344 Q115.256 925.594 118.311 921.01 Q121.39 916.404 127.2 916.404 Z" fill="#000000" fill-rule="nonzero" fill-opacity="1"></path><path clip-path="url(#clip190)" d="M147.362 945.709 L152.246 945.709 L152.246 951.589 L147.362 951.589 L147.362 945.709 Z" fill="#000000" fill-rule="nonzero" fill-opacity="1"></path><path clip-path="url(#clip190)" d="M162.57 950.871 L162.57 946.612 Q164.329 947.446 166.135 947.885 Q167.94 948.325 169.677 948.325 Q174.306 948.325 176.737 945.223 Q179.19 942.098 179.538 935.756 Q178.195 937.747 176.135 938.811 Q174.075 939.876 171.575 939.876 Q166.39 939.876 163.357 936.751 Q160.348 933.603 160.348 928.163 Q160.348 922.839 163.496 919.622 Q166.644 916.404 171.876 916.404 Q177.871 916.404 181.019 921.01 Q184.19 925.594 184.19 934.344 Q184.19 942.515 180.301 947.399 Q176.436 952.26 169.885 952.26 Q168.126 952.26 166.32 951.913 Q164.515 951.566 162.57 950.871 M171.876 936.219 Q175.024 936.219 176.852 934.066 Q178.704 931.913 178.704 928.163 Q178.704 924.436 176.852 922.284 Q175.024 920.108 171.876 920.108 Q168.727 920.108 166.876 922.284 Q165.047 924.436 165.047 928.163 Q165.047 931.913 166.876 934.066 Q168.727 936.219 171.876 936.219 Z" fill="#000000" fill-rule="nonzero" fill-opacity="1"></path><path clip-path="url(#clip190)" d="M192.732 950.871 L192.732 946.612 Q194.491 947.446 196.297 947.885 Q198.102 948.325 199.838 948.325 Q204.468 948.325 206.899 945.223 Q209.352 942.098 209.699 935.756 Q208.357 937.747 206.297 938.811 Q204.237 939.876 201.737 939.876 Q196.551 939.876 193.519 936.751 Q190.51 933.603 190.51 928.163 Q190.51 922.839 193.658 919.622 Q196.806 916.404 202.037 916.404 Q208.033 916.404 211.181 921.01 Q214.352 925.594 214.352 934.344 Q214.352 942.515 210.463 947.399 Q206.598 952.26 200.047 952.26 Q198.287 952.26 196.482 951.913 Q194.676 951.566 192.732 950.871 M202.037 936.219 Q205.186 936.219 207.014 934.066 Q208.866 931.913 208.866 928.163 Q208.866 924.436 207.014 922.284 Q205.186 920.108 202.037 920.108 Q198.889 920.108 197.037 922.284 Q195.209 924.436 195.209 928.163 Q195.209 931.913 197.037 934.066 Q198.889 936.219 202.037 936.219 Z" fill="#000000" fill-rule="nonzero" fill-opacity="1"></path><path clip-path="url(#clip190)" d="M222.801 917.029 L241.158 917.029 L241.158 920.964 L227.084 920.964 L227.084 929.436 Q228.102 929.089 229.121 928.927 Q230.139 928.742 231.158 928.742 Q236.945 928.742 240.324 931.913 Q243.704 935.084 243.704 940.501 Q243.704 946.08 240.232 949.182 Q236.76 952.26 230.44 952.26 Q228.264 952.26 225.996 951.89 Q223.75 951.52 221.343 950.779 L221.343 946.08 Q223.426 947.214 225.648 947.77 Q227.871 948.325 230.347 948.325 Q234.352 948.325 236.69 946.219 Q239.028 944.112 239.028 940.501 Q239.028 936.89 236.69 934.784 Q234.352 932.677 230.347 932.677 Q228.473 932.677 226.598 933.094 Q224.746 933.51 222.801 934.39 L222.801 917.029 Z" fill="#000000" fill-rule="nonzero" fill-opacity="1"></path><path clip-path="url(#clip190)" d="M117.015 531.029 L124.654 531.029 L124.654 504.664 L116.343 506.33 L116.343 502.071 L124.607 500.405 L129.283 500.405 L129.283 531.029 L136.922 531.029 L136.922 534.965 L117.015 534.965 L117.015 531.029 Z" fill="#000000" fill-rule="nonzero" fill-opacity="1"></path><path clip-path="url(#clip190)" d="M146.366 529.085 L151.251 529.085 L151.251 534.965 L146.366 534.965 L146.366 529.085 Z" fill="#000000" fill-rule="nonzero" fill-opacity="1"></path><path clip-path="url(#clip190)" d="M171.436 503.483 Q167.825 503.483 165.996 507.048 Q164.19 510.59 164.19 517.719 Q164.19 524.826 165.996 528.391 Q167.825 531.932 171.436 531.932 Q175.07 531.932 176.876 528.391 Q178.704 524.826 178.704 517.719 Q178.704 510.59 176.876 507.048 Q175.07 503.483 171.436 503.483 M171.436 499.78 Q177.246 499.78 180.301 504.386 Q183.38 508.969 183.38 517.719 Q183.38 526.446 180.301 531.053 Q177.246 535.636 171.436 535.636 Q165.626 535.636 162.547 531.053 Q159.491 526.446 159.491 517.719 Q159.491 508.969 162.547 504.386 Q165.626 499.78 171.436 499.78 Z" fill="#000000" fill-rule="nonzero" fill-opacity="1"></path><path clip-path="url(#clip190)" d="M201.598 503.483 Q197.987 503.483 196.158 507.048 Q194.352 510.59 194.352 517.719 Q194.352 524.826 196.158 528.391 Q197.987 531.932 201.598 531.932 Q205.232 531.932 207.037 528.391 Q208.866 524.826 208.866 517.719 Q208.866 510.59 207.037 507.048 Q205.232 503.483 201.598 503.483 M201.598 499.78 Q207.408 499.78 210.463 504.386 Q213.542 508.969 213.542 517.719 Q213.542 526.446 210.463 531.053 Q207.408 535.636 201.598 535.636 Q195.787 535.636 192.709 531.053 Q189.653 526.446 189.653 517.719 Q189.653 508.969 192.709 504.386 Q195.787 499.78 201.598 499.78 Z" fill="#000000" fill-rule="nonzero" fill-opacity="1"></path><path clip-path="url(#clip190)" d="M231.76 503.483 Q228.148 503.483 226.32 507.048 Q224.514 510.59 224.514 517.719 Q224.514 524.826 226.32 528.391 Q228.148 531.932 231.76 531.932 Q235.394 531.932 237.199 528.391 Q239.028 524.826 239.028 517.719 Q239.028 510.59 237.199 507.048 Q235.394 503.483 231.76 503.483 M231.76 499.78 Q237.57 499.78 240.625 504.386 Q243.704 508.969 243.704 517.719 Q243.704 526.446 240.625 531.053 Q237.57 535.636 231.76 535.636 Q225.949 535.636 222.871 531.053 Q219.815 526.446 219.815 517.719 Q219.815 508.969 222.871 504.386 Q225.949 499.78 231.76 499.78 Z" fill="#000000" fill-rule="nonzero" fill-opacity="1"></path><path clip-path="url(#clip190)" d="M118.01 114.405 L125.649 114.405 L125.649 88.0393 L117.339 89.706 L117.339 85.4467 L125.603 83.7801 L130.279 83.7801 L130.279 114.405 L137.917 114.405 L137.917 118.34 L118.01 118.34 L118.01 114.405 Z" fill="#000000" fill-rule="nonzero" fill-opacity="1"></path><path clip-path="url(#clip190)" d="M147.362 112.46 L152.246 112.46 L152.246 118.34 L147.362 118.34 L147.362 112.46 Z" fill="#000000" fill-rule="nonzero" fill-opacity="1"></path><path clip-path="url(#clip190)" d="M172.431 86.8588 Q168.82 86.8588 166.991 90.4235 Q165.186 93.9652 165.186 101.095 Q165.186 108.201 166.991 111.766 Q168.82 115.308 172.431 115.308 Q176.065 115.308 177.871 111.766 Q179.7 108.201 179.7 101.095 Q179.7 93.9652 177.871 90.4235 Q176.065 86.8588 172.431 86.8588 M172.431 83.1551 Q178.241 83.1551 181.297 87.7615 Q184.376 92.3448 184.376 101.095 Q184.376 109.822 181.297 114.428 Q178.241 119.011 172.431 119.011 Q166.621 119.011 163.542 114.428 Q160.487 109.822 160.487 101.095 Q160.487 92.3448 163.542 87.7615 Q166.621 83.1551 172.431 83.1551 Z" fill="#000000" fill-rule="nonzero" fill-opacity="1"></path><path clip-path="url(#clip190)" d="M202.593 86.8588 Q198.982 86.8588 197.153 90.4235 Q195.348 93.9652 195.348 101.095 Q195.348 108.201 197.153 111.766 Q198.982 115.308 202.593 115.308 Q206.227 115.308 208.033 111.766 Q209.861 108.201 209.861 101.095 Q209.861 93.9652 208.033 90.4235 Q206.227 86.8588 202.593 86.8588 M202.593 83.1551 Q208.403 83.1551 211.459 87.7615 Q214.537 92.3448 214.537 101.095 Q214.537 109.822 211.459 114.428 Q208.403 119.011 202.593 119.011 Q196.783 119.011 193.704 114.428 Q190.649 109.822 190.649 101.095 Q190.649 92.3448 193.704 87.7615 Q196.783 83.1551 202.593 83.1551 Z" fill="#000000" fill-rule="nonzero" fill-opacity="1"></path><path clip-path="url(#clip190)" d="M222.801 83.7801 L241.158 83.7801 L241.158 87.7152 L227.084 87.7152 L227.084 96.1874 Q228.102 95.8402 229.121 95.6781 Q230.139 95.493 231.158 95.493 Q236.945 95.493 240.324 98.6642 Q243.704 101.836 243.704 107.252 Q243.704 112.831 240.232 115.933 Q236.76 119.011 230.44 119.011 Q228.264 119.011 225.996 118.641 Q223.75 118.271 221.343 117.53 L221.343 112.831 Q223.426 113.965 225.648 114.521 Q227.871 115.076 230.347 115.076 Q234.352 115.076 236.69 112.97 Q239.028 110.863 239.028 107.252 Q239.028 103.641 236.69 101.535 Q234.352 99.4281 230.347 99.4281 Q228.473 99.4281 226.598 99.8448 Q224.746 100.261 222.801 101.141 L222.801 83.7801 Z" fill="#000000" fill-rule="nonzero" fill-opacity="1"></path><path clip-path="url(#clip190)" d="M28.3562 1151.66 L28.3562 1145.45 L58.275 1134.31 L28.3562 1123.17 L28.3562 1116.96 L64.0042 1130.33 L64.0042 1138.29 L28.3562 1151.66 Z" fill="#000000" fill-rule="nonzero" fill-opacity="1"></path><path clip-path="url(#clip190)" d="M32.4621 1095.07 Q32.4621 1099.78 36.1542 1102.51 Q39.8145 1105.25 46.212 1105.25 Q52.6095 1105.25 56.3017 1102.55 Q59.9619 1099.81 59.9619 1095.07 Q59.9619 1090.39 56.2698 1087.65 Q52.5777 1084.91 46.212 1084.91 Q39.8781 1084.91 36.186 1087.65 Q32.4621 1090.39 32.4621 1095.07 M27.4968 1095.07 Q27.4968 1087.43 32.4621 1083.07 Q37.4273 1078.71 46.212 1078.71 Q54.9649 1078.71 59.9619 1083.07 Q64.9272 1087.43 64.9272 1095.07 Q64.9272 1102.74 59.9619 1107.1 Q54.9649 1111.43 46.212 1111.43 Q37.4273 1111.43 32.4621 1107.1 Q27.4968 1102.74 27.4968 1095.07 Z" fill="#000000" fill-rule="nonzero" fill-opacity="1"></path><path clip-path="url(#clip190)" d="M14.479 1069 L14.479 1063.14 L64.0042 1063.14 L64.0042 1069 L14.479 1069 Z" fill="#000000" fill-rule="nonzero" fill-opacity="1"></path><path clip-path="url(#clip190)" d="M18.2347 1045.09 L28.3562 1045.09 L28.3562 1033.03 L32.9077 1033.03 L32.9077 1045.09 L52.2594 1045.09 Q56.6199 1045.09 57.8613 1043.92 Q59.1026 1042.71 59.1026 1039.05 L59.1026 1033.03 L64.0042 1033.03 L64.0042 1039.05 Q64.0042 1045.83 61.4897 1048.4 Q58.9434 1050.98 52.2594 1050.98 L32.9077 1050.98 L32.9077 1055.28 L28.3562 1055.28 L28.3562 1050.98 L18.2347 1050.98 L18.2347 1045.09 Z" fill="#000000" fill-rule="nonzero" fill-opacity="1"></path><path clip-path="url(#clip190)" d="M46.0847 1009.13 Q46.0847 1016.23 47.7079 1018.96 Q49.3312 1021.7 53.2461 1021.7 Q56.3653 1021.7 58.2114 1019.66 Q60.0256 1017.59 60.0256 1014.06 Q60.0256 1009.19 56.5881 1006.26 Q53.1188 1003.3 47.3897 1003.3 L46.0847 1003.3 L46.0847 1009.13 M43.6657 997.447 L64.0042 997.447 L64.0042 1003.3 L58.5933 1003.3 Q61.8398 1005.31 63.3994 1008.3 Q64.9272 1011.29 64.9272 1015.62 Q64.9272 1021.1 61.8716 1024.34 Q58.7843 1027.56 53.6281 1027.56 Q47.6125 1027.56 44.5569 1023.55 Q41.5014 1019.5 41.5014 1011.52 L41.5014 1003.3 L40.9285 1003.3 Q36.8862 1003.3 34.6901 1005.98 Q32.4621 1008.62 32.4621 1013.43 Q32.4621 1016.48 33.1941 1019.38 Q33.9262 1022.27 35.3903 1024.95 L29.9795 1024.95 Q28.7381 1021.73 28.1334 1018.71 Q27.4968 1015.69 27.4968 1012.82 Q27.4968 1005.09 31.5072 1001.27 Q35.5176 997.447 43.6657 997.447 Z" fill="#000000" fill-rule="nonzero" fill-opacity="1"></path><path clip-path="url(#clip190)" d="M45.7664 961.927 Q39.4007 961.927 35.8996 964.568 Q32.3984 967.178 32.3984 971.921 Q32.3984 976.631 35.8996 979.273 Q39.4007 981.883 45.7664 981.883 Q52.1003 981.883 55.6014 979.273 Q59.1026 976.631 59.1026 971.921 Q59.1026 967.178 55.6014 964.568 Q52.1003 961.927 45.7664 961.927 M59.58 956.07 Q68.683 956.07 73.1071 960.112 Q77.5631 964.155 77.5631 972.494 Q77.5631 975.581 77.0857 978.318 Q76.6401 981.056 75.6852 983.634 L69.9879 983.634 Q71.3884 981.056 72.0568 978.541 Q72.7252 976.027 72.7252 973.417 Q72.7252 967.656 69.7015 964.791 Q66.7096 961.927 60.6303 961.927 L57.7339 961.927 Q60.885 963.741 62.4446 966.574 Q64.0042 969.406 64.0042 973.353 Q64.0042 979.91 59.0071 983.92 Q54.01 987.931 45.7664 987.931 Q37.491 987.931 32.4939 983.92 Q27.4968 979.91 27.4968 973.353 Q27.4968 969.406 29.0564 966.574 Q30.616 963.741 33.7671 961.927 L28.3562 961.927 L28.3562 956.07 L59.58 956.07 Z" fill="#000000" fill-rule="nonzero" fill-opacity="1"></path><path clip-path="url(#clip190)" d="M44.7161 913.515 L47.5806 913.515 L47.5806 940.442 Q53.6281 940.06 56.8109 936.814 Q59.9619 933.536 59.9619 927.711 Q59.9619 924.337 59.1344 921.186 Q58.3069 918.003 56.6518 914.884 L62.1899 914.884 Q63.5267 918.035 64.227 921.345 Q64.9272 924.655 64.9272 928.061 Q64.9272 936.591 59.9619 941.588 Q54.9967 946.553 46.5303 946.553 Q37.7774 946.553 32.6531 941.843 Q27.4968 937.1 27.4968 929.08 Q27.4968 921.886 32.1438 917.717 Q36.7589 913.515 44.7161 913.515 M42.9973 919.372 Q38.1912 919.436 35.3266 922.077 Q32.4621 924.687 32.4621 929.016 Q32.4621 933.918 35.2312 936.878 Q38.0002 939.806 43.0292 940.251 L42.9973 919.372 Z" fill="#000000" fill-rule="nonzero" fill-opacity="1"></path><path clip-path="url(#clip190)" d="M35.1993 855.428 Q31.2526 853.232 29.3747 850.177 Q27.4968 847.121 27.4968 842.983 Q27.4968 837.413 31.4117 834.39 Q35.2948 831.366 42.4881 831.366 L64.0042 831.366 L64.0042 837.254 L42.679 837.254 Q37.5546 837.254 35.072 839.068 Q32.5894 840.883 32.5894 844.607 Q32.5894 849.158 35.6131 851.8 Q38.6368 854.442 43.8567 854.442 L64.0042 854.442 L64.0042 860.33 L42.679 860.33 Q37.5228 860.33 35.072 862.144 Q32.5894 863.958 32.5894 867.746 Q32.5894 872.234 35.6449 874.876 Q38.6686 877.517 43.8567 877.517 L64.0042 877.517 L64.0042 883.406 L28.3562 883.406 L28.3562 877.517 L33.8944 877.517 Q30.616 875.512 29.0564 872.711 Q27.4968 869.91 27.4968 866.059 Q27.4968 862.176 29.4702 859.471 Q31.4436 856.733 35.1993 855.428 Z" fill="#000000" fill-rule="nonzero" fill-opacity="1"></path><path clip-path="url(#clip190)" d="M46.0847 803.484 Q46.0847 810.582 47.7079 813.319 Q49.3312 816.056 53.2461 816.056 Q56.3653 816.056 58.2114 814.019 Q60.0256 811.951 60.0256 808.418 Q60.0256 803.548 56.5881 800.62 Q53.1188 797.66 47.3897 797.66 L46.0847 797.66 L46.0847 803.484 M43.6657 791.803 L64.0042 791.803 L64.0042 797.66 L58.5933 797.66 Q61.8398 799.665 63.3994 802.657 Q64.9272 805.649 64.9272 809.977 Q64.9272 815.452 61.8716 818.698 Q58.7843 821.913 53.6281 821.913 Q47.6125 821.913 44.5569 817.902 Q41.5014 813.86 41.5014 805.871 L41.5014 797.66 L40.9285 797.66 Q36.8862 797.66 34.6901 800.333 Q32.4621 802.975 32.4621 807.781 Q32.4621 810.837 33.1941 813.733 Q33.9262 816.629 35.3903 819.303 L29.9795 819.303 Q28.7381 816.088 28.1334 813.065 Q27.4968 810.041 27.4968 807.176 Q27.4968 799.442 31.5072 795.623 Q35.5176 791.803 43.6657 791.803 Z" fill="#000000" fill-rule="nonzero" fill-opacity="1"></path><path clip-path="url(#clip190)" d="M45.7664 756.282 Q39.4007 756.282 35.8996 758.924 Q32.3984 761.534 32.3984 766.277 Q32.3984 770.987 35.8996 773.629 Q39.4007 776.239 45.7664 776.239 Q52.1003 776.239 55.6014 773.629 Q59.1026 770.987 59.1026 766.277 Q59.1026 761.534 55.6014 758.924 Q52.1003 756.282 45.7664 756.282 M59.58 750.426 Q68.683 750.426 73.1071 754.468 Q77.5631 758.51 77.5631 766.85 Q77.5631 769.937 77.0857 772.674 Q76.6401 775.411 75.6852 777.99 L69.9879 777.99 Q71.3884 775.411 72.0568 772.897 Q72.7252 770.382 72.7252 767.773 Q72.7252 762.012 69.7015 759.147 Q66.7096 756.282 60.6303 756.282 L57.7339 756.282 Q60.885 758.097 62.4446 760.929 Q64.0042 763.762 64.0042 767.709 Q64.0042 774.266 59.0071 778.276 Q54.01 782.286 45.7664 782.286 Q37.491 782.286 32.4939 778.276 Q27.4968 774.266 27.4968 767.709 Q27.4968 763.762 29.0564 760.929 Q30.616 758.097 33.7671 756.282 L28.3562 756.282 L28.3562 750.426 L59.58 750.426 Z" fill="#000000" fill-rule="nonzero" fill-opacity="1"></path><path clip-path="url(#clip190)" d="M42.4881 708.731 L64.0042 708.731 L64.0042 714.587 L42.679 714.587 Q37.6183 714.587 35.1038 716.56 Q32.5894 718.534 32.5894 722.481 Q32.5894 727.223 35.6131 729.96 Q38.6368 732.698 43.8567 732.698 L64.0042 732.698 L64.0042 738.586 L28.3562 738.586 L28.3562 732.698 L33.8944 732.698 Q30.6797 730.597 29.0883 727.764 Q27.4968 724.9 27.4968 721.176 Q27.4968 715.033 31.3163 711.882 Q35.1038 708.731 42.4881 708.731 Z" fill="#000000" fill-rule="nonzero" fill-opacity="1"></path><path clip-path="url(#clip190)" d="M28.3562 697.05 L28.3562 691.193 L64.0042 691.193 L64.0042 697.05 L28.3562 697.05 M14.479 697.05 L14.479 691.193 L21.895 691.193 L21.895 697.05 L14.479 697.05 Z" fill="#000000" fill-rule="nonzero" fill-opacity="1"></path><path clip-path="url(#clip190)" d="M18.2347 673.146 L28.3562 673.146 L28.3562 661.083 L32.9077 661.083 L32.9077 673.146 L52.2594 673.146 Q56.6199 673.146 57.8613 671.969 Q59.1026 670.759 59.1026 667.099 L59.1026 661.083 L64.0042 661.083 L64.0042 667.099 Q64.0042 673.878 61.4897 676.456 Q58.9434 679.035 52.2594 679.035 L32.9077 679.035 L32.9077 683.331 L28.3562 683.331 L28.3562 679.035 L18.2347 679.035 L18.2347 673.146 Z" fill="#000000" fill-rule="nonzero" fill-opacity="1"></path><path clip-path="url(#clip190)" d="M49.9359 653.986 L28.3562 653.986 L28.3562 648.129 L49.7131 648.129 Q54.7739 648.129 57.3202 646.156 Q59.8346 644.182 59.8346 640.236 Q59.8346 635.493 56.8109 632.756 Q53.7872 629.987 48.5673 629.987 L28.3562 629.987 L28.3562 624.13 L64.0042 624.13 L64.0042 629.987 L58.5296 629.987 Q61.7762 632.119 63.3676 634.952 Q64.9272 637.753 64.9272 641.477 Q64.9272 647.62 61.1078 650.803 Q57.2883 653.986 49.9359 653.986 M27.4968 639.249 L27.4968 639.249 Z" fill="#000000" fill-rule="nonzero" fill-opacity="1"></path><path clip-path="url(#clip190)" d="M33.7671 588.61 L14.479 588.61 L14.479 582.753 L64.0042 582.753 L64.0042 588.61 L58.657 588.61 Q61.8398 590.456 63.3994 593.289 Q64.9272 596.089 64.9272 600.036 Q64.9272 606.497 59.771 610.571 Q54.6147 614.614 46.212 614.614 Q37.8093 614.614 32.6531 610.571 Q27.4968 606.497 27.4968 600.036 Q27.4968 596.089 29.0564 593.289 Q30.5842 590.456 33.7671 588.61 M46.212 608.566 Q52.6732 608.566 56.3653 605.924 Q60.0256 603.251 60.0256 598.604 Q60.0256 593.957 56.3653 591.283 Q52.6732 588.61 46.212 588.61 Q39.7508 588.61 36.0905 591.283 Q32.3984 593.957 32.3984 598.604 Q32.3984 603.251 36.0905 605.924 Q39.7508 608.566 46.212 608.566 Z" fill="#000000" fill-rule="nonzero" fill-opacity="1"></path><path clip-path="url(#clip190)" d="M44.7161 540.199 L47.5806 540.199 L47.5806 567.125 Q53.6281 566.744 56.8109 563.497 Q59.9619 560.219 59.9619 554.394 Q59.9619 551.02 59.1344 547.869 Q58.3069 544.686 56.6518 541.567 L62.1899 541.567 Q63.5267 544.718 64.227 548.028 Q64.9272 551.339 64.9272 554.744 Q64.9272 563.274 59.9619 568.271 Q54.9967 573.237 46.5303 573.237 Q37.7774 573.237 32.6531 568.526 Q27.4968 563.783 27.4968 555.763 Q27.4968 548.569 32.1438 544.4 Q36.7589 540.199 44.7161 540.199 M42.9973 546.055 Q38.1912 546.119 35.3266 548.76 Q32.4621 551.37 32.4621 555.699 Q32.4621 560.601 35.2312 563.561 Q38.0002 566.489 43.0292 566.935 L42.9973 546.055 Z" fill="#000000" fill-rule="nonzero" fill-opacity="1"></path><path clip-path="url(#clip190)" d="M28.3562 509.866 L28.3562 504.01 L64.0042 504.01 L64.0042 509.866 L28.3562 509.866 M14.479 509.866 L14.479 504.01 L21.895 504.01 L21.895 509.866 L14.479 509.866 Z" fill="#000000" fill-rule="nonzero" fill-opacity="1"></path><path clip-path="url(#clip190)" d="M42.4881 462.123 L64.0042 462.123 L64.0042 467.98 L42.679 467.98 Q37.6183 467.98 35.1038 469.953 Q32.5894 471.926 32.5894 475.873 Q32.5894 480.616 35.6131 483.353 Q38.6368 486.09 43.8567 486.09 L64.0042 486.09 L64.0042 491.978 L28.3562 491.978 L28.3562 486.09 L33.8944 486.09 Q30.6797 483.989 29.0883 481.157 Q27.4968 478.292 27.4968 474.568 Q27.4968 468.425 31.3163 465.274 Q35.1038 462.123 42.4881 462.123 Z" fill="#000000" fill-rule="nonzero" fill-opacity="1"></path><path clip-path="url(#clip190)" d="M58.657 424.056 L77.5631 424.056 L77.5631 429.945 L28.3562 429.945 L28.3562 424.056 L33.7671 424.056 Q30.5842 422.21 29.0564 419.409 Q27.4968 416.577 27.4968 412.662 Q27.4968 406.169 32.6531 402.126 Q37.8093 398.052 46.212 398.052 Q54.6147 398.052 59.771 402.126 Q64.9272 406.169 64.9272 412.662 Q64.9272 416.577 63.3994 419.409 Q61.8398 422.21 58.657 424.056 M46.212 404.132 Q39.7508 404.132 36.0905 406.805 Q32.3984 409.447 32.3984 414.094 Q32.3984 418.741 36.0905 421.414 Q39.7508 424.056 46.212 424.056 Q52.6732 424.056 56.3653 421.414 Q60.0256 418.741 60.0256 414.094 Q60.0256 409.447 56.3653 406.805 Q52.6732 404.132 46.212 404.132 Z" fill="#000000" fill-rule="nonzero" fill-opacity="1"></path><path clip-path="url(#clip190)" d="M55.9197 387.517 L55.9197 380.801 L64.0042 380.801 L64.0042 387.517 L55.9197 387.517 Z" fill="#000000" fill-rule="nonzero" fill-opacity="1"></path><path clip-path="url(#clip190)" d="M49.9359 368.229 L28.3562 368.229 L28.3562 362.373 L49.7131 362.373 Q54.7739 362.373 57.3202 360.399 Q59.8346 358.426 59.8346 354.479 Q59.8346 349.737 56.8109 346.999 Q53.7872 344.23 48.5673 344.23 L28.3562 344.23 L28.3562 338.374 L64.0042 338.374 L64.0042 344.23 L58.5296 344.23 Q61.7762 346.363 63.3676 349.196 Q64.9272 351.996 64.9272 355.72 Q64.9272 361.863 61.1078 365.046 Q57.2883 368.229 49.9359 368.229 M27.4968 353.492 L27.4968 353.492 Z" fill="#000000" fill-rule="nonzero" fill-opacity="1"></path><path clip-path="url(#clip190)" d="M55.9197 325.483 L55.9197 318.767 L64.0042 318.767 L64.0042 325.483 L55.9197 325.483 Z" fill="#000000" fill-rule="nonzero" fill-opacity="1"></path><polyline clip-path="url(#clip192)" style="stroke:#009af9; stroke-linecap:round; stroke-linejoin:round; stroke-width:8; stroke-opacity:1; fill:none" points="338.375,517.685 342.287,517.685 346.198,517.685 350.109,517.685 354.021,517.685 357.932,517.685 361.844,517.685 365.755,517.685 369.667,517.685 373.578,517.685 377.489,517.685 381.401,517.685 385.312,517.685 389.224,517.685 393.135,517.685 397.046,517.685 400.958,517.685 404.869,517.685 408.781,517.685 412.692,517.685 416.604,517.685 420.515,517.685 424.426,517.685 428.338,517.685 432.249,517.685 436.161,517.685 440.072,517.685 443.984,517.685 447.895,517.685 451.806,517.685 455.718,517.685 459.629,517.685 463.541,517.685 467.452,517.685 471.363,517.685 475.275,517.685 479.186,517.685 483.098,517.685 487.009,517.685 490.921,517.685 494.832,517.685 498.743,517.685 502.655,517.685 506.566,517.685 510.478,517.685 514.389,517.685 518.3,517.685 522.212,517.685 526.123,517.685 530.035,517.685 533.946,517.685 537.858,1314.24 541.769,1365.15 545.68,1380.42 549.592,1384.24 553.503,1376.86 557.415,1356.34 561.326,1320.77 565.237,1269.49 569.149,1203.2 573.06,1123.84 576.972,1034.61 580.883,939.297 584.795,842.32 588.706,747.933 592.617,660.468 596.529,583.497 600.44,520.146 604.352,472.573 608.263,441.952 612.175,428.657 616.086,432.058 619.997,450.651 623.909,482.294 627.82,524.237 631.732,573.3 635.643,626.218 639.554,679.639 643.466,730.441 647.377,775.869 651.289,813.634 655.2,842.081 659.112,860.199 663.023,867.67 666.934,864.84 670.846,852.662 674.757,832.599 678.669,806.516 682.58,776.535 686.491,744.907 690.403,713.862 694.314,685.486 698.226,661.609 702.137,643.71 706.049,632.855 709.96,629.659 713.871,634.269 717.783,646.382 721.694,665.28 725.606,689.881 729.517,718.814 733.428,750.502 737.34,783.246 741.251,815.319 745.163,845.057 749.074,870.942 752.986,891.678 756.897,906.256 760.808,914.001 764.72,914.602 768.631,908.13 772.543,895.029 776.454,876.091 780.366,852.412 784.277,825.334 788.188,796.372 792.1,767.133 796.011,739.23 799.923,714.198 803.834,693.412 807.745,678.014 811.657,668.858 815.568,666.459 819.48,670.974 823.391,682.188 827.303,699.525 831.214,722.077 835.125,748.646 839.037,777.808 842.948,807.979 846.86,837.501 850.771,864.732 854.682,888.13 858.594,906.35 862.505,918.317 866.417,923.298 870.328,920.952 874.24,911.36 878.151,895.028 882.062,872.865 885.974,846.139 889.885,816.405 893.797,785.415 897.708,755.017 901.62,727.044 905.531,703.207 909.442,684.99 913.354,673.562 917.265,669.706 921.177,673.772 925.088,685.649 928.999,704.769 932.911,730.134 936.822,760.363 940.734,793.77 944.645,828.454 948.557,862.404 952.468,893.615 956.379,920.21 960.291,940.551 964.202,953.347 968.114,957.74 972.025,953.368 975.936,940.397 979.848,919.519 983.759,891.924 987.671,859.223 991.582,823.361 995.494,786.493 999.405,750.853 1003.32,718.617 1007.23,691.77 1011.14,671.982 1015.05,660.512 1018.96,658.128 1022.87,665.062 1026.78,680.993 1030.7,705.064 1034.61,735.926 1038.52,771.814 1042.43,810.639 1046.34,850.113 1050.25,887.874 1054.16,921.629 1058.08,949.292 1061.99,969.113 1065.9,979.796 1069.81,980.583 1073.72,971.316 1077.63,952.454 1081.54,925.053 1085.46,890.708 1089.37,851.458 1093.28,809.657 1097.19,767.832 1101.1,728.523 1105.01,694.127 1108.92,666.751 1112.84,648.086 1116.75,639.306 1120.66,640.998 1124.57,653.129 1128.48,675.05 1132.39,705.523 1136.3,742.799 1140.22,784.706 1144.13,828.775 1148.04,872.379 1151.95,912.884 1155.86,947.805 1159.77,974.961 1163.68,992.611 1167.6,999.57 1171.51,995.293 1175.42,979.919 1179.33,954.275 1183.24,919.831 1187.15,878.611 1191.06,833.074 1194.98,785.955 1198.89,740.098 1202.8,698.279 1206.71,663.033 1210.62,636.504 1214.53,620.314 1218.44,615.474 1222.36,622.322 1226.27,640.508 1230.18,669.01 1234.09,706.194 1238,749.901 1241.91,797.567 1245.82,846.365 1249.74,893.367 1253.65,935.713 1257.56,970.782 1261.47,996.357 1265.38,1010.76 1269.29,1012.99 1273.2,1002.76 1277.12,980.557 1281.03,947.613 1284.94,905.835 1288.85,857.69 1292.76,806.051 1296.67,754.02 1300.58,704.729 1304.5,661.151 1308.41,625.915 1312.32,601.152 1316.23,588.369 1320.14,588.366 1324.05,601.19 1327.96,626.135 1331.88,661.779 1335.79,706.066 1339.7,756.413 1343.61,809.856 1347.52,863.213 1351.43,913.262 1355.34,956.936 1359.26,991.505 1363.17,1014.75 1367.08,1025.11 1370.99,1021.78 1374.9,1004.81 1378.81,975.069 1382.72,934.248 1386.64,884.726 1390.55,829.438 1394.46,771.691 1398.37,714.954 1402.28,662.641 1406.19,617.901 1410.1,583.426 1414.02,561.296 1417.93,552.859 1421.84,558.655 1425.75,578.391 1429.66,610.958 1433.57,654.49 1437.48,706.467 1441.4,763.85 1445.31,823.248 1449.22,881.107 1453.13,933.911 1457.04,978.396 1460.95,1011.75 1464.86,1031.78 1468.78,1037.08 1472.69,1027.15 1476.6,1002.4 1480.51,964.166 1484.42,914.65 1488.33,856.762 1492.24,793.952 1496.16,729.988 1500.07,668.718 1503.98,613.826 1507.89,568.615 1511.8,535.802 1515.71,517.363 1519.62,514.427 1523.54,527.212 1527.45,555.018 1531.36,596.267 1535.27,648.587 1539.18,708.943 1543.09,773.795 1547,839.296 1550.92,901.504 1554.83,956.611 1558.74,1001.17 1562.65,1032.33 1566.56,1047.99 1570.47,1046.97 1574.38,1029.13 1578.29,995.332 1582.21,947.481 1586.12,888.358 1590.03,821.468 1593.94,750.821 1597.85,680.666 1601.76,615.229 1605.67,558.448 1609.59,513.733 1613.5,483.768 1617.41,470.357 1621.32,474.332 1625.23,495.508 1629.14,532.7 1633.05,583.785 1636.97,645.822 1640.88,715.202 1644.79,787.845 1648.7,859.423 1652.61,925.6 1656.52,982.294 1660.43,1025.92 1664.35,1053.62 1668.26,1063.47 1672.17,1054.62 1676.08,1027.37 1679.99,983.16 1683.9,924.523 1687.81,854.914 1691.73,778.494 1695.64,699.862 1699.55,623.763 1703.46,554.784 1707.37,497.073 1711.28,454.089 1715.19,428.407 1719.11,421.575 1723.02,434.039 1726.93,465.122 1730.84,513.067 1734.75,575.134 1738.66,647.744 1742.57,726.664 1746.49,807.24 1750.4,884.646 1754.31,954.163 1758.22,1011.46 1762.13,1052.86 1766.04,1075.59 1769.95,1077.99 1773.87,1059.62 1777.78,1021.35 1781.69,965.302 1785.6,894.735 1789.51,813.852 1793.42,727.522 1797.33,640.961 1801.25,559.4 1805.16,487.757 1809.07,430.331 1812.98,390.555 1816.89,370.806 1820.8,372.281 1824.71,394.941 1828.63,437.524 1832.54,497.616 1836.45,571.78 1840.36,655.734 1844.27,744.576 1848.18,833.047 1852.09,915.818 1856.01,987.801 1859.92,1044.46 1863.83,1082.09 1867.74,1098.1 1871.65,1091.19 1875.56,1061.46 1879.47,1010.47 1883.39,941.125 1887.3,857.52 1891.21,764.68 1895.12,668.225 1899.03,574 1902.94,487.706 1906.85,414.535 1910.77,358.869 1914.68,324.023 1918.59,312.075 1922.5,323.762 1926.41,358.458 1930.32,414.215 1934.23,487.869 1938.15,575.207 1942.06,671.183 1945.97,770.178 1949.88,866.306 1953.79,953.737 1957.7,1027.04 1961.61,1081.53 1965.53,1113.57 1969.44,1120.85 1973.35,1102.54 1977.26,1059.44 1981.17,993.922 1985.08,909.799 1988.99,812.107 1992.91,706.76 1996.82,600.165 2000.73,498.794 2004.64,408.776 2008.55,335.515 2012.46,283.378 2016.37,255.458 2020.29,253.414 2024.2,277.411 2028.11,326.117 2032.02,396.793 2035.93,485.431 2039.84,586.961 2043.75,695.508 2047.67,804.699 2051.58,908 2055.49,999.093 2059.4,1072.25 2063.31,1122.72 2067.22,1147.02 2071.13,1143.25 2075.05,1111.23 2078.96,1052.58 2082.87,970.644 2086.78,870.282 2090.69,757.558 2094.6,639.348 2098.51,522.856 2102.43,415.169 2106.34,322.774 2110.25,251.205 2114.16,204.693 2118.07,185.99 2121.98,196.201 2125.89,234.793 2129.81,299.602 2133.72,386.993 2137.63,492.004 2141.54,608.641 2145.45,730.128 2149.36,849.311 2153.27,958.994 2157.18,1052.41 2161.1,1123.58 2165.01,1167.79 2168.92,1181.85 2172.83,1164.42 2176.74,1116.13 2180.65,1039.63 2184.56,939.343 2188.48,821.36 2192.39,692.817 2196.3,561.666 2200.21,435.827 2204.12,323.047 2208.03,229.985 2211.94,162.29 2215.86,123.829 2219.77,116.954 2223.68,141.991 2227.59,197.655 2231.5,280.728 2235.41,386.662 2239.32,509.34 2243.24,641.865 2247.15,776.403 2251.06,905.092 2254.97,1019.98 2258.88,1114 2262.79,1180.91 2266.7,1216.25 2270.62,1217.14 2274.53,1183.21 2278.44,1115.81 2282.35,1019.12 2286.26,898.505 2290.17,761.65 2294.08,616.679 "></polyline>
<polyline clip-path="url(#clip192)" style="stroke:#e26f46; stroke-linecap:round; stroke-linejoin:round; stroke-width:8; stroke-opacity:1; fill:none" points="338.375,517.685 342.287,517.685 346.198,517.685 350.109,517.685 354.021,517.685 357.932,517.685 361.844,517.685 365.755,517.685 369.667,517.685 373.578,517.685 377.489,517.685 381.401,517.685 385.312,517.685 389.224,517.685 393.135,517.685 397.046,517.685 400.958,517.685 404.869,517.685 408.781,517.685 412.692,517.685 416.604,517.685 420.515,517.685 424.426,517.685 428.338,517.685 432.249,517.685 436.161,517.685 440.072,517.685 443.984,517.685 447.895,517.685 451.806,517.685 455.718,517.685 459.629,517.685 463.541,517.685 467.452,517.685 471.363,517.685 475.275,517.685 479.186,517.685 483.098,517.685 487.009,517.685 490.921,517.685 494.832,517.685 498.743,517.685 502.655,517.685 506.566,517.685 510.478,517.685 514.389,517.685 518.3,517.685 522.212,517.685 526.123,517.685 530.035,517.685 533.946,517.685 537.858,628.571 541.769,643.278 545.68,649.848 549.592,654.031 553.503,656.432 557.415,656.871 561.326,654.746 565.237,649.626 569.149,641.316 573.06,629.772 576.972,615.383 580.883,598.571 584.795,580.251 588.706,561.109 592.617,542.309 596.529,524.628 600.44,509.097 604.352,496.61 608.263,487.649 612.175,482.825 616.086,482.43 619.997,486.362 623.909,494.497 627.82,506.442 631.732,521.425 635.643,538.759 639.554,557.466 643.466,576.534 647.377,594.976 651.289,611.785 655.2,626.095 659.112,637.151 663.023,644.393 666.934,647.46 670.846,646.229 674.757,640.796 678.669,631.498 682.58,618.871 686.491,603.633 690.403,586.643 694.314,568.85 698.226,551.246 702.137,534.808 706.049,520.446 709.96,508.952 713.871,500.957 717.783,496.899 721.694,496.996 725.606,501.237 729.517,509.384 733.428,520.982 737.34,535.383 741.251,551.783 745.163,569.257 749.074,586.818 752.986,603.458 756.897,618.214 760.808,630.219 764.72,638.752 768.631,643.285 772.543,643.52 776.454,639.406 780.366,631.151 784.277,619.214 788.188,604.279 792.1,587.216 796.011,569.033 799.923,550.813 803.834,533.654 807.745,518.598 811.657,506.573 815.568,498.336 819.48,494.427 823.391,495.14 827.303,500.499 831.214,510.255 835.125,523.9 839.037,540.687 842.948,559.676 846.86,579.776 850.771,599.815 854.682,618.603 858.594,635.001 862.505,647.997 866.417,656.767 870.328,660.729 874.24,659.585 878.151,653.347 882.062,642.337 885.974,627.172 889.885,608.732 893.797,588.102 897.708,566.511 901.62,545.253 905.531,525.612 909.442,508.781 913.354,495.792 917.265,487.455 921.177,484.307 925.088,486.58 928.999,494.189 932.911,506.729 936.822,523.501 940.734,543.544 944.645,565.692 948.557,588.639 952.468,611.011 956.379,631.452 960.291,648.703 964.202,661.682 968.114,669.554 972.025,671.786 975.936,668.188 979.848,658.925 983.759,644.512 987.671,625.785 991.582,603.853 995.494,580.026 999.405,555.737 1003.32,532.453 1007.23,511.585 1011.14,494.406 1015.05,481.969 1018.96,475.052 1022.87,474.106 1026.78,479.229 1030.7,490.164 1034.61,506.303 1038.52,526.727 1042.43,550.251 1046.34,575.492 1050.25,600.949 1054.16,625.085 1058.08,646.426 1061.99,663.646 1065.9,675.652 1069.81,681.658 1073.72,681.235 1077.63,674.344 1081.54,661.345 1085.46,642.977 1089.37,620.312 1093.28,594.694 1097.19,567.651 1101.1,540.807 1105.01,515.775 1108.92,494.067 1112.84,476.996 1116.75,465.605 1120.66,460.601 1124.57,462.317 1128.48,470.691 1132.39,485.266 1136.3,505.217 1140.22,529.394 1144.13,556.384 1148.04,584.59 1151.95,612.322 1155.86,637.898 1159.77,659.741 1163.68,676.482 1167.6,687.044 1171.51,690.715 1175.42,687.198 1179.33,676.636 1183.24,659.607 1187.15,637.091 1191.06,610.413 1194.98,581.158 1198.89,551.076 1202.8,521.971 1206.71,495.592 1210.62,473.529 1214.53,457.116 1218.44,447.355 1222.36,444.858 1226.27,449.809 1230.18,461.957 1234.09,480.626 1238,504.75 1241.91,532.929 1245.82,563.51 1249.74,594.676 1253.65,624.548 1257.56,651.302 1261.47,673.275 1265.38,689.072 1269.29,697.657 1273.2,698.425 1277.12,691.242 1281.03,676.468 1284.94,654.93 1288.85,627.882 1292.76,596.92 1296.67,563.889 1300.58,530.765 1304.5,499.534 1308.41,472.071 1312.32,450.027 1316.23,434.733 1320.14,427.126 1324.05,427.688 1327.96,436.428 1331.88,452.872 1335.79,476.094 1339.7,504.759 1343.61,537.197 1347.52,571.496 1351.43,605.606 1355.34,637.458 1359.26,665.092 1363.17,686.772 1367.08,701.101 1370.99,707.115 1374.9,704.349 1378.81,692.877 1382.72,673.309 1386.64,646.766 1390.55,614.803 1394.46,579.318 1398.37,542.429 1402.28,506.347 1406.19,473.234 1410.1,445.077 1414.02,423.569 1417.93,410.01 1421.84,405.233 1425.75,409.559 1429.66,422.779 1433.57,444.162 1437.48,472.492 1441.4,506.135 1445.31,543.124 1449.22,581.267 1453.13,618.274 1457.04,651.884 1460.95,680.01 1464.86,700.865 1468.78,713.08 1472.69,715.802 1476.6,708.754 1480.51,692.26 1484.42,667.237 1488.33,635.135 1492.24,597.851 1496.16,557.608 1500.07,516.816 1503.98,477.92 1507.89,443.253 1511.8,414.892 1515.71,394.542 1519.62,383.435 1523.54,382.263 1527.45,391.14 1531.36,409.593 1535.27,436.589 1539.18,470.588 1543.09,509.62 1547,551.395 1550.92,593.424 1554.83,633.168 1558.74,668.181 1562.65,696.265 1566.56,715.613 1570.47,724.925 1574.38,723.507 1578.29,711.322 1582.21,689.005 1586.12,657.825 1590.03,619.612 1593.94,576.64 1597.85,531.481 1601.76,486.846 1605.67,445.411 1609.59,409.659 1613.5,381.733 1617.41,363.311 1621.32,355.511 1625.23,358.836 1629.14,373.142 1633.05,397.646 1636.97,430.967 1640.88,471.196 1644.79,515.994 1648.7,562.722 1652.61,608.584 1656.52,650.788 1660.43,686.715 1664.35,714.084 1668.26,731.104 1672.17,736.595 1676.08,730.08 1679.99,711.825 1683.9,682.834 1687.81,644.787 1691.73,599.94 1695.64,550.977 1699.55,500.839 1703.46,452.539 1707.37,408.973 1711.28,372.75 1715.19,346.038 1719.11,330.443 1723.02,326.92 1726.93,335.727 1730.84,356.407 1734.75,387.814 1738.66,428.171 1742.57,475.158 1746.49,526.036 1750.4,577.793 1754.31,627.313 1758.22,671.559 1762.13,707.759 1766.04,733.583 1769.95,747.304 1773.87,747.923 1777.78,735.246 1781.69,709.912 1785.6,673.359 1789.51,627.739 1793.42,575.778 1797.33,520.602 1801.25,465.531 1805.16,413.878 1809.07,368.737 1812.98,332.809 1816.89,308.239 1820.8,296.508 1824.71,298.351 1828.63,313.718 1832.54,341.781 1836.45,380.975 1840.36,429.076 1844.27,483.312 1848.18,540.509 1852.09,597.264 1856.01,650.137 1859.92,695.856 1863.83,731.522 1867.74,754.804 1871.65,764.099 1875.56,758.658 1879.47,738.647 1883.39,705.156 1887.3,660.129 1891.21,606.25 1895.12,546.76 1899.03,485.25 1902.94,425.428 1906.85,370.891 1910.77,324.9 1914.68,290.201 1918.59,268.864 1922.5,262.182 1926.41,270.599 1930.32,293.697 1934.23,330.212 1938.15,378.099 1942.06,434.634 1945.97,496.551 1949.88,560.21 1953.79,621.801 1957.7,677.559 1961.61,723.998 1965.53,758.132 1969.44,777.685 1973.35,781.252 1977.26,768.417 1981.17,739.795 1985.08,697.009 1988.99,642.589 1992.91,579.807 1996.82,512.463 2000.73,444.631 2004.64,380.403 2008.55,323.633 2012.46,277.709 2016.37,245.364 2020.29,228.526 2024.2,228.229 2028.11,244.555 2032.02,276.645 2035.93,322.726 2039.84,380.218 2043.75,445.836 2047.67,515.782 2051.58,585.916 2055.49,652.016 2059.4,709.997 2063.31,756.194 2067.22,787.581 2071.13,802.013 2075.05,798.366 2078.96,776.658 2082.87,738.048 2086.78,684.791 2090.69,620.075 2094.6,547.827 2098.51,472.429 2102.43,398.46 2106.34,330.364 2110.25,272.231 2114.16,227.499 2118.07,198.843 2121.98,187.948 2125.89,195.538 2129.81,221.218 2133.72,263.647 2137.63,320.43 2141.54,388.431 2145.45,463.7 2149.36,541.919 2153.27,618.371 2157.18,688.465 2161.1,747.771 2165.01,792.527 2168.92,819.705 2172.83,827.406 2176.74,814.865 2180.65,782.674 2184.56,732.613 2188.48,667.707 2192.39,591.831 2196.3,509.685 2200.21,426.179 2204.12,346.489 2208.03,275.26 2211.94,216.912 2215.86,174.686 2219.77,151.331 2223.68,147.942 2227.59,165.158 2231.5,201.643 2235.41,255.938 2239.32,324.435 2243.24,403.949 2247.15,489.192 2251.06,575.92 2254.97,658.197 2258.88,731.651 2262.79,791.023 2266.7,832.954 2270.62,854.126 2274.53,853.323 2278.44,829.947 2282.35,785.619 2286.26,722.545 2290.17,644.849 2294.08,557.002 "></polyline>
<polyline clip-path="url(#clip192)" style="stroke:#3da44d; stroke-linecap:round; stroke-linejoin:round; stroke-width:8; stroke-opacity:1; fill:none" points="338.375,517.685 342.287,517.685 346.198,517.685 350.109,517.685 354.021,517.685 357.932,517.685 361.844,517.685 365.755,517.685 369.667,517.685 373.578,517.685 377.489,517.685 381.401,517.685 385.312,517.685 389.224,517.685 393.135,517.685 397.046,517.685 400.958,517.685 404.869,517.685 408.781,517.685 412.692,517.685 416.604,517.685 420.515,517.685 424.426,517.685 428.338,517.685 432.249,517.685 436.161,517.685 440.072,517.685 443.984,517.685 447.895,517.685 451.806,517.685 455.718,517.685 459.629,517.685 463.541,517.685 467.452,517.685 471.363,517.685 475.275,517.685 479.186,517.685 483.098,517.685 487.009,517.685 490.921,517.685 494.832,517.685 498.743,517.685 502.655,517.685 506.566,517.685 510.478,517.685 514.389,517.685 518.3,517.685 522.212,517.685 526.123,517.685 530.035,517.685 533.946,517.685 537.858,760.751 541.769,782.602 545.68,788.559 549.592,788.779 553.503,784.724 557.415,776.548 561.326,763.856 565.237,746.477 569.149,724.601 573.06,698.697 576.972,669.767 580.883,638.895 584.795,607.648 588.706,577.313 592.617,549.566 596.529,525.557 600.44,506.552 604.352,493.482 608.263,486.72 612.175,486.606 616.086,492.986 619.997,505.233 623.909,522.612 627.82,544.052 631.732,568.129 635.643,593.558 639.554,618.815 643.466,642.473 647.377,663.287 651.289,680.122 655.2,692.172 659.112,698.894 663.023,700.088 666.934,695.88 670.846,686.714 674.757,673.304 678.669,656.608 682.58,637.735 686.491,617.895 690.403,598.316 694.314,580.169 698.226,564.506 702.137,552.198 706.049,543.889 709.96,539.97 713.871,540.561 717.783,545.512 721.694,554.425 725.606,566.677 729.517,581.469 733.428,597.873 737.34,614.892 741.251,631.512 745.163,646.767 749.074,659.792 752.986,669.864 756.897,676.447 760.808,679.217 764.72,678.073 768.631,673.143 772.543,664.77 776.454,653.492 780.366,640.005 784.277,625.122 788.188,609.728 792.1,594.724 796.011,580.981 799.923,569.289 803.834,560.315 807.745,554.565 811.657,552.365 815.568,553.837 819.48,558.902 823.391,567.281 827.303,578.513 831.214,591.982 835.125,606.949 839.037,622.593 842.948,638.053 846.86,652.477 850.771,665.063 854.682,675.11 858.594,682.05 862.505,685.487 866.417,685.216 870.328,681.239 874.24,673.768 878.151,663.215 882.062,650.17 885.974,635.371 889.885,619.663 893.797,603.948 897.708,589.139 901.62,576.101 905.531,565.607 909.442,558.291 913.354,554.607 917.265,554.808 921.177,558.925 925.088,566.765 928.999,577.916 932.911,591.773 936.822,607.565 940.734,624.397 944.645,641.301 948.557,657.288 952.468,671.407 956.379,682.8 960.291,690.756 964.202,694.755 968.114,694.504 972.025,689.959 975.936,681.332 979.848,669.087 983.759,653.907 987.671,636.668 991.582,618.377 995.494,600.12 999.405,582.993 1003.32,568.035 1007.23,556.169 1011.14,548.14 1015.05,544.472 1018.96,545.432 1022.87,551.016 1026.78,560.943 1030.7,574.667 1034.61,591.412 1038.52,610.209 1042.43,629.953 1046.34,649.467 1050.25,667.571 1054.16,683.151 1058.08,695.229 1061.99,703.028 1065.9,706.017 1069.81,703.95 1073.72,696.891 1077.63,685.207 1081.54,669.554 1085.46,650.84 1089.37,630.17 1093.28,608.778 1097.19,587.954 1101.1,568.963 1105.01,552.967 1108.92,540.956 1112.84,533.683 1116.75,531.62 1120.66,534.929 1124.57,543.449 1128.48,556.705 1132.39,573.933 1136.3,594.127 1140.22,616.088 1144.13,638.501 1148.04,660.01 1151.95,679.297 1155.86,695.163 1159.77,706.602 1163.68,712.866 1167.6,713.513 1171.51,708.441 1175.42,697.896 1179.33,682.462 1183.24,663.03 1187.15,640.742 1191.06,616.924 1194.98,593.003 1198.89,570.423 1202.8,550.552 1206.71,534.599 1210.62,523.541 1214.53,518.066 1218.44,518.526 1222.36,524.922 1226.27,536.898 1230.18,553.764 1234.09,574.532 1238,597.976 1241.91,622.698 1245.82,647.211 1249.74,670.028 1253.65,689.745 1257.56,705.132 1261.47,715.205 1265.38,719.294 1269.29,717.083 1273.2,708.638 1277.12,694.406 1281.03,675.192 1284.94,652.113 1288.85,626.528 1292.76,599.959 1296.67,573.998 1300.58,550.202 1304.5,530.009 1308.41,514.641 1312.32,505.034 1316.23,501.784 1320.14,505.108 1324.05,514.833 1327.96,530.405 1331.88,550.921 1335.79,575.175 1339.7,601.733 1343.61,629.011 1347.52,655.364 1351.43,679.188 1355.34,699.011 1359.26,713.584 1363.17,721.962 1367.08,723.564 1370.99,718.213 1374.9,706.155 1378.81,688.047 1382.72,664.923 1386.64,638.129 1390.55,609.248 1394.46,579.999 1398.37,552.132 1402.28,527.32 1406.19,507.058 1410.1,492.574 1414.02,484.753 1417.93,484.084 1421.84,490.634 1425.75,504.042 1429.66,523.538 1433.57,547.988 1437.48,575.954 1441.4,605.778 1445.31,635.677 1449.22,663.841 1453.13,688.544 1457.04,708.248 1460.95,721.696 1464.86,727.992 1468.78,726.666 1472.69,717.706 1476.6,701.565 1480.51,679.141 1484.42,651.725 1488.33,620.924 1492.24,588.565 1496.16,556.577 1500.07,526.88 1503.98,501.259 1507.89,481.263 1511.8,468.105 1515.71,462.593 1519.62,465.085 1523.54,475.462 1527.45,493.139 1531.36,517.096 1535.27,545.934 1539.18,577.954 1543.09,611.25 1547,643.823 1550.92,673.691 1554.83,699.01 1558.74,718.187 1562.65,729.979 1566.56,733.573 1570.47,728.648 1574.38,715.397 1578.29,694.529 1582.21,667.225 1586.12,635.072 1590.03,599.969 1593.94,564.006 1597.85,529.338 1601.76,498.048 1605.67,472.023 1609.59,452.837 1613.5,441.66 1617.41,439.185 1621.32,445.59 1625.23,460.529 1629.14,483.148 1633.05,512.135 1636.97,545.793 1640.88,582.132 1644.79,618.984 1648.7,654.125 1652.61,685.405 1656.52,710.879 1660.43,728.925 1664.35,738.349 1668.26,738.465 1672.17,729.151 1676.08,710.857 1679.99,684.594 1683.9,651.871 1687.81,614.609 1691.73,575.022 1695.64,535.477 1699.55,498.351 1703.46,465.879 1707.37,440.025 1711.28,422.353 1715.19,413.944 1719.11,415.331 1723.02,426.465 1726.93,446.722 1730.84,474.938 1734.75,509.471 1738.66,548.294 1742.57,589.108 1746.49,629.468 1750.4,666.929 1754.31,699.185 1758.22,724.214 1762.13,740.398 1766.04,746.638 1769.95,742.426 1773.87,727.887 1777.78,703.785 1781.69,671.481 1785.6,632.856 1789.51,590.194 1793.42,546.043 1797.33,503.055 1801.25,463.819 1805.16,430.703 1809.07,405.709 1812.98,390.355 1816.89,385.585 1820.8,391.718 1824.71,408.43 1828.63,434.771 1832.54,469.222 1836.45,509.775 1840.36,554.045 1844.27,599.404 1848.18,643.127 1852.09,682.552 1856.01,715.235 1859.92,739.104 1863.83,752.592 1867.74,754.74 1871.65,745.271 1875.56,724.62 1879.47,693.92 1883.39,654.933 1887.3,609.953 1891.21,561.659 1895.12,512.95 1899.03,466.76 1902.94,425.878 1906.85,392.773 1910.77,369.45 1914.68,357.328 1918.59,357.163 1922.5,369.006 1926.41,392.2 1930.32,425.42 1934.23,466.745 1938.15,513.763 1942.06,563.707 1945.97,613.602 1949.88,660.439 1953.79,701.348 1957.7,733.775 1961.61,755.635 1965.53,765.456 1969.44,762.481 1973.35,746.729 1977.26,719.01 1981.17,680.883 1985.08,634.571 1988.99,582.822 1992.91,528.739 1996.82,475.579 2000.73,426.557 2004.64,384.634 2008.55,352.347 2012.46,331.651 2016.37,323.814 2020.29,329.339 2024.2,347.947 2028.11,378.589 2032.02,419.51 2035.93,468.34 2039.84,522.226 2043.75,577.989 2047.67,632.298 2051.58,681.86 2055.49,723.62 2059.4,754.939 2063.31,773.771 2067.22,778.8 2071.13,769.538 2075.05,746.371 2078.96,710.559 2082.87,664.155 2086.78,609.902 2090.69,551.036 2094.6,491.117 2098.51,433.754 2102.43,382.436 2106.34,340.252 2110.25,309.769 2114.16,292.826 2118.07,290.473 2121.98,302.893 2125.89,329.409 2129.81,368.513 2133.72,417.964 2137.63,474.892 2141.54,535.971 2145.45,597.583 2149.36,656.037 2153.27,707.765 2157.18,749.553 2161.1,778.72 2165.01,793.327 2168.92,792.268 2172.83,775.427 2176.74,743.611 2180.65,698.653 2184.56,643.107 2188.48,580.382 2192.39,514.122 2196.3,448.506 2200.21,387.32 2204.12,334.476 2208.03,292.982 2211.94,265.499 2215.86,253.599 2219.77,258.08 2223.68,278.706 2227.59,314.353 2231.5,362.942 2235.41,421.749 2239.32,487.29 2243.24,555.79 2247.15,623.125 2251.06,685.291 2254.97,738.412 2258.88,779.219 2262.79,804.953 2266.7,813.986 2270.62,805.317 2274.53,779.57 2278.44,737.661 2282.35,682.665 2286.26,617.043 2290.17,545.483 2294.08,471.629 "></polyline>
<polyline clip-path="url(#clip192)" style="stroke:#c271d2; stroke-linecap:round; stroke-linejoin:round; stroke-width:8; stroke-opacity:1; fill:none" points="338.375,517.685 342.287,517.685 346.198,517.685 350.109,517.685 354.021,517.685 357.932,517.685 361.844,517.685 365.755,517.685 369.667,517.685 373.578,517.685 377.489,517.685 381.401,517.685 385.312,517.685 389.224,517.685 393.135,517.685 397.046,517.685 400.958,517.685 404.869,517.685 408.781,517.685 412.692,517.685 416.604,517.685 420.515,517.685 424.426,517.685 428.338,517.685 432.249,517.685 436.161,517.685 440.072,517.685 443.984,517.685 447.895,517.685 451.806,517.685 455.718,517.685 459.629,517.685 463.541,517.685 467.452,517.685 471.363,517.685 475.275,517.685 479.186,517.685 483.098,517.685 487.009,517.685 490.921,517.685 494.832,517.685 498.743,517.685 502.655,517.685 506.566,517.685 510.478,517.685 514.389,517.685 518.3,517.685 522.212,517.685 526.123,517.685 530.035,517.685 533.946,517.685 537.858,850.533 541.769,876.92 545.68,887.172 549.592,892.803 553.503,894.005 557.415,889.719 561.326,878.576 565.237,859.734 569.149,832.981 573.06,798.73 576.972,758.186 580.883,712.921 584.795,665.134 588.706,616.966 592.617,570.939 596.529,529.165 600.44,493.759 604.352,466.398 608.263,448.142 612.175,439.755 616.086,441.345 619.997,452.403 623.909,472.038 627.82,498.863 631.732,531.062 635.643,566.714 639.554,603.67 643.466,639.822 647.377,673.209 651.289,702.076 655.2,725.033 659.112,741.075 663.023,749.651 666.934,750.669 670.846,744.482 674.757,731.842 678.669,713.847 682.58,691.85 686.491,667.375 690.403,642.019 694.314,617.359 698.226,594.862 702.137,575.807 706.049,561.227 709.96,551.858 713.871,548.115 717.783,550.084 721.694,557.528 725.606,569.917 729.517,586.461 733.428,606.167 737.34,627.892 741.251,650.406 745.163,672.462 749.074,692.854 752.986,710.479 756.897,724.396 760.808,733.869 764.72,738.403 768.631,737.776 772.543,732.041 776.454,721.534 780.366,706.849 784.277,688.813 788.188,668.438 792.1,646.871 796.011,625.328 799.923,605.031 803.834,587.141 807.745,572.694 811.657,562.544 815.568,557.319 819.48,557.382 823.391,562.811 827.303,573.391 831.214,588.622 835.125,607.744 839.037,629.765 842.948,653.521 846.86,677.724 850.771,701.04 854.682,722.157 858.594,739.863 862.505,753.116 866.417,761.114 870.328,763.346 874.24,759.631 878.151,750.136 882.062,735.376 885.974,716.186 889.885,693.68 893.797,669.181 897.708,644.148 901.62,620.085 905.531,598.455 909.442,580.588 913.354,567.602 917.265,560.336 921.177,559.3 925.088,564.639 928.999,576.125 932.911,593.162 936.822,614.819 940.734,639.875 944.645,666.891 948.557,694.283 952.468,720.419 956.379,743.714 960.291,762.726 964.202,776.25 968.114,783.393 972.025,783.643 975.936,776.902 979.848,763.5 983.759,744.185 987.671,720.076 991.582,692.599 995.494,663.399 999.405,634.237 1003.32,606.886 1007.23,583.017 1011.14,564.101 1015.05,551.318 1018.96,545.49 1022.87,547.028 1026.78,555.909 1030.7,571.673 1034.61,593.45 1038.52,620.002 1042.43,649.793 1046.34,681.077 1050.25,711.991 1054.16,740.672 1058.08,765.364 1061.99,784.527 1065.9,796.937 1069.81,801.767 1073.72,798.645 1077.63,787.686 1081.54,769.489 1085.46,745.104 1089.37,715.973 1093.28,683.836 1097.19,650.629 1101.1,618.36 1105.01,588.985 1108.92,564.292 1112.84,545.792 1116.75,534.627 1120.66,531.509 1124.57,536.673 1128.48,549.865 1132.39,570.357 1136.3,596.98 1140.22,628.195 1144.13,662.17 1148.04,696.889 1151.95,730.264 1155.86,760.261 1159.77,785.021 1163.68,802.976 1167.6,812.953 1171.51,814.253 1175.42,806.703 1179.33,790.674 1183.24,767.063 1187.15,737.242 1191.06,702.976 1194.98,666.31 1198.89,629.446 1202.8,594.601 1206.71,563.876 1210.62,539.127 1214.53,521.855 1218.44,513.119 1222.36,513.477 1226.27,522.949 1230.18,541.022 1234.09,566.673 1238,598.424 1241.91,634.424 1245.82,672.548 1249.74,710.52 1253.65,746.041 1257.56,776.93 1261.47,801.251 1265.38,817.442 1269.29,824.418 1273.2,821.645 1277.12,809.183 1281.03,787.694 1284.94,758.401 1288.85,723.019 1292.76,683.648 1296.67,642.64 1300.58,602.455 1304.5,565.506 1308.41,534.013 1312.32,509.873 1316.23,494.544 1320.14,488.966 1324.05,493.507 1327.96,507.942 1331.88,531.466 1335.79,562.733 1339.7,599.933 1343.61,640.887 1347.52,683.167 1351.43,724.233 1355.34,761.583 1359.26,792.899 1363.17,816.194 1367.08,829.944 1370.99,833.185 1374.9,825.592 1378.81,807.504 1382.72,779.915 1386.64,744.414 1390.55,703.091 1394.46,658.405 1398.37,613.028 1402.28,569.679 1406.19,530.957 1410.1,499.183 1414.02,476.264 1417.93,463.584 1421.84,461.924 1425.75,471.421 1429.66,491.56 1433.57,521.204 1437.48,558.649 1441.4,601.718 1445.31,647.876 1449.22,694.376 1453.13,738.404 1457.04,777.256 1460.95,808.495 1464.86,830.11 1468.78,840.647 1472.69,839.315 1476.6,826.05 1480.51,801.524 1484.42,767.119 1488.33,724.838 1492.24,677.186 1496.16,627.008 1500.07,577.309 1503.98,531.068 1507.89,491.054 1511.8,459.664 1515.71,438.778 1519.62,429.659 1523.54,432.878 1527.45,448.291 1531.36,475.04 1535.27,511.605 1539.18,555.876 1543.09,605.271 1547,656.873 1550.92,707.592 1554.83,754.34 1558.74,794.218 1562.65,824.695 1566.56,843.772 1570.47,850.122 1574.38,843.186 1578.29,823.225 1582.21,791.315 1586.12,749.287 1590.03,699.615 1593.94,645.259 1597.85,589.473 1601.76,535.606 1605.67,486.886 1609.59,446.229 1613.5,416.063 1617.41,398.196 1621.32,393.71 1625.23,402.909 1629.14,425.302 1633.05,459.631 1636.97,503.935 1640.88,555.652 1644.79,611.756 1648.7,668.921 1652.61,723.701 1656.52,772.737 1660.43,812.958 1664.35,841.773 1668.26,857.251 1672.17,858.253 1676.08,844.529 1679.99,816.742 1683.9,776.447 1687.81,725.993 1691.73,668.375 1695.64,607.045 1699.55,545.688 1703.46,487.989 1707.37,437.405 1711.28,396.958 1715.19,369.059 1719.11,355.379 1723.02,356.755 1726.93,373.154 1730.84,403.672 1734.75,446.584 1738.66,499.434 1742.57,559.16 1746.49,622.257 1750.4,684.965 1754.31,743.482 1758.22,794.188 1762.13,833.87 1766.04,859.93 1769.95,870.566 1773.87,864.909 1777.78,843.099 1781.69,806.29 1785.6,756.594 1789.51,696.945 1793.42,630.913 1797.33,562.471 1801.25,495.741 1805.16,434.731 1809.07,383.091 1812.98,343.899 1816.89,319.486 1820.8,311.317 1824.71,319.909 1828.63,344.815 1832.54,384.648 1836.45,437.152 1840.36,499.317 1844.27,567.535 1848.18,637.787 1852.09,705.866 1856.01,767.613 1859.92,819.17 1863.83,857.224 1867.74,879.231 1871.65,883.6 1875.56,869.82 1879.47,838.517 1883.39,791.429 1887.3,731.311 1891.21,661.75 1895.12,586.937 1899.03,511.39 1902.94,439.663 1906.85,376.059 1910.77,324.377 1914.68,287.687 1918.59,268.167 1922.5,266.993 1926.41,284.283 1930.32,319.095 1934.23,369.483 1938.15,432.59 1942.06,504.795 1945.97,581.896 1949.88,659.332 1953.79,732.435 1957.7,796.7 1961.61,848.065 1965.53,883.173 1969.44,899.61 1973.35,896.09 1977.26,872.564 1981.17,830.252 1985.08,771.581 1988.99,700.034 1992.91,619.921 1996.82,536.093 2000.73,453.625 2004.64,377.486 2008.55,312.239 2012.46,261.763 2016.37,229.047 2020.29,216.028 2024.2,223.508 2028.11,251.11 2032.02,297.316 2035.93,359.534 2039.84,434.24 2043.75,517.137 2047.67,603.389 2051.58,687.863 2055.49,765.431 2059.4,831.258 2063.31,881.126 2067.22,911.706 2071.13,920.81 2075.05,907.565 2078.96,872.51 2082.87,817.577 2086.78,745.994 2090.69,662.059 2094.6,570.871 2098.51,477.969 2102.43,388.989 2106.34,309.277 2110.25,243.601 2114.16,195.839 2118.07,168.816 2121.98,164.12 2125.89,182.088 2129.81,221.739 2133.72,280.9 2137.63,356.233 2141.54,443.49 2145.45,537.62 2149.36,633.13 2153.27,724.278 2157.18,805.495 2161.1,871.639 2165.01,918.41 2168.92,942.586 2172.83,942.335 2176.74,917.315 2180.65,868.806 2184.56,799.563 2188.48,713.759 2192.39,616.56 2196.3,513.959 2200.21,412.135 2204.12,317.343 2208.03,235.166 2211.94,170.602 2215.86,127.317 2219.77,107.995 2223.68,113.622 2227.59,144.119 2231.5,197.621 2235.41,271.392 2239.32,361.059 2243.24,461.784 2247.15,567.492 2251.06,672.203 2254.97,769.355 2258.88,853.14 2262.79,917.992 2266.7,959.769 2270.62,975.318 2274.53,963.464 2278.44,924.359 2282.35,860.407 2286.26,775.089 2290.17,673.812 2294.08,562.576 "></polyline>
<polyline clip-path="url(#clip192)" style="stroke:#ac8d18; stroke-linecap:round; stroke-linejoin:round; stroke-width:8; stroke-opacity:1; fill:none" points="338.375,517.685 342.287,517.685 346.198,517.685 350.109,517.685 354.021,517.685 357.932,517.685 361.844,517.685 365.755,517.685 369.667,517.685 373.578,517.685 377.489,517.685 381.401,517.685 385.312,517.685 389.224,517.685 393.135,517.685 397.046,517.685 400.958,517.685 404.869,517.685 408.781,517.685 412.692,517.685 416.604,517.685 420.515,517.685 424.426,517.685 428.338,517.685 432.249,517.685 436.161,517.685 440.072,517.685 443.984,517.685 447.895,517.685 451.806,517.685 455.718,517.685 459.629,517.685 463.541,517.685 467.452,517.685 471.363,517.685 475.275,517.685 479.186,517.685 483.098,517.685 487.009,517.685 490.921,517.685 494.832,517.685 498.743,517.685 502.655,517.685 506.566,517.685 510.478,517.685 514.389,517.685 518.3,517.685 522.212,517.685 526.123,517.685 530.035,517.685 533.946,517.685 537.858,653.139 541.769,666.907 545.68,671.904 549.592,673.599 553.503,672.782 557.415,669.5 561.326,663.329 565.237,653.955 569.149,641.286 573.06,625.385 576.972,606.76 580.883,585.97 584.795,564.074 588.706,541.902 592.617,520.771 596.529,501.57 600.44,485.457 604.352,473.374 608.263,465.84 612.175,463.454 616.086,466.395 619.997,474.438 623.909,487.28 627.82,504.253 631.732,524.329 635.643,546.532 639.554,569.556 643.466,592.115 647.377,612.965 651.289,630.883 655.2,644.875 659.112,654.119 663.023,658.088 666.934,656.545 670.846,649.58 674.757,637.579 678.669,621.241 682.58,601.5 686.491,579.493 690.403,556.49 694.314,533.813 698.226,512.766 702.137,494.556 706.049,480.224 709.96,470.582 713.871,466.172 717.783,467.23 721.694,473.681 725.606,485.135 729.517,500.919 733.428,520.108 737.34,541.583 741.251,564.089 745.163,586.31 749.074,606.943 752.986,624.77 756.897,638.73 760.808,647.982 764.72,651.957 768.631,650.393 772.543,643.353 776.454,631.225 780.366,614.701 784.277,594.739 788.188,572.507 792.1,549.313 796.011,526.529 799.923,505.508 803.834,487.505 807.745,473.6 811.657,464.638 815.568,461.175 819.48,463.448 823.391,471.358 827.303,484.477 831.214,502.069 835.125,523.13 839.037,546.443 842.948,570.649 846.86,594.32 850.771,616.043 854.682,634.504 858.594,648.565 862.505,657.339 866.417,660.242 870.328,657.034 874.24,647.844 878.151,633.161 882.062,613.81 885.974,590.908 889.885,565.795 893.797,539.958 897.708,514.936 901.62,492.233 905.531,473.222 909.442,459.065 913.354,450.641 917.265,448.497 921.177,452.808 925.088,463.369 928.999,479.604 932.911,500.595 936.822,525.135 940.734,551.792 944.645,578.991 948.557,605.108 952.468,628.562 956.379,647.91 960.291,661.939 964.202,669.739 968.114,670.769 972.025,664.89 975.936,652.383 979.848,633.935 983.759,610.603 987.671,583.753 991.582,554.975 995.494,525.987 999.405,498.533 1003.32,474.274 1007.23,454.689 1011.14,440.983 1015.05,434.015 1018.96,434.246 1022.87,441.712 1026.78,456.017 1030.7,476.357 1034.61,501.56 1038.52,530.156 1042.43,560.455 1046.34,590.651 1050.25,618.919 1054.16,643.529 1058.08,662.953 1061.99,675.953 1065.9,681.67 1069.81,679.676 1073.72,670.01 1077.63,653.18 1081.54,630.14 1085.46,602.229 1089.37,571.097 1093.28,538.602 1097.19,506.697 1101.1,477.308 1105.01,452.22 1108.92,432.964 1112.84,420.73 1116.75,416.289 1120.66,419.954 1124.57,431.554 1128.48,450.447 1132.39,475.551 1136.3,505.409 1140.22,538.267 1144.13,572.175 1148.04,605.099 1151.95,635.041 1155.86,660.159 1159.77,678.88 1163.68,689.998 1167.6,692.758 1171.51,686.903 1175.42,672.701 1179.33,650.934 1183.24,622.856 1187.15,590.115 1191.06,554.658 1194.98,518.607 1198.89,484.134 1202.8,453.323 1206.71,428.042 1210.62,409.838 1214.53,399.834 1218.44,398.671 1222.36,406.465 1226.27,422.802 1230.18,446.758 1234.09,476.952 1238,511.623 1241.91,548.727 1245.82,586.055 1249.74,621.361 1253.65,652.493 1257.56,677.523 1261.47,694.87 1265.38,703.396 1269.29,702.49 1273.2,692.108 1277.12,672.787 1281.03,645.614 1284.94,612.171 1288.85,574.434 1292.76,534.654 1296.67,495.219 1300.58,458.505 1304.5,426.734 1308.41,401.836 1312.32,385.333 1316.23,378.253 1320.14,381.063 1324.05,393.65 1327.96,415.318 1331.88,444.833 1335.79,480.487 1339.7,520.195 1343.61,561.611 1347.52,602.262 1351.43,639.692 1355.34,671.607 1359.26,696.013 1363.17,711.35 1367.08,716.583 1370.99,711.285 1374.9,695.668 1378.81,670.578 1382.72,637.452 1386.64,598.232 1390.55,555.248 1394.46,511.073 1398.37,468.364 1402.28,429.7 1406.19,397.423 1410.1,373.498 1414.02,359.391 1417.93,355.993 1421.84,363.558 1425.75,381.697 1429.66,409.39 1433.57,445.053 1437.48,486.615 1441.4,531.64 1445.31,577.459 1449.22,621.325 1453.13,660.573 1457.04,692.78 1460.95,715.914 1464.86,728.467 1468.78,729.557 1472.69,718.989 1476.6,697.287 1480.51,665.661 1484.42,625.946 1488.33,580.487 1492.24,531.998 1496.16,483.393 1500.07,437.603 1503.98,397.398 1507.89,365.217 1511.8,343.022 1515.71,332.183 1519.62,333.4 1523.54,346.661 1527.45,371.244 1531.36,405.758 1535.27,448.217 1539.18,496.149 1543.09,546.736 1547,596.968 1550.92,643.82 1554.83,684.427 1558.74,716.26 1562.65,737.284 1566.56,746.096 1570.47,742.02 1574.38,725.161 1578.29,696.417 1582.21,657.426 1586.12,610.473 1590.03,558.352 1593.94,504.189 1597.85,451.248 1601.76,402.73 1605.67,361.573 1609.59,330.277 1613.5,310.756 1617.41,304.225 1621.32,311.132 1625.23,331.137 1629.14,363.126 1633.05,405.277 1636.97,455.156 1640.88,509.852 1644.79,566.137 1648.7,620.651 1652.61,670.091 1656.52,711.412 1660.43,742.014 1664.35,759.91 1668.26,763.858 1672.17,753.459 1676.08,729.192 1679.99,692.4 1683.9,645.214 1687.81,590.425 1691.73,531.312 1695.64,471.435 1699.55,414.413 1703.46,363.698 1707.37,322.364 1711.28,292.926 1715.19,277.188 1719.11,276.146 1723.02,289.929 1726.93,317.799 1730.84,358.186 1734.75,408.779 1738.66,466.65 1742.57,528.412 1746.49,590.409 1750.4,648.92 1754.31,700.379 1758.22,741.59 1762.13,769.924 1766.04,783.502 1769.95,781.319 1773.87,763.328 1777.78,730.463 1781.69,684.589 1785.6,628.397 1789.51,565.238 1793.42,498.91 1797.33,433.422 1801.25,372.74 1805.16,320.541 1809.07,279.991 1812.98,253.559 1816.89,242.873 1820.8,248.634 1824.71,270.578 1828.63,307.495 1832.54,357.294 1836.45,417.115 1840.36,483.489 1844.27,552.519 1848.18,620.104 1852.09,682.164 1856.01,734.889 1859.92,774.969 1863.83,799.808 1867.74,807.702 1871.65,797.966 1875.56,770.998 1879.47,728.272 1883.39,672.261 1887.3,606.283 1891.21,534.3 1895.12,460.661 1899.03,389.828 1902.94,326.096 1906.85,273.329 1910.77,234.727 1914.68,212.642 1918.59,208.449 1922.5,222.47 1926.41,253.965 1930.32,301.174 1934.23,361.412 1938.15,431.213 1942.06,506.519 1945.97,582.895 1949.88,655.779 1953.79,720.746 1957.7,773.77 1961.61,811.477 1965.53,831.374 1969.44,832.02 1973.35,813.146 1977.26,775.697 1981.17,721.785 1985.08,654.577 1988.99,578.09 1992.91,496.946 1996.82,416.061 2000.73,340.351 2004.64,274.404 2008.55,222.22 2012.46,186.959 2016.37,170.777 2020.29,174.7 2024.2,198.583 2028.11,241.116 2032.02,299.908 2035.93,371.604 2039.84,452.076 2043.75,536.627 2047.67,620.263 2051.58,697.956 2055.49,764.954 2059.4,817.056 2063.31,850.896 2067.22,864.163 2071.13,855.79 2075.05,826.029 2078.96,776.49 2082.87,710.023 2086.78,630.593 2090.69,542.967 2094.6,452.485 2098.51,364.623 2102.43,284.752 2106.34,217.679 2110.25,167.502 2114.16,137.221 2118.07,128.727 2121.98,142.569 2125.89,178.056 2129.81,233.191 2133.72,304.884 2137.63,389.015 2141.54,480.753 2145.45,574.703 2149.36,665.314 2153.27,747.072 2157.18,814.961 2161.1,864.626 2165.01,892.838 2168.92,897.52 2172.83,878.162 2176.74,835.587 2180.65,772.296 2184.56,691.862 2188.48,599.3 2192.39,499.991 2196.3,400.272 2200.21,305.878 2204.12,222.931 2208.03,156.035 2211.94,109.654 2215.86,86.1857 2219.77,87.4535 2223.68,113.143 2227.59,162.145 2231.5,231.457 2235.41,317.407 2239.32,414.824 2243.24,518.342 2247.15,621.582 2251.06,718.704 2254.97,803.419 2258.88,870.837 2262.79,916.13 2266.7,936.785 2270.62,930.493 2274.53,898.196 2278.44,840.456 2282.35,762.04 2286.26,666.078 2290.17,559.751 2294.08,448.307 "></polyline>
<path clip-path="url(#clip190)" d="M348.806 404.149 L679.212 404.149 L679.212 93.1086 L348.806 93.1086  Z" fill="#ffffff" fill-rule="evenodd" fill-opacity="1"></path>
<polyline clip-path="url(#clip190)" style="stroke:#000000; stroke-linecap:round; stroke-linejoin:round; stroke-width:4; stroke-opacity:1; fill:none" points="348.806,404.149 679.212,404.149 679.212,93.1086 348.806,93.1086 348.806,404.149 "></polyline>
<polyline clip-path="url(#clip190)" style="stroke:#009af9; stroke-linecap:round; stroke-linejoin:round; stroke-width:8; stroke-opacity:1; fill:none" points="371.84,144.949 510.043,144.949 "></polyline>
<path clip-path="url(#clip190)" d="M551.85 149.289 Q551.85 144.59 549.906 141.928 Q547.984 139.243 544.605 139.243 Q541.225 139.243 539.281 141.928 Q537.359 144.59 537.359 149.289 Q537.359 153.988 539.281 156.673 Q541.225 159.335 544.605 159.335 Q547.984 159.335 549.906 156.673 Q551.85 153.988 551.85 149.289 M537.359 140.238 Q538.702 137.923 540.739 136.812 Q542.799 135.678 545.646 135.678 Q550.369 135.678 553.308 139.428 Q556.271 143.178 556.271 149.289 Q556.271 155.4 553.308 159.15 Q550.369 162.9 545.646 162.9 Q542.799 162.9 540.739 161.789 Q538.702 160.655 537.359 158.34 L537.359 162.229 L533.077 162.229 L533.077 126.21 L537.359 126.21 L537.359 140.238 Z" fill="#000000" fill-rule="nonzero" fill-opacity="1"></path><path clip-path="url(#clip190)" d="M562.892 151.997 L562.892 136.303 L567.151 136.303 L567.151 151.835 Q567.151 155.516 568.586 157.368 Q570.021 159.196 572.892 159.196 Q576.341 159.196 578.331 156.997 Q580.345 154.798 580.345 151.002 L580.345 136.303 L584.604 136.303 L584.604 162.229 L580.345 162.229 L580.345 158.247 Q578.794 160.608 576.734 161.766 Q574.697 162.9 571.989 162.9 Q567.521 162.9 565.206 160.122 Q562.892 157.344 562.892 151.997 M573.609 135.678 L573.609 135.678 Z" fill="#000000" fill-rule="nonzero" fill-opacity="1"></path><path clip-path="url(#clip190)" d="M609.905 137.067 L609.905 141.094 Q608.1 140.169 606.155 139.706 Q604.211 139.243 602.127 139.243 Q598.956 139.243 597.359 140.215 Q595.785 141.187 595.785 143.131 Q595.785 144.613 596.919 145.469 Q598.053 146.303 601.479 147.067 L602.938 147.391 Q607.475 148.363 609.373 150.145 Q611.294 151.905 611.294 155.076 Q611.294 158.687 608.424 160.793 Q605.577 162.9 600.577 162.9 Q598.493 162.9 596.225 162.483 Q593.979 162.09 591.479 161.28 L591.479 156.881 Q593.84 158.108 596.132 158.733 Q598.424 159.335 600.669 159.335 Q603.678 159.335 605.299 158.317 Q606.919 157.275 606.919 155.4 Q606.919 153.664 605.739 152.738 Q604.581 151.812 600.623 150.956 L599.141 150.608 Q595.183 149.775 593.424 148.062 Q591.665 146.326 591.665 143.317 Q591.665 139.659 594.257 137.669 Q596.85 135.678 601.618 135.678 Q603.979 135.678 606.063 136.025 Q608.146 136.372 609.905 137.067 Z" fill="#000000" fill-rule="nonzero" fill-opacity="1"></path><path clip-path="url(#clip190)" d="M634.558 158.293 L642.197 158.293 L642.197 131.928 L633.887 133.595 L633.887 129.335 L642.15 127.669 L646.826 127.669 L646.826 158.293 L654.465 158.293 L654.465 162.229 L634.558 162.229 L634.558 158.293 Z" fill="#000000" fill-rule="nonzero" fill-opacity="1"></path><polyline clip-path="url(#clip190)" style="stroke:#e26f46; stroke-linecap:round; stroke-linejoin:round; stroke-width:8; stroke-opacity:1; fill:none" points="371.84,196.789 510.043,196.789 "></polyline>
<path clip-path="url(#clip190)" d="M551.85 201.129 Q551.85 196.43 549.906 193.768 Q547.984 191.083 544.605 191.083 Q541.225 191.083 539.281 193.768 Q537.359 196.43 537.359 201.129 Q537.359 205.828 539.281 208.513 Q541.225 211.175 544.605 211.175 Q547.984 211.175 549.906 208.513 Q551.85 205.828 551.85 201.129 M537.359 192.078 Q538.702 189.763 540.739 188.652 Q542.799 187.518 545.646 187.518 Q550.369 187.518 553.308 191.268 Q556.271 195.018 556.271 201.129 Q556.271 207.24 553.308 210.99 Q550.369 214.74 545.646 214.74 Q542.799 214.74 540.739 213.629 Q538.702 212.495 537.359 210.18 L537.359 214.069 L533.077 214.069 L533.077 178.05 L537.359 178.05 L537.359 192.078 Z" fill="#000000" fill-rule="nonzero" fill-opacity="1"></path><path clip-path="url(#clip190)" d="M562.892 203.837 L562.892 188.143 L567.151 188.143 L567.151 203.675 Q567.151 207.356 568.586 209.208 Q570.021 211.036 572.892 211.036 Q576.341 211.036 578.331 208.837 Q580.345 206.638 580.345 202.842 L580.345 188.143 L584.604 188.143 L584.604 214.069 L580.345 214.069 L580.345 210.087 Q578.794 212.448 576.734 213.606 Q574.697 214.74 571.989 214.74 Q567.521 214.74 565.206 211.962 Q562.892 209.184 562.892 203.837 M573.609 187.518 L573.609 187.518 Z" fill="#000000" fill-rule="nonzero" fill-opacity="1"></path><path clip-path="url(#clip190)" d="M609.905 188.907 L609.905 192.934 Q608.1 192.009 606.155 191.546 Q604.211 191.083 602.127 191.083 Q598.956 191.083 597.359 192.055 Q595.785 193.027 595.785 194.971 Q595.785 196.453 596.919 197.309 Q598.053 198.143 601.479 198.907 L602.938 199.231 Q607.475 200.203 609.373 201.985 Q611.294 203.745 611.294 206.916 Q611.294 210.527 608.424 212.633 Q605.577 214.74 600.577 214.74 Q598.493 214.74 596.225 214.323 Q593.979 213.93 591.479 213.12 L591.479 208.721 Q593.84 209.948 596.132 210.573 Q598.424 211.175 600.669 211.175 Q603.678 211.175 605.299 210.157 Q606.919 209.115 606.919 207.24 Q606.919 205.504 605.739 204.578 Q604.581 203.652 600.623 202.796 L599.141 202.448 Q595.183 201.615 593.424 199.902 Q591.665 198.166 591.665 195.157 Q591.665 191.499 594.257 189.509 Q596.85 187.518 601.618 187.518 Q603.979 187.518 606.063 187.865 Q608.146 188.212 609.905 188.907 Z" fill="#000000" fill-rule="nonzero" fill-opacity="1"></path><path clip-path="url(#clip190)" d="M637.775 210.133 L654.095 210.133 L654.095 214.069 L632.15 214.069 L632.15 210.133 Q634.812 207.379 639.396 202.749 Q644.002 198.096 645.183 196.754 Q647.428 194.231 648.308 192.495 Q649.211 190.735 649.211 189.046 Q649.211 186.291 647.266 184.555 Q645.345 182.819 642.243 182.819 Q640.044 182.819 637.59 183.583 Q635.16 184.347 632.382 185.897 L632.382 181.175 Q635.206 180.041 637.66 179.462 Q640.113 178.884 642.15 178.884 Q647.521 178.884 650.715 181.569 Q653.91 184.254 653.91 188.745 Q653.91 190.874 653.099 192.796 Q652.312 194.694 650.206 197.286 Q649.627 197.958 646.525 201.175 Q643.424 204.37 637.775 210.133 Z" fill="#000000" fill-rule="nonzero" fill-opacity="1"></path><polyline clip-path="url(#clip190)" style="stroke:#3da44d; stroke-linecap:round; stroke-linejoin:round; stroke-width:8; stroke-opacity:1; fill:none" points="371.84,248.629 510.043,248.629 "></polyline>
<path clip-path="url(#clip190)" d="M551.85 252.969 Q551.85 248.27 549.906 245.608 Q547.984 242.923 544.605 242.923 Q541.225 242.923 539.281 245.608 Q537.359 248.27 537.359 252.969 Q537.359 257.668 539.281 260.353 Q541.225 263.015 544.605 263.015 Q547.984 263.015 549.906 260.353 Q551.85 257.668 551.85 252.969 M537.359 243.918 Q538.702 241.603 540.739 240.492 Q542.799 239.358 545.646 239.358 Q550.369 239.358 553.308 243.108 Q556.271 246.858 556.271 252.969 Q556.271 259.08 553.308 262.83 Q550.369 266.58 545.646 266.58 Q542.799 266.58 540.739 265.469 Q538.702 264.335 537.359 262.02 L537.359 265.909 L533.077 265.909 L533.077 229.89 L537.359 229.89 L537.359 243.918 Z" fill="#000000" fill-rule="nonzero" fill-opacity="1"></path><path clip-path="url(#clip190)" d="M562.892 255.677 L562.892 239.983 L567.151 239.983 L567.151 255.515 Q567.151 259.196 568.586 261.048 Q570.021 262.876 572.892 262.876 Q576.341 262.876 578.331 260.677 Q580.345 258.478 580.345 254.682 L580.345 239.983 L584.604 239.983 L584.604 265.909 L580.345 265.909 L580.345 261.927 Q578.794 264.288 576.734 265.446 Q574.697 266.58 571.989 266.58 Q567.521 266.58 565.206 263.802 Q562.892 261.024 562.892 255.677 M573.609 239.358 L573.609 239.358 Z" fill="#000000" fill-rule="nonzero" fill-opacity="1"></path><path clip-path="url(#clip190)" d="M609.905 240.747 L609.905 244.774 Q608.1 243.849 606.155 243.386 Q604.211 242.923 602.127 242.923 Q598.956 242.923 597.359 243.895 Q595.785 244.867 595.785 246.811 Q595.785 248.293 596.919 249.149 Q598.053 249.983 601.479 250.747 L602.938 251.071 Q607.475 252.043 609.373 253.825 Q611.294 255.585 611.294 258.756 Q611.294 262.367 608.424 264.473 Q605.577 266.58 600.577 266.58 Q598.493 266.58 596.225 266.163 Q593.979 265.77 591.479 264.96 L591.479 260.561 Q593.84 261.788 596.132 262.413 Q598.424 263.015 600.669 263.015 Q603.678 263.015 605.299 261.997 Q606.919 260.955 606.919 259.08 Q606.919 257.344 605.739 256.418 Q604.581 255.492 600.623 254.636 L599.141 254.288 Q595.183 253.455 593.424 251.742 Q591.665 250.006 591.665 246.997 Q591.665 243.339 594.257 241.349 Q596.85 239.358 601.618 239.358 Q603.979 239.358 606.063 239.705 Q608.146 240.052 609.905 240.747 Z" fill="#000000" fill-rule="nonzero" fill-opacity="1"></path><path clip-path="url(#clip190)" d="M647.914 247.274 Q651.271 247.992 653.146 250.261 Q655.044 252.529 655.044 255.862 Q655.044 260.978 651.525 263.779 Q648.007 266.58 641.525 266.58 Q639.35 266.58 637.035 266.14 Q634.743 265.723 632.289 264.867 L632.289 260.353 Q634.234 261.487 636.549 262.066 Q638.863 262.645 641.387 262.645 Q645.785 262.645 648.076 260.909 Q650.391 259.173 650.391 255.862 Q650.391 252.807 648.238 251.094 Q646.109 249.358 642.289 249.358 L638.262 249.358 L638.262 245.515 L642.474 245.515 Q645.924 245.515 647.752 244.149 Q649.581 242.761 649.581 240.168 Q649.581 237.506 647.683 236.094 Q645.808 234.659 642.289 234.659 Q640.368 234.659 638.169 235.075 Q635.97 235.492 633.331 236.372 L633.331 232.205 Q635.993 231.464 638.308 231.094 Q640.646 230.724 642.706 230.724 Q648.03 230.724 651.132 233.154 Q654.234 235.562 654.234 239.682 Q654.234 242.552 652.59 244.543 Q650.947 246.511 647.914 247.274 Z" fill="#000000" fill-rule="nonzero" fill-opacity="1"></path><polyline clip-path="url(#clip190)" style="stroke:#c271d2; stroke-linecap:round; stroke-linejoin:round; stroke-width:8; stroke-opacity:1; fill:none" points="371.84,300.469 510.043,300.469 "></polyline>
<path clip-path="url(#clip190)" d="M551.85 304.809 Q551.85 300.11 549.906 297.448 Q547.984 294.763 544.605 294.763 Q541.225 294.763 539.281 297.448 Q537.359 300.11 537.359 304.809 Q537.359 309.508 539.281 312.193 Q541.225 314.855 544.605 314.855 Q547.984 314.855 549.906 312.193 Q551.85 309.508 551.85 304.809 M537.359 295.758 Q538.702 293.443 540.739 292.332 Q542.799 291.198 545.646 291.198 Q550.369 291.198 553.308 294.948 Q556.271 298.698 556.271 304.809 Q556.271 310.92 553.308 314.67 Q550.369 318.42 545.646 318.42 Q542.799 318.42 540.739 317.309 Q538.702 316.175 537.359 313.86 L537.359 317.749 L533.077 317.749 L533.077 281.73 L537.359 281.73 L537.359 295.758 Z" fill="#000000" fill-rule="nonzero" fill-opacity="1"></path><path clip-path="url(#clip190)" d="M562.892 307.517 L562.892 291.823 L567.151 291.823 L567.151 307.355 Q567.151 311.036 568.586 312.888 Q570.021 314.716 572.892 314.716 Q576.341 314.716 578.331 312.517 Q580.345 310.318 580.345 306.522 L580.345 291.823 L584.604 291.823 L584.604 317.749 L580.345 317.749 L580.345 313.767 Q578.794 316.128 576.734 317.286 Q574.697 318.42 571.989 318.42 Q567.521 318.42 565.206 315.642 Q562.892 312.864 562.892 307.517 M573.609 291.198 L573.609 291.198 Z" fill="#000000" fill-rule="nonzero" fill-opacity="1"></path><path clip-path="url(#clip190)" d="M609.905 292.587 L609.905 296.614 Q608.1 295.689 606.155 295.226 Q604.211 294.763 602.127 294.763 Q598.956 294.763 597.359 295.735 Q595.785 296.707 595.785 298.651 Q595.785 300.133 596.919 300.989 Q598.053 301.823 601.479 302.587 L602.938 302.911 Q607.475 303.883 609.373 305.665 Q611.294 307.425 611.294 310.596 Q611.294 314.207 608.424 316.313 Q605.577 318.42 600.577 318.42 Q598.493 318.42 596.225 318.003 Q593.979 317.61 591.479 316.8 L591.479 312.401 Q593.84 313.628 596.132 314.253 Q598.424 314.855 600.669 314.855 Q603.678 314.855 605.299 313.837 Q606.919 312.795 606.919 310.92 Q606.919 309.184 605.739 308.258 Q604.581 307.332 600.623 306.476 L599.141 306.128 Q595.183 305.295 593.424 303.582 Q591.665 301.846 591.665 298.837 Q591.665 295.179 594.257 293.189 Q596.85 291.198 601.618 291.198 Q603.979 291.198 606.063 291.545 Q608.146 291.892 609.905 292.587 Z" fill="#000000" fill-rule="nonzero" fill-opacity="1"></path><path clip-path="url(#clip190)" d="M646.595 287.263 L634.789 305.712 L646.595 305.712 L646.595 287.263 M645.368 283.189 L651.248 283.189 L651.248 305.712 L656.178 305.712 L656.178 309.601 L651.248 309.601 L651.248 317.749 L646.595 317.749 L646.595 309.601 L630.993 309.601 L630.993 305.087 L645.368 283.189 Z" fill="#000000" fill-rule="nonzero" fill-opacity="1"></path><polyline clip-path="url(#clip190)" style="stroke:#ac8d18; stroke-linecap:round; stroke-linejoin:round; stroke-width:8; stroke-opacity:1; fill:none" points="371.84,352.309 510.043,352.309 "></polyline>
<path clip-path="url(#clip190)" d="M551.85 356.649 Q551.85 351.95 549.906 349.288 Q547.984 346.603 544.605 346.603 Q541.225 346.603 539.281 349.288 Q537.359 351.95 537.359 356.649 Q537.359 361.348 539.281 364.033 Q541.225 366.695 544.605 366.695 Q547.984 366.695 549.906 364.033 Q551.85 361.348 551.85 356.649 M537.359 347.598 Q538.702 345.283 540.739 344.172 Q542.799 343.038 545.646 343.038 Q550.369 343.038 553.308 346.788 Q556.271 350.538 556.271 356.649 Q556.271 362.76 553.308 366.51 Q550.369 370.26 545.646 370.26 Q542.799 370.26 540.739 369.149 Q538.702 368.015 537.359 365.7 L537.359 369.589 L533.077 369.589 L533.077 333.57 L537.359 333.57 L537.359 347.598 Z" fill="#000000" fill-rule="nonzero" fill-opacity="1"></path><path clip-path="url(#clip190)" d="M562.892 359.357 L562.892 343.663 L567.151 343.663 L567.151 359.195 Q567.151 362.876 568.586 364.728 Q570.021 366.556 572.892 366.556 Q576.341 366.556 578.331 364.357 Q580.345 362.158 580.345 358.362 L580.345 343.663 L584.604 343.663 L584.604 369.589 L580.345 369.589 L580.345 365.607 Q578.794 367.968 576.734 369.126 Q574.697 370.26 571.989 370.26 Q567.521 370.26 565.206 367.482 Q562.892 364.704 562.892 359.357 M573.609 343.038 L573.609 343.038 Z" fill="#000000" fill-rule="nonzero" fill-opacity="1"></path><path clip-path="url(#clip190)" d="M609.905 344.427 L609.905 348.454 Q608.1 347.529 606.155 347.066 Q604.211 346.603 602.127 346.603 Q598.956 346.603 597.359 347.575 Q595.785 348.547 595.785 350.491 Q595.785 351.973 596.919 352.829 Q598.053 353.663 601.479 354.427 L602.938 354.751 Q607.475 355.723 609.373 357.505 Q611.294 359.265 611.294 362.436 Q611.294 366.047 608.424 368.153 Q605.577 370.26 600.577 370.26 Q598.493 370.26 596.225 369.843 Q593.979 369.45 591.479 368.64 L591.479 364.241 Q593.84 365.468 596.132 366.093 Q598.424 366.695 600.669 366.695 Q603.678 366.695 605.299 365.677 Q606.919 364.635 606.919 362.76 Q606.919 361.024 605.739 360.098 Q604.581 359.172 600.623 358.316 L599.141 357.968 Q595.183 357.135 593.424 355.422 Q591.665 353.686 591.665 350.677 Q591.665 347.019 594.257 345.029 Q596.85 343.038 601.618 343.038 Q603.979 343.038 606.063 343.385 Q608.146 343.732 609.905 344.427 Z" fill="#000000" fill-rule="nonzero" fill-opacity="1"></path><path clip-path="url(#clip190)" d="M633.794 335.029 L652.15 335.029 L652.15 338.964 L638.076 338.964 L638.076 347.436 Q639.095 347.089 640.113 346.927 Q641.132 346.742 642.15 346.742 Q647.937 346.742 651.317 349.913 Q654.697 353.084 654.697 358.501 Q654.697 364.079 651.224 367.181 Q647.752 370.26 641.433 370.26 Q639.257 370.26 636.988 369.89 Q634.743 369.519 632.336 368.778 L632.336 364.079 Q634.419 365.214 636.641 365.769 Q638.863 366.325 641.34 366.325 Q645.345 366.325 647.683 364.218 Q650.021 362.112 650.021 358.501 Q650.021 354.89 647.683 352.783 Q645.345 350.677 641.34 350.677 Q639.465 350.677 637.59 351.093 Q635.738 351.51 633.794 352.39 L633.794 335.029 Z" fill="#000000" fill-rule="nonzero" fill-opacity="1"></path></svg>