<svg xmlns="http://www.w3.org/2000/svg" xmlns:xlink="http://www.w3.org/1999/xlink" width="600" height="400" viewBox="0 0 2400 1600">
<defs>
  <clipPath id="clip990">
    <rect x="0" y="0" width="2400" height="1600"></rect>
  </clipPath>
</defs>
<path clip-path="url(#clip990)" d="M0 1600 L2400 1600 L2400 0 L0 0  Z" fill="#ffffff" fill-rule="evenodd" fill-opacity="1"></path>
<defs>
  <clipPath id="clip991">
    <rect x="480" y="0" width="1681" height="1600"></rect>
  </clipPath>
</defs>
<path clip-path="url(#clip990)" d="M219.519 1423.18 L2352.76 1423.18 L2352.76 47.2441 L219.519 47.2441  Z" fill="#ffffff" fill-rule="evenodd" fill-opacity="1"></path>
<defs>
  <clipPath id="clip992">
    <rect x="219" y="47" width="2134" height="1377"></rect>
  </clipPath>
</defs>
<polyline clip-path="url(#clip992)" style="stroke:#000000; stroke-linecap:round; stroke-linejoin:round; stroke-width:2; stroke-opacity:0.1; fill:none" points="279.894,1423.18 279.894,47.2441 "></polyline>
<polyline clip-path="url(#clip992)" style="stroke:#000000; stroke-linecap:round; stroke-linejoin:round; stroke-width:2; stroke-opacity:0.1; fill:none" points="783.016,1423.18 783.016,47.2441 "></polyline>
<polyline clip-path="url(#clip992)" style="stroke:#000000; stroke-linecap:round; stroke-linejoin:round; stroke-width:2; stroke-opacity:0.1; fill:none" points="1286.14,1423.18 1286.14,47.2441 "></polyline>
<polyline clip-path="url(#clip992)" style="stroke:#000000; stroke-linecap:round; stroke-linejoin:round; stroke-width:2; stroke-opacity:0.1; fill:none" points="1789.26,1423.18 1789.26,47.2441 "></polyline>
<polyline clip-path="url(#clip992)" style="stroke:#000000; stroke-linecap:round; stroke-linejoin:round; stroke-width:2; stroke-opacity:0.1; fill:none" points="2292.38,1423.18 2292.38,47.2441 "></polyline>
<polyline clip-path="url(#clip992)" style="stroke:#000000; stroke-linecap:round; stroke-linejoin:round; stroke-width:2; stroke-opacity:0.1; fill:none" points="219.519,1168.52 2352.76,1168.52 "></polyline>
<polyline clip-path="url(#clip992)" style="stroke:#000000; stroke-linecap:round; stroke-linejoin:round; stroke-width:2; stroke-opacity:0.1; fill:none" points="219.519,828.141 2352.76,828.141 "></polyline>
<polyline clip-path="url(#clip992)" style="stroke:#000000; stroke-linecap:round; stroke-linejoin:round; stroke-width:2; stroke-opacity:0.1; fill:none" points="219.519,487.765 2352.76,487.765 "></polyline>
<polyline clip-path="url(#clip992)" style="stroke:#000000; stroke-linecap:round; stroke-linejoin:round; stroke-width:2; stroke-opacity:0.1; fill:none" points="219.519,147.388 2352.76,147.388 "></polyline>
<polyline clip-path="url(#clip990)" style="stroke:#000000; stroke-linecap:round; stroke-linejoin:round; stroke-width:4; stroke-opacity:1; fill:none" points="219.519,1423.18 2352.76,1423.18 "></polyline>
<polyline clip-path="url(#clip990)" style="stroke:#000000; stroke-linecap:round; stroke-linejoin:round; stroke-width:4; stroke-opacity:1; fill:none" points="279.894,1423.18 279.894,1404.28 "></polyline>
<polyline clip-path="url(#clip990)" style="stroke:#000000; stroke-linecap:round; stroke-linejoin:round; stroke-width:4; stroke-opacity:1; fill:none" points="783.016,1423.18 783.016,1404.28 "></polyline>
<polyline clip-path="url(#clip990)" style="stroke:#000000; stroke-linecap:round; stroke-linejoin:round; stroke-width:4; stroke-opacity:1; fill:none" points="1286.14,1423.18 1286.14,1404.28 "></polyline>
<polyline clip-path="url(#clip990)" style="stroke:#000000; stroke-linecap:round; stroke-linejoin:round; stroke-width:4; stroke-opacity:1; fill:none" points="1789.26,1423.18 1789.26,1404.28 "></polyline>
<polyline clip-path="url(#clip990)" style="stroke:#000000; stroke-linecap:round; stroke-linejoin:round; stroke-width:4; stroke-opacity:1; fill:none" points="2292.38,1423.18 2292.38,1404.28 "></polyline>
<path clip-path="url(#clip990)" d="M257.278 1454.1 Q253.667 1454.1 251.838 1457.66 Q250.033 1461.2 250.033 1468.33 Q250.033 1475.44 251.838 1479.01 Q253.667 1482.55 257.278 1482.55 Q260.912 1482.55 262.718 1479.01 Q264.547 1475.44 264.547 1468.33 Q264.547 1461.2 262.718 1457.66 Q260.912 1454.1 257.278 1454.1 M257.278 1450.39 Q263.088 1450.39 266.144 1455 Q269.222 1459.58 269.222 1468.33 Q269.222 1477.06 266.144 1481.67 Q263.088 1486.25 257.278 1486.25 Q251.468 1486.25 248.389 1481.67 Q245.334 1477.06 245.334 1468.33 Q245.334 1459.58 248.389 1455 Q251.468 1450.39 257.278 1450.39 Z" fill="#000000" fill-rule="nonzero" fill-opacity="1"></path><path clip-path="url(#clip990)" d="M277.44 1479.7 L282.324 1479.7 L282.324 1485.58 L277.44 1485.58 L277.44 1479.7 Z" fill="#000000" fill-rule="nonzero" fill-opacity="1"></path><path clip-path="url(#clip990)" d="M302.509 1454.1 Q298.898 1454.1 297.07 1457.66 Q295.264 1461.2 295.264 1468.33 Q295.264 1475.44 297.07 1479.01 Q298.898 1482.55 302.509 1482.55 Q306.144 1482.55 307.949 1479.01 Q309.778 1475.44 309.778 1468.33 Q309.778 1461.2 307.949 1457.66 Q306.144 1454.1 302.509 1454.1 M302.509 1450.39 Q308.319 1450.39 311.375 1455 Q314.454 1459.58 314.454 1468.33 Q314.454 1477.06 311.375 1481.67 Q308.319 1486.25 302.509 1486.25 Q296.699 1486.25 293.62 1481.67 Q290.565 1477.06 290.565 1468.33 Q290.565 1459.58 293.62 1455 Q296.699 1450.39 302.509 1450.39 Z" fill="#000000" fill-rule="nonzero" fill-opacity="1"></path><path clip-path="url(#clip990)" d="M754.752 1481.64 L771.071 1481.64 L771.071 1485.58 L749.127 1485.58 L749.127 1481.64 Q751.789 1478.89 756.372 1474.26 Q760.979 1469.61 762.159 1468.27 Q764.405 1465.74 765.284 1464.01 Q766.187 1462.25 766.187 1460.56 Q766.187 1457.8 764.243 1456.07 Q762.321 1454.33 759.219 1454.33 Q757.02 1454.33 754.567 1455.09 Q752.136 1455.86 749.358 1457.41 L749.358 1452.69 Q752.182 1451.55 754.636 1450.97 Q757.09 1450.39 759.127 1450.39 Q764.497 1450.39 767.692 1453.08 Q770.886 1455.77 770.886 1460.26 Q770.886 1462.39 770.076 1464.31 Q769.289 1466.2 767.182 1468.8 Q766.604 1469.47 763.502 1472.69 Q760.4 1475.88 754.752 1481.64 Z" fill="#000000" fill-rule="nonzero" fill-opacity="1"></path><path clip-path="url(#clip990)" d="M780.886 1479.7 L785.77 1479.7 L785.77 1485.58 L780.886 1485.58 L780.886 1479.7 Z" fill="#000000" fill-rule="nonzero" fill-opacity="1"></path><path clip-path="url(#clip990)" d="M796.002 1451.02 L814.358 1451.02 L814.358 1454.96 L800.284 1454.96 L800.284 1463.43 Q801.303 1463.08 802.321 1462.92 Q803.34 1462.73 804.358 1462.73 Q810.145 1462.73 813.525 1465.9 Q816.904 1469.08 816.904 1474.49 Q816.904 1480.07 813.432 1483.17 Q809.96 1486.25 803.64 1486.25 Q801.465 1486.25 799.196 1485.88 Q796.951 1485.51 794.543 1484.77 L794.543 1480.07 Q796.627 1481.2 798.849 1481.76 Q801.071 1482.32 803.548 1482.32 Q807.552 1482.32 809.89 1480.21 Q812.228 1478.1 812.228 1474.49 Q812.228 1470.88 809.89 1468.77 Q807.552 1466.67 803.548 1466.67 Q801.673 1466.67 799.798 1467.08 Q797.946 1467.5 796.002 1468.38 L796.002 1451.02 Z" fill="#000000" fill-rule="nonzero" fill-opacity="1"></path><path clip-path="url(#clip990)" d="M1253.3 1451.02 L1271.66 1451.02 L1271.66 1454.96 L1257.58 1454.96 L1257.58 1463.43 Q1258.6 1463.08 1259.62 1462.92 Q1260.64 1462.73 1261.66 1462.73 Q1267.45 1462.73 1270.83 1465.9 Q1274.2 1469.08 1274.2 1474.49 Q1274.2 1480.07 1270.73 1483.17 Q1267.26 1486.25 1260.94 1486.25 Q1258.76 1486.25 1256.5 1485.88 Q1254.25 1485.51 1251.84 1484.77 L1251.84 1480.07 Q1253.93 1481.2 1256.15 1481.76 Q1258.37 1482.32 1260.85 1482.32 Q1264.85 1482.32 1267.19 1480.21 Q1269.53 1478.1 1269.53 1474.49 Q1269.53 1470.88 1267.19 1468.77 Q1264.85 1466.67 1260.85 1466.67 Q1258.97 1466.67 1257.1 1467.08 Q1255.25 1467.5 1253.3 1468.38 L1253.3 1451.02 Z" fill="#000000" fill-rule="nonzero" fill-opacity="1"></path><path clip-path="url(#clip990)" d="M1283.42 1479.7 L1288.3 1479.7 L1288.3 1485.58 L1283.42 1485.58 L1283.42 1479.7 Z" fill="#000000" fill-rule="nonzero" fill-opacity="1"></path><path clip-path="url(#clip990)" d="M1308.49 1454.1 Q1304.88 1454.1 1303.05 1457.66 Q1301.24 1461.2 1301.24 1468.33 Q1301.24 1475.44 1303.05 1479.01 Q1304.88 1482.55 1308.49 1482.55 Q1312.12 1482.55 1313.93 1479.01 Q1315.76 1475.44 1315.76 1468.33 Q1315.76 1461.2 1313.93 1457.66 Q1312.12 1454.1 1308.49 1454.1 M1308.49 1450.39 Q1314.3 1450.39 1317.35 1455 Q1320.43 1459.58 1320.43 1468.33 Q1320.43 1477.06 1317.35 1481.67 Q1314.3 1486.25 1308.49 1486.25 Q1302.68 1486.25 1299.6 1481.67 Q1296.54 1477.06 1296.54 1468.33 Q1296.54 1459.58 1299.6 1455 Q1302.68 1450.39 1308.49 1450.39 Z" fill="#000000" fill-rule="nonzero" fill-opacity="1"></path><path clip-path="url(#clip990)" d="M1755.58 1451.02 L1777.8 1451.02 L1777.8 1453.01 L1765.25 1485.58 L1760.37 1485.58 L1772.18 1454.96 L1755.58 1454.96 L1755.58 1451.02 Z" fill="#000000" fill-rule="nonzero" fill-opacity="1"></path><path clip-path="url(#clip990)" d="M1786.92 1479.7 L1791.81 1479.7 L1791.81 1485.58 L1786.92 1485.58 L1786.92 1479.7 Z" fill="#000000" fill-rule="nonzero" fill-opacity="1"></path><path clip-path="url(#clip990)" d="M1802.04 1451.02 L1820.39 1451.02 L1820.39 1454.96 L1806.32 1454.96 L1806.32 1463.43 Q1807.34 1463.08 1808.36 1462.92 Q1809.38 1462.73 1810.39 1462.73 Q1816.18 1462.73 1819.56 1465.9 Q1822.94 1469.08 1822.94 1474.49 Q1822.94 1480.07 1819.47 1483.17 Q1816 1486.25 1809.68 1486.25 Q1807.5 1486.25 1805.23 1485.88 Q1802.99 1485.51 1800.58 1484.77 L1800.58 1480.07 Q1802.66 1481.2 1804.88 1481.76 Q1807.11 1482.32 1809.58 1482.32 Q1813.59 1482.32 1815.93 1480.21 Q1818.26 1478.1 1818.26 1474.49 Q1818.26 1470.88 1815.93 1468.77 Q1813.59 1466.67 1809.58 1466.67 Q1807.71 1466.67 1805.83 1467.08 Q1803.98 1467.5 1802.04 1468.38 L1802.04 1451.02 Z" fill="#000000" fill-rule="nonzero" fill-opacity="1"></path><path clip-path="url(#clip990)" d="M2244.45 1481.64 L2252.09 1481.64 L2252.09 1455.28 L2243.78 1456.95 L2243.78 1452.69 L2252.05 1451.02 L2256.72 1451.02 L2256.72 1481.64 L2264.36 1481.64 L2264.36 1485.58 L2244.45 1485.58 L2244.45 1481.64 Z" fill="#000000" fill-rule="nonzero" fill-opacity="1"></path><path clip-path="url(#clip990)" d="M2283.8 1454.1 Q2280.19 1454.1 2278.37 1457.66 Q2276.56 1461.2 2276.56 1468.33 Q2276.56 1475.44 2278.37 1479.01 Q2280.19 1482.55 2283.8 1482.55 Q2287.44 1482.55 2289.24 1479.01 Q2291.07 1475.44 2291.07 1468.33 Q2291.07 1461.2 2289.24 1457.66 Q2287.44 1454.1 2283.8 1454.1 M2283.8 1450.39 Q2289.62 1450.39 2292.67 1455 Q2295.75 1459.58 2295.75 1468.33 Q2295.75 1477.06 2292.67 1481.67 Q2289.62 1486.25 2283.8 1486.25 Q2277.99 1486.25 2274.92 1481.67 Q2271.86 1477.06 2271.86 1468.33 Q2271.86 1459.58 2274.92 1455 Q2277.99 1450.39 2283.8 1450.39 Z" fill="#000000" fill-rule="nonzero" fill-opacity="1"></path><path clip-path="url(#clip990)" d="M2303.97 1479.7 L2308.85 1479.7 L2308.85 1485.58 L2303.97 1485.58 L2303.97 1479.7 Z" fill="#000000" fill-rule="nonzero" fill-opacity="1"></path><path clip-path="url(#clip990)" d="M2329.04 1454.1 Q2325.43 1454.1 2323.6 1457.66 Q2321.79 1461.2 2321.79 1468.33 Q2321.79 1475.44 2323.6 1479.01 Q2325.43 1482.55 2329.04 1482.55 Q2332.67 1482.55 2334.48 1479.01 Q2336.3 1475.44 2336.3 1468.33 Q2336.3 1461.2 2334.48 1457.66 Q2332.67 1454.1 2329.04 1454.1 M2329.04 1450.39 Q2334.85 1450.39 2337.9 1455 Q2340.98 1459.58 2340.98 1468.33 Q2340.98 1477.06 2337.9 1481.67 Q2334.85 1486.25 2329.04 1486.25 Q2323.23 1486.25 2320.15 1481.67 Q2317.09 1477.06 2317.09 1468.33 Q2317.09 1459.58 2320.15 1455 Q2323.23 1450.39 2329.04 1450.39 Z" fill="#000000" fill-rule="nonzero" fill-opacity="1"></path><path clip-path="url(#clip990)" d="M1157.74 1522.27 L1157.74 1532.4 L1169.8 1532.4 L1169.8 1536.95 L1157.74 1536.95 L1157.74 1556.3 Q1157.74 1560.66 1158.92 1561.9 Q1160.13 1563.14 1163.79 1563.14 L1169.8 1563.14 L1169.8 1568.04 L1163.79 1568.04 Q1157.01 1568.04 1154.43 1565.53 Q1151.85 1562.98 1151.85 1556.3 L1151.85 1536.95 L1147.56 1536.95 L1147.56 1532.4 L1151.85 1532.4 L1151.85 1522.27 L1157.74 1522.27 Z" fill="#000000" fill-rule="nonzero" fill-opacity="1"></path><path clip-path="url(#clip990)" d="M1177.51 1532.4 L1183.36 1532.4 L1183.36 1568.04 L1177.51 1568.04 L1177.51 1532.4 M1177.51 1518.52 L1183.36 1518.52 L1183.36 1525.93 L1177.51 1525.93 L1177.51 1518.52 Z" fill="#000000" fill-rule="nonzero" fill-opacity="1"></path><path clip-path="url(#clip990)" d="M1223.37 1539.24 Q1225.57 1535.29 1228.62 1533.41 Q1231.68 1531.54 1235.82 1531.54 Q1241.39 1531.54 1244.41 1535.45 Q1247.43 1539.33 1247.43 1546.53 L1247.43 1568.04 L1241.55 1568.04 L1241.55 1546.72 Q1241.55 1541.59 1239.73 1539.11 Q1237.92 1536.63 1234.19 1536.63 Q1229.64 1536.63 1227 1539.65 Q1224.36 1542.68 1224.36 1547.9 L1224.36 1568.04 L1218.47 1568.04 L1218.47 1546.72 Q1218.47 1541.56 1216.66 1539.11 Q1214.84 1536.63 1211.05 1536.63 Q1206.57 1536.63 1203.92 1539.68 Q1201.28 1542.71 1201.28 1547.9 L1201.28 1568.04 L1195.39 1568.04 L1195.39 1532.4 L1201.28 1532.4 L1201.28 1537.93 Q1203.29 1534.66 1206.09 1533.1 Q1208.89 1531.54 1212.74 1531.54 Q1216.62 1531.54 1219.33 1533.51 Q1222.07 1535.48 1223.37 1539.24 Z" fill="#000000" fill-rule="nonzero" fill-opacity="1"></path><path clip-path="url(#clip990)" d="M1289.61 1548.76 L1289.61 1551.62 L1262.68 1551.62 Q1263.06 1557.67 1266.31 1560.85 Q1269.59 1564 1275.41 1564 Q1278.79 1564 1281.94 1563.17 Q1285.12 1562.35 1288.24 1560.69 L1288.24 1566.23 Q1285.09 1567.57 1281.78 1568.27 Q1278.47 1568.97 1275.06 1568.97 Q1266.53 1568.97 1261.53 1564 Q1256.57 1559.04 1256.57 1550.57 Q1256.57 1541.82 1261.28 1536.69 Q1266.02 1531.54 1274.04 1531.54 Q1281.24 1531.54 1285.41 1536.18 Q1289.61 1540.8 1289.61 1548.76 M1283.75 1547.04 Q1283.69 1542.23 1281.04 1539.37 Q1278.43 1536.5 1274.11 1536.5 Q1269.2 1536.5 1266.24 1539.27 Q1263.32 1542.04 1262.87 1547.07 L1283.75 1547.04 Z" fill="#000000" fill-rule="nonzero" fill-opacity="1"></path><path clip-path="url(#clip990)" d="M1319.94 1532.4 L1325.8 1532.4 L1325.8 1568.04 L1319.94 1568.04 L1319.94 1532.4 M1319.94 1518.52 L1325.8 1518.52 L1325.8 1525.93 L1319.94 1525.93 L1319.94 1518.52 Z" fill="#000000" fill-rule="nonzero" fill-opacity="1"></path><path clip-path="url(#clip990)" d="M1367.68 1546.53 L1367.68 1568.04 L1361.83 1568.04 L1361.83 1546.72 Q1361.83 1541.66 1359.85 1539.14 Q1357.88 1536.63 1353.93 1536.63 Q1349.19 1536.63 1346.45 1539.65 Q1343.72 1542.68 1343.72 1547.9 L1343.72 1568.04 L1337.83 1568.04 L1337.83 1532.4 L1343.72 1532.4 L1343.72 1537.93 Q1345.82 1534.72 1348.65 1533.13 Q1351.51 1531.54 1355.24 1531.54 Q1361.38 1531.54 1364.53 1535.36 Q1367.68 1539.14 1367.68 1546.53 Z" fill="#000000" fill-rule="nonzero" fill-opacity="1"></path><path clip-path="url(#clip990)" d="M1422.81 1533.45 L1422.81 1538.98 Q1420.33 1537.71 1417.65 1537.07 Q1414.98 1536.44 1412.11 1536.44 Q1407.75 1536.44 1405.56 1537.77 Q1403.39 1539.11 1403.39 1541.79 Q1403.39 1543.82 1404.95 1545 Q1406.51 1546.15 1411.22 1547.2 L1413.23 1547.64 Q1419.47 1548.98 1422.08 1551.43 Q1424.72 1553.85 1424.72 1558.21 Q1424.72 1563.17 1420.77 1566.07 Q1416.86 1568.97 1409.98 1568.97 Q1407.12 1568.97 1404 1568.39 Q1400.91 1567.85 1397.47 1566.74 L1397.47 1560.69 Q1400.72 1562.38 1403.87 1563.24 Q1407.02 1564.07 1410.11 1564.07 Q1414.25 1564.07 1416.48 1562.66 Q1418.7 1561.23 1418.7 1558.65 Q1418.7 1556.27 1417.08 1554.99 Q1415.49 1553.72 1410.05 1552.54 L1408.01 1552.07 Q1402.57 1550.92 1400.15 1548.56 Q1397.73 1546.18 1397.73 1542.04 Q1397.73 1537.01 1401.29 1534.27 Q1404.86 1531.54 1411.41 1531.54 Q1414.66 1531.54 1417.53 1532.01 Q1420.39 1532.49 1422.81 1533.45 Z" fill="#000000" fill-rule="nonzero" fill-opacity="1"></path><polyline clip-path="url(#clip990)" style="stroke:#000000; stroke-linecap:round; stroke-linejoin:round; stroke-width:4; stroke-opacity:1; fill:none" points="219.519,1423.18 219.519,47.2441 "></polyline>
<polyline clip-path="url(#clip990)" style="stroke:#000000; stroke-linecap:round; stroke-linejoin:round; stroke-width:4; stroke-opacity:1; fill:none" points="219.519,1168.52 238.417,1168.52 "></polyline>
<polyline clip-path="url(#clip990)" style="stroke:#000000; stroke-linecap:round; stroke-linejoin:round; stroke-width:4; stroke-opacity:1; fill:none" points="219.519,828.141 238.417,828.141 "></polyline>
<polyline clip-path="url(#clip990)" style="stroke:#000000; stroke-linecap:round; stroke-linejoin:round; stroke-width:4; stroke-opacity:1; fill:none" points="219.519,487.765 238.417,487.765 "></polyline>
<polyline clip-path="url(#clip990)" style="stroke:#000000; stroke-linecap:round; stroke-linejoin:round; stroke-width:4; stroke-opacity:1; fill:none" points="219.519,147.388 238.417,147.388 "></polyline>
<path clip-path="url(#clip990)" d="M119.885 1181.86 L136.204 1181.86 L136.204 1185.8 L114.26 1185.8 L114.26 1181.86 Q116.922 1179.11 121.505 1174.48 Q126.112 1169.83 127.292 1168.48 Q129.538 1165.96 130.417 1164.22 Q131.32 1162.46 131.32 1160.77 Q131.32 1158.02 129.376 1156.28 Q127.455 1154.55 124.353 1154.55 Q122.154 1154.55 119.7 1155.31 Q117.269 1156.08 114.492 1157.63 L114.492 1152.9 Q117.316 1151.77 119.769 1151.19 Q122.223 1150.61 124.26 1150.61 Q129.63 1150.61 132.825 1153.3 Q136.019 1155.98 136.019 1160.47 Q136.019 1162.6 135.209 1164.52 Q134.422 1166.42 132.316 1169.02 Q131.737 1169.69 128.635 1172.9 Q125.533 1176.1 119.885 1181.86 Z" fill="#000000" fill-rule="nonzero" fill-opacity="1"></path><path clip-path="url(#clip990)" d="M146.019 1179.92 L150.903 1179.92 L150.903 1185.8 L146.019 1185.8 L146.019 1179.92 Z" fill="#000000" fill-rule="nonzero" fill-opacity="1"></path><path clip-path="url(#clip990)" d="M173.936 1155.31 L162.13 1173.76 L173.936 1173.76 L173.936 1155.31 M172.709 1151.24 L178.589 1151.24 L178.589 1173.76 L183.519 1173.76 L183.519 1177.65 L178.589 1177.65 L178.589 1185.8 L173.936 1185.8 L173.936 1177.65 L158.334 1177.65 L158.334 1173.14 L172.709 1151.24 Z" fill="#000000" fill-rule="nonzero" fill-opacity="1"></path><path clip-path="url(#clip990)" d="M120.209 841.486 L136.529 841.486 L136.529 845.421 L114.584 845.421 L114.584 841.486 Q117.246 838.731 121.83 834.102 Q126.436 829.449 127.617 828.107 Q129.862 825.583 130.742 823.847 Q131.644 822.088 131.644 820.398 Q131.644 817.644 129.7 815.908 Q127.779 814.171 124.677 814.171 Q122.478 814.171 120.024 814.935 Q117.593 815.699 114.816 817.25 L114.816 812.528 Q117.64 811.394 120.093 810.815 Q122.547 810.236 124.584 810.236 Q129.955 810.236 133.149 812.921 Q136.343 815.607 136.343 820.097 Q136.343 822.227 135.533 824.148 Q134.746 826.046 132.64 828.639 Q132.061 829.31 128.959 832.528 Q125.857 835.722 120.209 841.486 Z" fill="#000000" fill-rule="nonzero" fill-opacity="1"></path><path clip-path="url(#clip990)" d="M146.343 839.542 L151.228 839.542 L151.228 845.421 L146.343 845.421 L146.343 839.542 Z" fill="#000000" fill-rule="nonzero" fill-opacity="1"></path><path clip-path="url(#clip990)" d="M171.991 826.278 Q168.843 826.278 166.991 828.431 Q165.163 830.583 165.163 834.333 Q165.163 838.06 166.991 840.236 Q168.843 842.389 171.991 842.389 Q175.139 842.389 176.968 840.236 Q178.82 838.06 178.82 834.333 Q178.82 830.583 176.968 828.431 Q175.139 826.278 171.991 826.278 M181.274 811.625 L181.274 815.884 Q179.514 815.051 177.709 814.611 Q175.926 814.171 174.167 814.171 Q169.538 814.171 167.084 817.296 Q164.653 820.421 164.306 826.741 Q165.672 824.727 167.732 823.662 Q169.792 822.574 172.269 822.574 Q177.477 822.574 180.487 825.745 Q183.519 828.894 183.519 834.333 Q183.519 839.657 180.371 842.875 Q177.223 846.093 171.991 846.093 Q165.996 846.093 162.825 841.509 Q159.653 836.903 159.653 828.176 Q159.653 819.982 163.542 815.12 Q167.431 810.236 173.982 810.236 Q175.741 810.236 177.524 810.583 Q179.329 810.931 181.274 811.625 Z" fill="#000000" fill-rule="nonzero" fill-opacity="1"></path><path clip-path="url(#clip990)" d="M120.464 501.11 L136.783 501.11 L136.783 505.045 L114.839 505.045 L114.839 501.11 Q117.501 498.355 122.084 493.725 Q126.691 489.073 127.871 487.73 Q130.117 485.207 130.996 483.471 Q131.899 481.712 131.899 480.022 Q131.899 477.267 129.955 475.531 Q128.033 473.795 124.931 473.795 Q122.732 473.795 120.279 474.559 Q117.848 475.323 115.07 476.874 L115.07 472.151 Q117.894 471.017 120.348 470.438 Q122.802 469.86 124.839 469.86 Q130.209 469.86 133.404 472.545 Q136.598 475.23 136.598 479.721 Q136.598 481.85 135.788 483.772 Q135.001 485.67 132.894 488.262 Q132.316 488.934 129.214 492.151 Q126.112 495.346 120.464 501.11 Z" fill="#000000" fill-rule="nonzero" fill-opacity="1"></path><path clip-path="url(#clip990)" d="M146.598 499.165 L151.482 499.165 L151.482 505.045 L146.598 505.045 L146.598 499.165 Z" fill="#000000" fill-rule="nonzero" fill-opacity="1"></path><path clip-path="url(#clip990)" d="M171.667 488.633 Q168.334 488.633 166.413 490.415 Q164.515 492.198 164.515 495.323 Q164.515 498.448 166.413 500.23 Q168.334 502.012 171.667 502.012 Q175.001 502.012 176.922 500.23 Q178.843 498.424 178.843 495.323 Q178.843 492.198 176.922 490.415 Q175.024 488.633 171.667 488.633 M166.991 486.642 Q163.982 485.901 162.292 483.841 Q160.626 481.781 160.626 478.818 Q160.626 474.675 163.565 472.267 Q166.528 469.86 171.667 469.86 Q176.829 469.86 179.769 472.267 Q182.709 474.675 182.709 478.818 Q182.709 481.781 181.019 483.841 Q179.352 485.901 176.366 486.642 Q179.746 487.429 181.621 489.721 Q183.519 492.012 183.519 495.323 Q183.519 500.346 180.44 503.031 Q177.385 505.716 171.667 505.716 Q165.95 505.716 162.871 503.031 Q159.815 500.346 159.815 495.323 Q159.815 492.012 161.714 489.721 Q163.612 487.429 166.991 486.642 M165.278 479.258 Q165.278 481.943 166.945 483.448 Q168.635 484.952 171.667 484.952 Q174.677 484.952 176.366 483.448 Q178.079 481.943 178.079 479.258 Q178.079 476.573 176.366 475.068 Q174.677 473.563 171.667 473.563 Q168.635 473.563 166.945 475.068 Q165.278 476.573 165.278 479.258 Z" fill="#000000" fill-rule="nonzero" fill-opacity="1"></path><path clip-path="url(#clip990)" d="M130.51 146.034 Q133.867 146.752 135.742 149.02 Q137.64 151.289 137.64 154.622 Q137.64 159.738 134.121 162.539 Q130.603 165.34 124.121 165.34 Q121.945 165.34 119.63 164.9 Q117.339 164.483 114.885 163.627 L114.885 159.113 Q116.83 160.247 119.144 160.826 Q121.459 161.404 123.982 161.404 Q128.38 161.404 130.672 159.668 Q132.987 157.932 132.987 154.622 Q132.987 151.567 130.834 149.854 Q128.705 148.117 124.885 148.117 L120.857 148.117 L120.857 144.275 L125.07 144.275 Q128.519 144.275 130.348 142.909 Q132.177 141.52 132.177 138.928 Q132.177 136.266 130.279 134.854 Q128.404 133.418 124.885 133.418 Q122.964 133.418 120.765 133.835 Q118.566 134.252 115.927 135.131 L115.927 130.965 Q118.589 130.224 120.904 129.854 Q123.242 129.483 125.302 129.483 Q130.626 129.483 133.728 131.914 Q136.829 134.321 136.829 138.442 Q136.829 141.312 135.186 143.303 Q133.542 145.27 130.51 146.034 Z" fill="#000000" fill-rule="nonzero" fill-opacity="1"></path><path clip-path="url(#clip990)" d="M146.505 158.789 L151.39 158.789 L151.39 164.668 L146.505 164.668 L146.505 158.789 Z" fill="#000000" fill-rule="nonzero" fill-opacity="1"></path><path clip-path="url(#clip990)" d="M171.575 133.187 Q167.964 133.187 166.135 136.752 Q164.329 140.293 164.329 147.423 Q164.329 154.529 166.135 158.094 Q167.964 161.636 171.575 161.636 Q175.209 161.636 177.014 158.094 Q178.843 154.529 178.843 147.423 Q178.843 140.293 177.014 136.752 Q175.209 133.187 171.575 133.187 M171.575 129.483 Q177.385 129.483 180.44 134.09 Q183.519 138.673 183.519 147.423 Q183.519 156.15 180.44 160.756 Q177.385 165.34 171.575 165.34 Q165.765 165.34 162.686 160.756 Q159.63 156.15 159.63 147.423 Q159.63 138.673 162.686 134.09 Q165.765 129.483 171.575 129.483 Z" fill="#000000" fill-rule="nonzero" fill-opacity="1"></path><path clip-path="url(#clip990)" d="M46.0847 1033.97 Q46.0847 1041.07 47.7079 1043.81 Q49.3312 1046.54 53.2461 1046.54 Q56.3653 1046.54 58.2114 1044.51 Q60.0256 1042.44 60.0256 1038.9 Q60.0256 1034.03 56.5881 1031.11 Q53.1188 1028.15 47.3897 1028.15 L46.0847 1028.15 L46.0847 1033.97 M43.6657 1022.29 L64.0042 1022.29 L64.0042 1028.15 L58.5933 1028.15 Q61.8398 1030.15 63.3994 1033.14 Q64.9272 1036.13 64.9272 1040.46 Q64.9272 1045.94 61.8716 1049.18 Q58.7843 1052.4 53.6281 1052.4 Q47.6125 1052.4 44.5569 1048.39 Q41.5014 1044.35 41.5014 1036.36 L41.5014 1028.15 L40.9285 1028.15 Q36.8862 1028.15 34.6901 1030.82 Q32.4621 1033.46 32.4621 1038.27 Q32.4621 1041.32 33.1941 1044.22 Q33.9262 1047.12 35.3903 1049.79 L29.9795 1049.79 Q28.7381 1046.57 28.1334 1043.55 Q27.4968 1040.53 27.4968 1037.66 Q27.4968 1029.93 31.5072 1026.11 Q35.5176 1022.29 43.6657 1022.29 Z" fill="#000000" fill-rule="nonzero" fill-opacity="1"></path><path clip-path="url(#clip990)" d="M29.7248 984.573 L35.1993 984.573 Q33.8307 987.055 33.1623 989.57 Q32.4621 992.052 32.4621 994.599 Q32.4621 1000.3 36.0905 1003.45 Q39.6872 1006.6 46.212 1006.6 Q52.7369 1006.6 56.3653 1003.45 Q59.9619 1000.3 59.9619 994.599 Q59.9619 992.052 59.2935 989.57 Q58.5933 987.055 57.2247 984.573 L62.6355 984.573 Q63.7814 987.023 64.3543 989.665 Q64.9272 992.275 64.9272 995.235 Q64.9272 1003.29 59.8664 1008.03 Q54.8057 1012.77 46.212 1012.77 Q37.491 1012.77 32.4939 1008 Q27.4968 1003.19 27.4968 994.853 Q27.4968 992.148 28.0697 989.57 Q28.6108 986.992 29.7248 984.573 Z" fill="#000000" fill-rule="nonzero" fill-opacity="1"></path><path clip-path="url(#clip990)" d="M18.2347 968.595 L28.3562 968.595 L28.3562 956.532 L32.9077 956.532 L32.9077 968.595 L52.2594 968.595 Q56.6199 968.595 57.8613 967.417 Q59.1026 966.208 59.1026 962.547 L59.1026 956.532 L64.0042 956.532 L64.0042 962.547 Q64.0042 969.327 61.4897 971.905 Q58.9434 974.483 52.2594 974.483 L32.9077 974.483 L32.9077 978.78 L28.3562 978.78 L28.3562 974.483 L18.2347 974.483 L18.2347 968.595 Z" fill="#000000" fill-rule="nonzero" fill-opacity="1"></path><path clip-path="url(#clip990)" d="M28.3562 948.829 L28.3562 942.973 L64.0042 942.973 L64.0042 948.829 L28.3562 948.829 M14.479 948.829 L14.479 942.973 L21.895 942.973 L21.895 948.829 L14.479 948.829 Z" fill="#000000" fill-rule="nonzero" fill-opacity="1"></path><path clip-path="url(#clip990)" d="M28.3562 934.92 L28.3562 928.714 L58.275 917.574 L28.3562 906.434 L28.3562 900.227 L64.0042 913.595 L64.0042 921.552 L28.3562 934.92 Z" fill="#000000" fill-rule="nonzero" fill-opacity="1"></path><path clip-path="url(#clip990)" d="M44.7161 861.651 L47.5806 861.651 L47.5806 888.578 Q53.6281 888.196 56.8109 884.949 Q59.9619 881.671 59.9619 875.846 Q59.9619 872.473 59.1344 869.321 Q58.3069 866.139 56.6518 863.019 L62.1899 863.019 Q63.5267 866.17 64.227 869.481 Q64.9272 872.791 64.9272 876.196 Q64.9272 884.727 59.9619 889.724 Q54.9967 894.689 46.5303 894.689 Q37.7774 894.689 32.6531 889.978 Q27.4968 885.236 27.4968 877.215 Q27.4968 870.022 32.1438 865.852 Q36.7589 861.651 44.7161 861.651 M42.9973 867.507 Q38.1912 867.571 35.3266 870.213 Q32.4621 872.823 32.4621 877.151 Q32.4621 882.053 35.2312 885.013 Q38.0002 887.941 43.0292 888.387 L42.9973 867.507 Z" fill="#000000" fill-rule="nonzero" fill-opacity="1"></path><path clip-path="url(#clip990)" d="M58.657 825.653 L77.5631 825.653 L77.5631 831.541 L28.3562 831.541 L28.3562 825.653 L33.7671 825.653 Q30.5842 823.807 29.0564 821.006 Q27.4968 818.173 27.4968 814.258 Q27.4968 807.765 32.6531 803.723 Q37.8093 799.649 46.212 799.649 Q54.6147 799.649 59.771 803.723 Q64.9272 807.765 64.9272 814.258 Q64.9272 818.173 63.3994 821.006 Q61.8398 823.807 58.657 825.653 M46.212 805.728 Q39.7508 805.728 36.0905 808.402 Q32.3984 811.043 32.3984 815.69 Q32.3984 820.337 36.0905 823.011 Q39.7508 825.653 46.212 825.653 Q52.6732 825.653 56.3653 823.011 Q60.0256 820.337 60.0256 815.69 Q60.0256 811.043 56.3653 808.402 Q52.6732 805.728 46.212 805.728 Z" fill="#000000" fill-rule="nonzero" fill-opacity="1"></path><path clip-path="url(#clip990)" d="M32.4621 776.128 Q32.4621 780.838 36.1542 783.575 Q39.8145 786.313 46.212 786.313 Q52.6095 786.313 56.3017 783.607 Q59.9619 780.87 59.9619 776.128 Q59.9619 771.449 56.2698 768.711 Q52.5777 765.974 46.212 765.974 Q39.8781 765.974 36.186 768.711 Q32.4621 771.449 32.4621 776.128 M27.4968 776.128 Q27.4968 768.489 32.4621 764.128 Q37.4273 759.768 46.212 759.768 Q54.9649 759.768 59.9619 764.128 Q64.9272 768.489 64.9272 776.128 Q64.9272 783.798 59.9619 788.159 Q54.9649 792.487 46.212 792.487 Q37.4273 792.487 32.4621 788.159 Q27.4968 783.798 27.4968 776.128 Z" fill="#000000" fill-rule="nonzero" fill-opacity="1"></path><path clip-path="url(#clip990)" d="M28.3562 753.466 L28.3562 747.609 L56.1743 740.289 L28.3562 733 L28.3562 726.093 L56.1743 718.773 L28.3562 711.484 L28.3562 705.627 L64.0042 714.953 L64.0042 721.86 L34.7856 729.531 L64.0042 737.233 L64.0042 744.14 L28.3562 753.466 Z" fill="#000000" fill-rule="nonzero" fill-opacity="1"></path><path clip-path="url(#clip990)" d="M44.7161 666.255 L47.5806 666.255 L47.5806 693.182 Q53.6281 692.8 56.8109 689.554 Q59.9619 686.276 59.9619 680.451 Q59.9619 677.077 59.1344 673.926 Q58.3069 670.743 56.6518 667.624 L62.1899 667.624 Q63.5267 670.775 64.227 674.085 Q64.9272 677.395 64.9272 680.801 Q64.9272 689.331 59.9619 694.328 Q54.9967 699.293 46.5303 699.293 Q37.7774 699.293 32.6531 694.583 Q27.4968 689.84 27.4968 681.82 Q27.4968 674.626 32.1438 670.457 Q36.7589 666.255 44.7161 666.255 M42.9973 672.112 Q38.1912 672.176 35.3266 674.817 Q32.4621 677.427 32.4621 681.756 Q32.4621 686.658 35.2312 689.618 Q38.0002 692.546 43.0292 692.991 L42.9973 672.112 Z" fill="#000000" fill-rule="nonzero" fill-opacity="1"></path><path clip-path="url(#clip990)" d="M33.8307 635.987 Q33.2578 636.973 33.0032 638.151 Q32.7167 639.297 32.7167 640.697 Q32.7167 645.662 35.9632 648.336 Q39.1779 650.978 45.2253 650.978 L64.0042 650.978 L64.0042 656.866 L28.3562 656.866 L28.3562 650.978 L33.8944 650.978 Q30.6479 649.132 29.0883 646.172 Q27.4968 643.212 27.4968 638.978 Q27.4968 638.374 27.5923 637.642 Q27.656 636.91 27.8151 636.018 L33.8307 635.987 Z" fill="#000000" fill-rule="nonzero" fill-opacity="1"></path><path clip-path="url(#clip990)" d="M28.3562 609.123 L28.3562 603.267 L64.0042 603.267 L64.0042 609.123 L28.3562 609.123 M14.479 609.123 L14.479 603.267 L21.895 603.267 L21.895 609.123 L14.479 609.123 Z" fill="#000000" fill-rule="nonzero" fill-opacity="1"></path><path clip-path="url(#clip990)" d="M42.4881 561.38 L64.0042 561.38 L64.0042 567.237 L42.679 567.237 Q37.6183 567.237 35.1038 569.21 Q32.5894 571.184 32.5894 575.13 Q32.5894 579.873 35.6131 582.61 Q38.6368 585.347 43.8567 585.347 L64.0042 585.347 L64.0042 591.236 L28.3562 591.236 L28.3562 585.347 L33.8944 585.347 Q30.6797 583.247 29.0883 580.414 Q27.4968 577.549 27.4968 573.825 Q27.4968 567.682 31.3163 564.531 Q35.1038 561.38 42.4881 561.38 Z" fill="#000000" fill-rule="nonzero" fill-opacity="1"></path><path clip-path="url(#clip990)" d="M58.657 523.314 L77.5631 523.314 L77.5631 529.202 L28.3562 529.202 L28.3562 523.314 L33.7671 523.314 Q30.5842 521.467 29.0564 518.667 Q27.4968 515.834 27.4968 511.919 Q27.4968 505.426 32.6531 501.384 Q37.8093 497.31 46.212 497.31 Q54.6147 497.31 59.771 501.384 Q64.9272 505.426 64.9272 511.919 Q64.9272 515.834 63.3994 518.667 Q61.8398 521.467 58.657 523.314 M46.212 503.389 Q39.7508 503.389 36.0905 506.062 Q32.3984 508.704 32.3984 513.351 Q32.3984 517.998 36.0905 520.672 Q39.7508 523.314 46.212 523.314 Q52.6732 523.314 56.3653 520.672 Q60.0256 517.998 60.0256 513.351 Q60.0256 508.704 56.3653 506.062 Q52.6732 503.389 46.212 503.389 Z" fill="#000000" fill-rule="nonzero" fill-opacity="1"></path><path clip-path="url(#clip990)" d="M55.9197 486.774 L55.9197 480.059 L64.0042 480.059 L64.0042 486.774 L55.9197 486.774 Z" fill="#000000" fill-rule="nonzero" fill-opacity="1"></path><path clip-path="url(#clip990)" d="M49.9359 467.486 L28.3562 467.486 L28.3562 461.63 L49.7131 461.63 Q54.7739 461.63 57.3202 459.656 Q59.8346 457.683 59.8346 453.736 Q59.8346 448.994 56.8109 446.257 Q53.7872 443.488 48.5673 443.488 L28.3562 443.488 L28.3562 437.631 L64.0042 437.631 L64.0042 443.488 L58.5296 443.488 Q61.7762 445.62 63.3676 448.453 Q64.9272 451.254 64.9272 454.978 Q64.9272 461.121 61.1078 464.303 Q57.2883 467.486 49.9359 467.486 M27.4968 452.75 L27.4968 452.75 Z" fill="#000000" fill-rule="nonzero" fill-opacity="1"></path><path clip-path="url(#clip990)" d="M55.9197 424.741 L55.9197 418.025 L64.0042 418.025 L64.0042 424.741 L55.9197 424.741 Z" fill="#000000" fill-rule="nonzero" fill-opacity="1"></path><polyline clip-path="url(#clip992)" style="stroke:#009af9; stroke-linecap:round; stroke-linejoin:round; stroke-width:8; stroke-opacity:1; fill:none" points="279.894,826.901 283.919,826.901 287.944,826.901 291.969,826.901 295.994,826.901 300.019,826.901 304.044,826.901 308.069,826.901 312.093,826.901 316.118,826.901 320.143,826.901 324.168,826.901 328.193,826.901 332.218,826.901 336.243,826.901 340.268,826.901 344.293,826.901 348.318,826.901 352.343,826.901 356.368,826.901 360.393,826.901 364.418,826.901 368.443,826.901 372.468,826.901 376.493,826.901 380.518,826.901 384.543,826.901 388.568,826.901 392.593,826.901 396.618,826.901 400.643,826.901 404.668,826.901 408.693,826.901 412.718,826.901 416.743,826.901 420.768,826.901 424.793,826.901 428.818,826.901 432.843,826.901 436.868,826.901 440.893,826.901 444.918,826.901 448.943,826.901 452.968,826.901 456.993,826.901 461.018,826.901 465.043,826.901 469.068,826.901 473.092,826.901 477.117,826.901 481.142,826.901 485.167,86.1857 489.192,440.736 493.217,681.643 497.242,902.21 501.267,1091.58 505.292,1239.05 509.317,1337.7 513.342,1384.24 517.367,1379.41 521.392,1327.83 525.417,1238.23 529.442,1121.99 533.467,991.228 537.492,857.665 541.517,731.808 545.542,622.672 549.567,537.074 553.592,479.781 557.617,452.054 561.642,452.807 565.667,481.956 569.692,532.231 573.717,598.507 577.742,675.107 581.767,754.822 585.792,832.386 589.817,901.609 593.842,959.248 597.867,1001.68 601.892,1028.06 605.917,1037.66 609.942,1031.21 613.967,1012.04 617.992,982.1 622.017,944.3 626.042,902.481 630.067,859.638 634.091,818.999 638.116,783.413 642.141,754.866 646.166,734.607 650.191,723.078 654.216,720.267 658.241,725.112 662.266,736.9 666.291,753.273 670.316,773.338 674.341,795.132 678.366,816.082 682.391,836.883 686.416,852.447 690.441,868.029 694.466,876.433 698.491,881.312 702.516,882.038 706.541,878.461 710.566,872.226 714.591,863.498 718.616,855.059 722.641,842.369 726.666,833.372 730.691,819.583 734.716,811.797 738.741,804.866 742.766,798.493 746.791,796.949 750.816,794.159 754.841,794.898 758.866,793.913 762.891,799.459 766.916,799.678 770.941,806.522 774.966,813.112 778.991,818.443 783.016,823.946 787.041,830.321 791.066,834.796 795.091,838.434 799.115,841.143 803.14,842.807 807.165,843.509 811.19,843.055 815.215,841.941 819.24,840.032 823.265,837.376 827.29,834.12 831.315,830.448 835.34,826.537 839.365,822.615 843.39,818.923 847.415,815.677 851.44,813.079 855.465,811.292 859.49,810.431 863.515,810.544 867.54,811.626 871.565,813.595 875.59,816.324 879.615,819.623 883.64,823.274 887.665,827.025 891.69,830.624 895.715,833.825 899.74,836.411 903.765,838.208 907.79,839.111 911.815,839.059 915.84,838.071 919.865,836.223 923.89,833.677 927.915,830.598 931.94,827.199 935.965,823.755 939.99,820.518 944.015,817.662 948.04,815.386 952.065,813.91 956.09,813.302 960.114,813.506 964.139,814.535 968.164,816.405 972.189,818.868 976.214,821.618 980.239,824.602 984.264,827.7 988.289,830.385 992.314,832.619 996.339,834.478 1000.36,835.577 1004.39,835.726 1008.41,835.25 1012.44,834.157 1016.46,832.379 1020.49,830.107 1024.51,827.601 1028.54,825.005 1032.56,822.464 1036.59,820.21 1040.61,818.455 1044.64,817.247 1048.66,816.595 1052.69,816.63 1056.71,817.359 1060.74,818.594 1064.76,820.253 1068.79,822.271 1072.81,824.471 1076.84,826.653 1080.86,828.677 1084.89,830.425 1088.91,831.751 1092.94,832.543 1096.96,832.796 1100.99,832.554 1105.01,831.783 1109.04,830.523 1113.06,829.025 1117.09,827.323 1121.11,825.434 1125.14,823.64 1129.16,822.198 1133.19,820.951 1137.21,819.939 1141.24,819.48 1145.26,819.518 1149.29,819.889 1153.31,820.636 1157.34,821.771 1161.36,823.111 1165.39,824.531 1169.41,826.019 1173.44,827.454 1177.46,828.598 1181.49,829.463 1185.51,830.113 1189.54,830.353 1193.56,830.193 1197.59,829.749 1201.61,829.027 1205.64,828.037 1209.66,826.901 1213.69,825.731 1217.71,824.562 1221.74,823.469 1225.76,822.607 1229.79,822.018 1233.81,821.633 1237.84,821.519 1241.86,821.73 1245.89,822.202 1249.91,822.859 1253.94,823.683 1257.96,824.624 1261.99,825.572 1266.01,826.471 1270.04,827.294 1274.06,827.951 1278.09,828.359 1282.11,828.571 1286.14,828.598 1290.16,828.363 1294.19,827.918 1298.21,827.349 1302.24,826.668 1306.26,825.902 1310.29,825.147 1314.31,824.456 1318.34,823.837 1322.36,823.346 1326.39,823.071 1330.41,822.978 1334.44,823.012 1338.46,823.236 1342.49,823.623 1346.51,824.117 1350.54,824.681 1354.56,825.291 1358.59,825.896 1362.61,826.438 1366.64,826.898 1370.66,827.256 1374.69,827.465 1378.71,827.506 1382.74,827.427 1386.76,827.23 1390.79,826.897 1394.81,826.472 1398.84,826.009 1402.86,825.523 1406.89,825.04 1410.91,824.611 1414.94,824.264 1418.96,824 1422.99,823.846 1427.01,823.836 1431.04,823.939 1435.06,824.121 1439.09,824.403 1443.11,824.757 1447.14,825.143 1451.16,825.54 1455.19,825.926 1459.21,826.27 1463.24,826.546 1467.26,826.74 1471.29,826.844 1475.31,826.847 1479.34,826.751 1483.36,826.576 1487.39,826.335 1491.41,826.033 1495.44,825.7 1499.46,825.376 1503.49,825.069 1507.51,824.793 1511.54,824.575 1515.56,824.431 1519.59,824.362 1523.61,824.372 1527.64,824.465 1531.66,824.627 1535.69,824.84 1539.71,825.093 1543.74,825.375 1547.76,825.651 1551.79,825.901 1555.81,826.124 1559.84,826.299 1563.86,826.408 1567.89,826.45 1571.91,826.429 1575.94,826.34 1579.96,826.191 1583.99,826.002 1588.01,825.786 1592.04,825.547 1596.06,825.311 1600.09,825.105 1604.11,824.929 1608.14,824.794 1612.16,824.713 1616.19,824.692 1620.21,824.726 1624.24,824.813 1628.26,824.949 1632.29,825.121 1636.31,825.311 1640.34,825.511 1644.36,825.71 1648.39,825.885 1652.41,826.023 1656.44,826.127 1660.46,826.186 1664.49,826.19 1668.51,826.147 1672.54,826.061 1676.56,825.936 1680.59,825.781 1684.61,825.615 1688.63,825.446 1692.66,825.281 1696.68,825.137 1700.71,825.029 1704.73,824.954 1708.76,824.916 1712.78,824.926 1716.81,824.977 1720.83,825.062 1724.86,825.177 1728.88,825.319 1732.91,825.465 1736.93,825.604 1740.96,825.738 1744.98,825.857 1749.01,825.941 1753.03,825.993 1757.06,826.012 1761.08,825.992 1765.11,825.934 1769.13,825.853 1773.16,825.749 1777.18,825.626 1781.21,825.498 1785.23,825.382 1789.26,825.273 1793.28,825.181 1797.31,825.12 1801.33,825.091 1805.36,825.088 1809.38,825.114 1813.41,825.171 1817.43,825.251 1821.46,825.346 1825.48,825.452 1829.51,825.56 1833.53,825.658 1837.56,825.742 1841.58,825.813 1845.61,825.858 1849.63,825.871 1853.66,825.863 1857.68,825.832 1861.71,825.775 1865.73,825.701 1869.76,825.618 1873.78,825.529 1877.81,825.437 1881.83,825.358 1885.86,825.294 1889.88,825.242 1893.91,825.212 1897.93,825.212 1901.96,825.228 1905.98,825.261 1910.01,825.316 1914.03,825.385 1918.06,825.457 1922.08,825.532 1926.11,825.609 1930.13,825.674 1934.16,825.719 1938.18,825.757 1942.21,825.776 1946.23,825.767 1950.26,825.746 1954.28,825.71 1958.31,825.659 1962.33,825.599 1966.36,825.537 1970.38,825.475 1974.41,825.414 1978.43,825.365 1982.46,825.333 1986.48,825.311 1990.51,825.302 1994.53,825.312 1998.56,825.338 2002.58,825.373 2006.61,825.417 2010.63,825.47 2014.66,825.525 2018.68,825.572 2022.71,825.618 2026.73,825.658 2030.76,825.681 2034.78,825.693 2038.81,825.695 2042.83,825.682 2046.86,825.657 2050.88,825.623 2054.91,825.584 2058.93,825.54 2062.96,825.495 2066.98,825.455 2071.01,825.422 2075.03,825.394 2079.06,825.376 2083.08,825.374 2087.11,825.378 2091.13,825.392 2095.16,825.416 2099.18,825.447 2103.21,825.481 2107.23,825.517 2111.26,825.553 2115.28,825.585 2119.31,825.609 2123.33,825.628 2127.36,825.641 2131.38,825.641 2135.41,825.632 2139.43,825.617 2143.46,825.597 2147.48,825.569 2151.51,825.54 2155.53,825.511 2159.56,825.484 2163.58,825.457 2167.61,825.439 2171.63,825.429 2175.66,825.423 2179.68,825.423 2183.71,825.432 2187.73,825.449 2191.76,825.467 2195.78,825.489 2199.81,825.515 2203.83,825.54 2207.86,825.559 2211.88,825.578 2215.91,825.594 2219.93,825.602 2223.96,825.603 2227.98,825.6 2232.01,825.591 2236.03,825.577 2240.06,825.559 2244.08,825.541 2248.11,825.522 2252.13,825.499 2256.16,825.482 2260.18,825.472 2264.21,825.462 2268.23,825.455 2272.26,825.456 2276.28,825.462 2280.31,825.469 2284.33,825.481 2288.36,825.498 2292.38,825.513 "></polyline>
<path clip-path="url(#clip990)" d="M1721.47 196.789 L2281.65 196.789 L2281.65 93.1086 L1721.47 93.1086  Z" fill="#ffffff" fill-rule="evenodd" fill-opacity="1"></path>
<polyline clip-path="url(#clip990)" style="stroke:#000000; stroke-linecap:round; stroke-linejoin:round; stroke-width:4; stroke-opacity:1; fill:none" points="1721.47,196.789 2281.65,196.789 2281.65,93.1086 1721.47,93.1086 1721.47,196.789 "></polyline>
<polyline clip-path="url(#clip990)" style="stroke:#009af9; stroke-linecap:round; stroke-linejoin:round; stroke-width:8; stroke-opacity:1; fill:none" points="1745.18,144.949 1887.39,144.949 "></polyline>
<path clip-path="url(#clip990)" d="M1915.77 131.511 L1915.77 158.386 L1921.42 158.386 Q1928.57 158.386 1931.88 155.145 Q1935.22 151.905 1935.22 144.914 Q1935.22 137.969 1931.88 134.752 Q1928.57 131.511 1921.42 131.511 L1915.77 131.511 M1911.1 127.669 L1920.7 127.669 Q1930.75 127.669 1935.45 131.858 Q1940.15 136.025 1940.15 144.914 Q1940.15 153.849 1935.42 158.039 Q1930.7 162.229 1920.7 162.229 L1911.1 162.229 L1911.1 127.669 Z" fill="#000000" fill-rule="nonzero" fill-opacity="1"></path><path clip-path="url(#clip990)" d="M1947.6 127.669 L1969.45 127.669 L1969.45 131.604 L1952.28 131.604 L1952.28 141.835 L1968.73 141.835 L1968.73 145.77 L1952.28 145.77 L1952.28 158.293 L1969.87 158.293 L1969.87 162.229 L1947.6 162.229 L1947.6 127.669 Z" fill="#000000" fill-rule="nonzero" fill-opacity="1"></path><path clip-path="url(#clip990)" d="M1987.97 130.747 Q1984.36 130.747 1982.53 134.312 Q1980.72 137.854 1980.72 144.983 Q1980.72 152.09 1982.53 155.655 Q1984.36 159.196 1987.97 159.196 Q1991.6 159.196 1993.41 155.655 Q1995.24 152.09 1995.24 144.983 Q1995.24 137.854 1993.41 134.312 Q1991.6 130.747 1987.97 130.747 M1987.97 127.044 Q1993.78 127.044 1996.84 131.65 Q1999.91 136.233 1999.91 144.983 Q1999.91 153.71 1996.84 158.317 Q1993.78 162.9 1987.97 162.9 Q1982.16 162.9 1979.08 158.317 Q1976.03 153.71 1976.03 144.983 Q1976.03 136.233 1979.08 131.65 Q1982.16 127.044 1987.97 127.044 Z" fill="#000000" fill-rule="nonzero" fill-opacity="1"></path><path clip-path="url(#clip990)" d="M2033.2 130.747 Q2029.59 130.747 2027.76 134.312 Q2025.96 137.854 2025.96 144.983 Q2025.96 152.09 2027.76 155.655 Q2029.59 159.196 2033.2 159.196 Q2036.84 159.196 2038.64 155.655 Q2040.47 152.09 2040.47 144.983 Q2040.47 137.854 2038.64 134.312 Q2036.84 130.747 2033.2 130.747 M2033.2 127.044 Q2039.01 127.044 2042.07 131.65 Q2045.15 136.233 2045.15 144.983 Q2045.15 153.71 2042.07 158.317 Q2039.01 162.9 2033.2 162.9 Q2027.39 162.9 2024.31 158.317 Q2021.26 153.71 2021.26 144.983 Q2021.26 136.233 2024.31 131.65 Q2027.39 127.044 2033.2 127.044 Z" fill="#000000" fill-rule="nonzero" fill-opacity="1"></path><path clip-path="url(#clip990)" d="M2086.44 149.289 Q2086.44 144.59 2084.5 141.928 Q2082.58 139.243 2079.2 139.243 Q2075.82 139.243 2073.87 141.928 Q2071.95 144.59 2071.95 149.289 Q2071.95 153.988 2073.87 156.673 Q2075.82 159.335 2079.2 159.335 Q2082.58 159.335 2084.5 156.673 Q2086.44 153.988 2086.44 149.289 M2071.95 140.238 Q2073.29 137.923 2075.33 136.812 Q2077.39 135.678 2080.24 135.678 Q2084.96 135.678 2087.9 139.428 Q2090.86 143.178 2090.86 149.289 Q2090.86 155.4 2087.9 159.15 Q2084.96 162.9 2080.24 162.9 Q2077.39 162.9 2075.33 161.789 Q2073.29 160.655 2071.95 158.34 L2071.95 162.229 L2067.67 162.229 L2067.67 126.21 L2071.95 126.21 L2071.95 140.238 Z" fill="#000000" fill-rule="nonzero" fill-opacity="1"></path><path clip-path="url(#clip990)" d="M2097.92 136.303 L2102.18 136.303 L2102.18 162.229 L2097.92 162.229 L2097.92 136.303 M2097.92 126.21 L2102.18 126.21 L2102.18 131.604 L2097.92 131.604 L2097.92 126.21 Z" fill="#000000" fill-rule="nonzero" fill-opacity="1"></path><path clip-path="url(#clip990)" d="M2121.14 139.289 Q2117.71 139.289 2115.72 141.974 Q2113.73 144.636 2113.73 149.289 Q2113.73 153.942 2115.7 156.627 Q2117.69 159.289 2121.14 159.289 Q2124.54 159.289 2126.53 156.604 Q2128.52 153.918 2128.52 149.289 Q2128.52 144.682 2126.53 141.997 Q2124.54 139.289 2121.14 139.289 M2121.14 135.678 Q2126.7 135.678 2129.87 139.289 Q2133.04 142.9 2133.04 149.289 Q2133.04 155.655 2129.87 159.289 Q2126.7 162.9 2121.14 162.9 Q2115.56 162.9 2112.39 159.289 Q2109.24 155.655 2109.24 149.289 Q2109.24 142.9 2112.39 139.289 Q2115.56 135.678 2121.14 135.678 Z" fill="#000000" fill-rule="nonzero" fill-opacity="1"></path><path clip-path="url(#clip990)" d="M2160.28 141.28 Q2161.88 138.409 2164.1 137.044 Q2166.33 135.678 2169.33 135.678 Q2173.39 135.678 2175.58 138.525 Q2177.78 141.349 2177.78 146.581 L2177.78 162.229 L2173.5 162.229 L2173.5 146.719 Q2173.5 142.993 2172.18 141.187 Q2170.86 139.382 2168.15 139.382 Q2164.84 139.382 2162.92 141.581 Q2161 143.78 2161 147.576 L2161 162.229 L2156.72 162.229 L2156.72 146.719 Q2156.72 142.969 2155.4 141.187 Q2154.08 139.382 2151.33 139.382 Q2148.06 139.382 2146.14 141.604 Q2144.22 143.803 2144.22 147.576 L2144.22 162.229 L2139.94 162.229 L2139.94 136.303 L2144.22 136.303 L2144.22 140.331 Q2145.68 137.946 2147.71 136.812 Q2149.75 135.678 2152.55 135.678 Q2155.38 135.678 2157.34 137.113 Q2159.33 138.548 2160.28 141.28 Z" fill="#000000" fill-rule="nonzero" fill-opacity="1"></path><path clip-path="url(#clip990)" d="M2198.06 149.196 Q2192.9 149.196 2190.91 150.377 Q2188.92 151.557 2188.92 154.405 Q2188.92 156.673 2190.4 158.016 Q2191.9 159.335 2194.47 159.335 Q2198.02 159.335 2200.14 156.835 Q2202.3 154.312 2202.3 150.145 L2202.3 149.196 L2198.06 149.196 M2206.56 147.437 L2206.56 162.229 L2202.3 162.229 L2202.3 158.293 Q2200.84 160.655 2198.66 161.789 Q2196.49 162.9 2193.34 162.9 Q2189.36 162.9 2187 160.678 Q2184.66 158.432 2184.66 154.682 Q2184.66 150.307 2187.58 148.085 Q2190.52 145.863 2196.33 145.863 L2202.3 145.863 L2202.3 145.446 Q2202.3 142.507 2200.35 140.909 Q2198.43 139.289 2194.94 139.289 Q2192.71 139.289 2190.61 139.821 Q2188.5 140.354 2186.56 141.419 L2186.56 137.483 Q2188.89 136.581 2191.09 136.141 Q2193.29 135.678 2195.38 135.678 Q2201 135.678 2203.78 138.594 Q2206.56 141.511 2206.56 147.437 Z" fill="#000000" fill-rule="nonzero" fill-opacity="1"></path><path clip-path="url(#clip990)" d="M2231.86 137.067 L2231.86 141.094 Q2230.05 140.169 2228.11 139.706 Q2226.16 139.243 2224.08 139.243 Q2220.91 139.243 2219.31 140.215 Q2217.74 141.187 2217.74 143.131 Q2217.74 144.613 2218.87 145.469 Q2220.01 146.303 2223.43 147.067 L2224.89 147.391 Q2229.43 148.363 2231.33 150.145 Q2233.25 151.905 2233.25 155.076 Q2233.25 158.687 2230.38 160.793 Q2227.53 162.9 2222.53 162.9 Q2220.45 162.9 2218.18 162.483 Q2215.93 162.09 2213.43 161.28 L2213.43 156.881 Q2215.79 158.108 2218.08 158.733 Q2220.38 159.335 2222.62 159.335 Q2225.63 159.335 2227.25 158.317 Q2228.87 157.275 2228.87 155.4 Q2228.87 153.664 2227.69 152.738 Q2226.53 151.812 2222.58 150.956 L2221.09 150.608 Q2217.14 149.775 2215.38 148.062 Q2213.62 146.326 2213.62 143.317 Q2213.62 139.659 2216.21 137.669 Q2218.8 135.678 2223.57 135.678 Q2225.93 135.678 2228.01 136.025 Q2230.1 136.372 2231.86 137.067 Z" fill="#000000" fill-rule="nonzero" fill-opacity="1"></path><path clip-path="url(#clip990)" d="M2256.56 137.067 L2256.56 141.094 Q2254.75 140.169 2252.81 139.706 Q2250.86 139.243 2248.78 139.243 Q2245.61 139.243 2244.01 140.215 Q2242.44 141.187 2242.44 143.131 Q2242.44 144.613 2243.57 145.469 Q2244.7 146.303 2248.13 147.067 L2249.59 147.391 Q2254.13 148.363 2256.02 150.145 Q2257.95 151.905 2257.95 155.076 Q2257.95 158.687 2255.08 160.793 Q2252.23 162.9 2247.23 162.9 Q2245.14 162.9 2242.88 162.483 Q2240.63 162.09 2238.13 161.28 L2238.13 156.881 Q2240.49 158.108 2242.78 158.733 Q2245.08 159.335 2247.32 159.335 Q2250.33 159.335 2251.95 158.317 Q2253.57 157.275 2253.57 155.4 Q2253.57 153.664 2252.39 152.738 Q2251.23 151.812 2247.27 150.956 L2245.79 150.608 Q2241.83 149.775 2240.08 148.062 Q2238.32 146.326 2238.32 143.317 Q2238.32 139.659 2240.91 137.669 Q2243.5 135.678 2248.27 135.678 Q2250.63 135.678 2252.71 136.025 Q2254.8 136.372 2256.56 137.067 Z" fill="#000000" fill-rule="nonzero" fill-opacity="1"></path></svg>