<svg xmlns="http://www.w3.org/2000/svg" xmlns:xlink="http://www.w3.org/1999/xlink" width="600" height="400" viewBox="0 0 2400 1600">
<defs>
  <clipPath id="clip070">
    <rect x="0" y="0" width="2400" height="1600"></rect>
  </clipPath>
</defs>
<path clip-path="url(#clip070)" d="M0 1600 L2400 1600 L2400 0 L0 0  Z" fill="#ffffff" fill-rule="evenodd" fill-opacity="1"></path>
<defs>
  <clipPath id="clip071">
    <rect x="480" y="0" width="1681" height="1600"></rect>
  </clipPath>
</defs>
<path clip-path="url(#clip070)" d="M220.19 1423.18 L2352.76 1423.18 L2352.76 47.2441 L220.19 47.2441  Z" fill="#ffffff" fill-rule="evenodd" fill-opacity="1"></path>
<defs>
  <clipPath id="clip072">
    <rect x="220" y="47" width="2134" height="1377"></rect>
  </clipPath>
</defs>
<polyline clip-path="url(#clip072)" style="stroke:#000000; stroke-linecap:round; stroke-linejoin:round; stroke-width:2; stroke-opacity:0.1; fill:none" points="280.546,1423.18 280.546,47.2441 "></polyline>
<polyline clip-path="url(#clip072)" style="stroke:#000000; stroke-linecap:round; stroke-linejoin:round; stroke-width:2; stroke-opacity:0.1; fill:none" points="783.51,1423.18 783.51,47.2441 "></polyline>
<polyline clip-path="url(#clip072)" style="stroke:#000000; stroke-linecap:round; stroke-linejoin:round; stroke-width:2; stroke-opacity:0.1; fill:none" points="1286.47,1423.18 1286.47,47.2441 "></polyline>
<polyline clip-path="url(#clip072)" style="stroke:#000000; stroke-linecap:round; stroke-linejoin:round; stroke-width:2; stroke-opacity:0.1; fill:none" points="1789.44,1423.18 1789.44,47.2441 "></polyline>
<polyline clip-path="url(#clip072)" style="stroke:#000000; stroke-linecap:round; stroke-linejoin:round; stroke-width:2; stroke-opacity:0.1; fill:none" points="2292.4,1423.18 2292.4,47.2441 "></polyline>
<polyline clip-path="url(#clip072)" style="stroke:#000000; stroke-linecap:round; stroke-linejoin:round; stroke-width:2; stroke-opacity:0.1; fill:none" points="220.19,1124.65 2352.76,1124.65 "></polyline>
<polyline clip-path="url(#clip072)" style="stroke:#000000; stroke-linecap:round; stroke-linejoin:round; stroke-width:2; stroke-opacity:0.1; fill:none" points="220.19,803.42 2352.76,803.42 "></polyline>
<polyline clip-path="url(#clip072)" style="stroke:#000000; stroke-linecap:round; stroke-linejoin:round; stroke-width:2; stroke-opacity:0.1; fill:none" points="220.19,482.195 2352.76,482.195 "></polyline>
<polyline clip-path="url(#clip072)" style="stroke:#000000; stroke-linecap:round; stroke-linejoin:round; stroke-width:2; stroke-opacity:0.1; fill:none" points="220.19,160.969 2352.76,160.969 "></polyline>
<polyline clip-path="url(#clip070)" style="stroke:#000000; stroke-linecap:round; stroke-linejoin:round; stroke-width:4; stroke-opacity:1; fill:none" points="220.19,1423.18 2352.76,1423.18 "></polyline>
<polyline clip-path="url(#clip070)" style="stroke:#000000; stroke-linecap:round; stroke-linejoin:round; stroke-width:4; stroke-opacity:1; fill:none" points="280.546,1423.18 280.546,1404.28 "></polyline>
<polyline clip-path="url(#clip070)" style="stroke:#000000; stroke-linecap:round; stroke-linejoin:round; stroke-width:4; stroke-opacity:1; fill:none" points="783.51,1423.18 783.51,1404.28 "></polyline>
<polyline clip-path="url(#clip070)" style="stroke:#000000; stroke-linecap:round; stroke-linejoin:round; stroke-width:4; stroke-opacity:1; fill:none" points="1286.47,1423.18 1286.47,1404.28 "></polyline>
<polyline clip-path="url(#clip070)" style="stroke:#000000; stroke-linecap:round; stroke-linejoin:round; stroke-width:4; stroke-opacity:1; fill:none" points="1789.44,1423.18 1789.44,1404.28 "></polyline>
<polyline clip-path="url(#clip070)" style="stroke:#000000; stroke-linecap:round; stroke-linejoin:round; stroke-width:4; stroke-opacity:1; fill:none" points="2292.4,1423.18 2292.4,1404.28 "></polyline>
<path clip-path="url(#clip070)" d="M257.93 1454.1 Q254.319 1454.1 252.491 1457.66 Q250.685 1461.2 250.685 1468.33 Q250.685 1475.44 252.491 1479.01 Q254.319 1482.55 257.93 1482.55 Q261.565 1482.55 263.37 1479.01 Q265.199 1475.44 265.199 1468.33 Q265.199 1461.2 263.37 1457.66 Q261.565 1454.1 257.93 1454.1 M257.93 1450.39 Q263.741 1450.39 266.796 1455 Q269.875 1459.58 269.875 1468.33 Q269.875 1477.06 266.796 1481.67 Q263.741 1486.25 257.93 1486.25 Q252.12 1486.25 249.042 1481.67 Q245.986 1477.06 245.986 1468.33 Q245.986 1459.58 249.042 1455 Q252.12 1450.39 257.93 1450.39 Z" fill="#000000" fill-rule="nonzero" fill-opacity="1"></path><path clip-path="url(#clip070)" d="M278.092 1479.7 L282.977 1479.7 L282.977 1485.58 L278.092 1485.58 L278.092 1479.7 Z" fill="#000000" fill-rule="nonzero" fill-opacity="1"></path><path clip-path="url(#clip070)" d="M303.162 1454.1 Q299.55 1454.1 297.722 1457.66 Q295.916 1461.2 295.916 1468.33 Q295.916 1475.44 297.722 1479.01 Q299.55 1482.55 303.162 1482.55 Q306.796 1482.55 308.601 1479.01 Q310.43 1475.44 310.43 1468.33 Q310.43 1461.2 308.601 1457.66 Q306.796 1454.1 303.162 1454.1 M303.162 1450.39 Q308.972 1450.39 312.027 1455 Q315.106 1459.58 315.106 1468.33 Q315.106 1477.06 312.027 1481.67 Q308.972 1486.25 303.162 1486.25 Q297.351 1486.25 294.273 1481.67 Q291.217 1477.06 291.217 1468.33 Q291.217 1459.58 294.273 1455 Q297.351 1450.39 303.162 1450.39 Z" fill="#000000" fill-rule="nonzero" fill-opacity="1"></path><path clip-path="url(#clip070)" d="M755.246 1481.64 L771.565 1481.64 L771.565 1485.58 L749.621 1485.58 L749.621 1481.64 Q752.283 1478.89 756.866 1474.26 Q761.473 1469.61 762.653 1468.27 Q764.899 1465.74 765.778 1464.01 Q766.681 1462.25 766.681 1460.56 Q766.681 1457.8 764.736 1456.07 Q762.815 1454.33 759.713 1454.33 Q757.514 1454.33 755.061 1455.09 Q752.63 1455.86 749.852 1457.41 L749.852 1452.69 Q752.676 1451.55 755.13 1450.97 Q757.584 1450.39 759.621 1450.39 Q764.991 1450.39 768.186 1453.08 Q771.38 1455.77 771.38 1460.26 Q771.38 1462.39 770.57 1464.31 Q769.783 1466.2 767.676 1468.8 Q767.098 1469.47 763.996 1472.69 Q760.894 1475.88 755.246 1481.64 Z" fill="#000000" fill-rule="nonzero" fill-opacity="1"></path><path clip-path="url(#clip070)" d="M781.38 1479.7 L786.264 1479.7 L786.264 1485.58 L781.38 1485.58 L781.38 1479.7 Z" fill="#000000" fill-rule="nonzero" fill-opacity="1"></path><path clip-path="url(#clip070)" d="M796.496 1451.02 L814.852 1451.02 L814.852 1454.96 L800.778 1454.96 L800.778 1463.43 Q801.796 1463.08 802.815 1462.92 Q803.834 1462.73 804.852 1462.73 Q810.639 1462.73 814.019 1465.9 Q817.398 1469.08 817.398 1474.49 Q817.398 1480.07 813.926 1483.17 Q810.454 1486.25 804.134 1486.25 Q801.959 1486.25 799.69 1485.88 Q797.445 1485.51 795.037 1484.77 L795.037 1480.07 Q797.121 1481.2 799.343 1481.76 Q801.565 1482.32 804.042 1482.32 Q808.046 1482.32 810.384 1480.21 Q812.722 1478.1 812.722 1474.49 Q812.722 1470.88 810.384 1468.77 Q808.046 1466.67 804.042 1466.67 Q802.167 1466.67 800.292 1467.08 Q798.44 1467.5 796.496 1468.38 L796.496 1451.02 Z" fill="#000000" fill-rule="nonzero" fill-opacity="1"></path><path clip-path="url(#clip070)" d="M1253.64 1451.02 L1271.99 1451.02 L1271.99 1454.96 L1257.92 1454.96 L1257.92 1463.43 Q1258.94 1463.08 1259.96 1462.92 Q1260.98 1462.73 1261.99 1462.73 Q1267.78 1462.73 1271.16 1465.9 Q1274.54 1469.08 1274.54 1474.49 Q1274.54 1480.07 1271.07 1483.17 Q1267.6 1486.25 1261.28 1486.25 Q1259.1 1486.25 1256.83 1485.88 Q1254.59 1485.51 1252.18 1484.77 L1252.18 1480.07 Q1254.26 1481.2 1256.48 1481.76 Q1258.71 1482.32 1261.18 1482.32 Q1265.19 1482.32 1267.53 1480.21 Q1269.86 1478.1 1269.86 1474.49 Q1269.86 1470.88 1267.53 1468.77 Q1265.19 1466.67 1261.18 1466.67 Q1259.31 1466.67 1257.43 1467.08 Q1255.58 1467.5 1253.64 1468.38 L1253.64 1451.02 Z" fill="#000000" fill-rule="nonzero" fill-opacity="1"></path><path clip-path="url(#clip070)" d="M1283.75 1479.7 L1288.64 1479.7 L1288.64 1485.58 L1283.75 1485.58 L1283.75 1479.7 Z" fill="#000000" fill-rule="nonzero" fill-opacity="1"></path><path clip-path="url(#clip070)" d="M1308.82 1454.1 Q1305.21 1454.1 1303.38 1457.66 Q1301.58 1461.2 1301.58 1468.33 Q1301.58 1475.44 1303.38 1479.01 Q1305.21 1482.55 1308.82 1482.55 Q1312.46 1482.55 1314.26 1479.01 Q1316.09 1475.44 1316.09 1468.33 Q1316.09 1461.2 1314.26 1457.66 Q1312.46 1454.1 1308.82 1454.1 M1308.82 1450.39 Q1314.63 1450.39 1317.69 1455 Q1320.77 1459.58 1320.77 1468.33 Q1320.77 1477.06 1317.69 1481.67 Q1314.63 1486.25 1308.82 1486.25 Q1303.01 1486.25 1299.93 1481.67 Q1296.88 1477.06 1296.88 1468.33 Q1296.88 1459.58 1299.93 1455 Q1303.01 1450.39 1308.82 1450.39 Z" fill="#000000" fill-rule="nonzero" fill-opacity="1"></path><path clip-path="url(#clip070)" d="M1755.76 1451.02 L1777.98 1451.02 L1777.98 1453.01 L1765.43 1485.58 L1760.55 1485.58 L1772.35 1454.96 L1755.76 1454.96 L1755.76 1451.02 Z" fill="#000000" fill-rule="nonzero" fill-opacity="1"></path><path clip-path="url(#clip070)" d="M1787.1 1479.7 L1791.98 1479.7 L1791.98 1485.58 L1787.1 1485.58 L1787.1 1479.7 Z" fill="#000000" fill-rule="nonzero" fill-opacity="1"></path><path clip-path="url(#clip070)" d="M1802.21 1451.02 L1820.57 1451.02 L1820.57 1454.96 L1806.5 1454.96 L1806.5 1463.43 Q1807.52 1463.08 1808.53 1462.92 Q1809.55 1462.73 1810.57 1462.73 Q1816.36 1462.73 1819.74 1465.9 Q1823.12 1469.08 1823.12 1474.49 Q1823.12 1480.07 1819.64 1483.17 Q1816.17 1486.25 1809.85 1486.25 Q1807.68 1486.25 1805.41 1485.88 Q1803.16 1485.51 1800.76 1484.77 L1800.76 1480.07 Q1802.84 1481.2 1805.06 1481.76 Q1807.28 1482.32 1809.76 1482.32 Q1813.77 1482.32 1816.1 1480.21 Q1818.44 1478.1 1818.44 1474.49 Q1818.44 1470.88 1816.1 1468.77 Q1813.77 1466.67 1809.76 1466.67 Q1807.89 1466.67 1806.01 1467.08 Q1804.16 1467.5 1802.21 1468.38 L1802.21 1451.02 Z" fill="#000000" fill-rule="nonzero" fill-opacity="1"></path><path clip-path="url(#clip070)" d="M2244.47 1481.64 L2252.11 1481.64 L2252.11 1455.28 L2243.8 1456.95 L2243.8 1452.69 L2252.06 1451.02 L2256.74 1451.02 L2256.74 1481.64 L2264.38 1481.64 L2264.38 1485.58 L2244.47 1485.58 L2244.47 1481.64 Z" fill="#000000" fill-rule="nonzero" fill-opacity="1"></path><path clip-path="url(#clip070)" d="M2283.82 1454.1 Q2280.21 1454.1 2278.38 1457.66 Q2276.58 1461.2 2276.58 1468.33 Q2276.58 1475.44 2278.38 1479.01 Q2280.21 1482.55 2283.82 1482.55 Q2287.46 1482.55 2289.26 1479.01 Q2291.09 1475.44 2291.09 1468.33 Q2291.09 1461.2 2289.26 1457.66 Q2287.46 1454.1 2283.82 1454.1 M2283.82 1450.39 Q2289.63 1450.39 2292.69 1455 Q2295.77 1459.58 2295.77 1468.33 Q2295.77 1477.06 2292.69 1481.67 Q2289.63 1486.25 2283.82 1486.25 Q2278.01 1486.25 2274.94 1481.67 Q2271.88 1477.06 2271.88 1468.33 Q2271.88 1459.58 2274.94 1455 Q2278.01 1450.39 2283.82 1450.39 Z" fill="#000000" fill-rule="nonzero" fill-opacity="1"></path><path clip-path="url(#clip070)" d="M2303.99 1479.7 L2308.87 1479.7 L2308.87 1485.58 L2303.99 1485.58 L2303.99 1479.7 Z" fill="#000000" fill-rule="nonzero" fill-opacity="1"></path><path clip-path="url(#clip070)" d="M2329.06 1454.1 Q2325.44 1454.1 2323.62 1457.66 Q2321.81 1461.2 2321.81 1468.33 Q2321.81 1475.44 2323.62 1479.01 Q2325.44 1482.55 2329.06 1482.55 Q2332.69 1482.55 2334.49 1479.01 Q2336.32 1475.44 2336.32 1468.33 Q2336.32 1461.2 2334.49 1457.66 Q2332.69 1454.1 2329.06 1454.1 M2329.06 1450.39 Q2334.87 1450.39 2337.92 1455 Q2341 1459.58 2341 1468.33 Q2341 1477.06 2337.92 1481.67 Q2334.87 1486.25 2329.06 1486.25 Q2323.25 1486.25 2320.17 1481.67 Q2317.11 1477.06 2317.11 1468.33 Q2317.11 1459.58 2320.17 1455 Q2323.25 1450.39 2329.06 1450.39 Z" fill="#000000" fill-rule="nonzero" fill-opacity="1"></path><path clip-path="url(#clip070)" d="M1158.08 1522.27 L1158.08 1532.4 L1170.14 1532.4 L1170.14 1536.95 L1158.08 1536.95 L1158.08 1556.3 Q1158.08 1560.66 1159.25 1561.9 Q1160.46 1563.14 1164.12 1563.14 L1170.14 1563.14 L1170.14 1568.04 L1164.12 1568.04 Q1157.34 1568.04 1154.77 1565.53 Q1152.19 1562.98 1152.19 1556.3 L1152.19 1536.95 L1147.89 1536.95 L1147.89 1532.4 L1152.19 1532.4 L1152.19 1522.27 L1158.08 1522.27 Z" fill="#000000" fill-rule="nonzero" fill-opacity="1"></path><path clip-path="url(#clip070)" d="M1177.84 1532.4 L1183.7 1532.4 L1183.7 1568.04 L1177.84 1568.04 L1177.84 1532.4 M1177.84 1518.52 L1183.7 1518.52 L1183.7 1525.93 L1177.84 1525.93 L1177.84 1518.52 Z" fill="#000000" fill-rule="nonzero" fill-opacity="1"></path><path clip-path="url(#clip070)" d="M1223.71 1539.24 Q1225.9 1535.29 1228.96 1533.41 Q1232.01 1531.54 1236.15 1531.54 Q1241.72 1531.54 1244.75 1535.45 Q1247.77 1539.33 1247.77 1546.53 L1247.77 1568.04 L1241.88 1568.04 L1241.88 1546.72 Q1241.88 1541.59 1240.07 1539.11 Q1238.25 1536.63 1234.53 1536.63 Q1229.98 1536.63 1227.34 1539.65 Q1224.69 1542.68 1224.69 1547.9 L1224.69 1568.04 L1218.81 1568.04 L1218.81 1546.72 Q1218.81 1541.56 1216.99 1539.11 Q1215.18 1536.63 1211.39 1536.63 Q1206.9 1536.63 1204.26 1539.68 Q1201.62 1542.71 1201.62 1547.9 L1201.62 1568.04 L1195.73 1568.04 L1195.73 1532.4 L1201.62 1532.4 L1201.62 1537.93 Q1203.62 1534.66 1206.42 1533.1 Q1209.23 1531.54 1213.08 1531.54 Q1216.96 1531.54 1219.67 1533.51 Q1222.4 1535.48 1223.71 1539.24 Z" fill="#000000" fill-rule="nonzero" fill-opacity="1"></path><path clip-path="url(#clip070)" d="M1289.94 1548.76 L1289.94 1551.62 L1263.02 1551.62 Q1263.4 1557.67 1266.64 1560.85 Q1269.92 1564 1275.75 1564 Q1279.12 1564 1282.27 1563.17 Q1285.45 1562.35 1288.57 1560.69 L1288.57 1566.23 Q1285.42 1567.57 1282.11 1568.27 Q1278.8 1568.97 1275.4 1568.97 Q1266.87 1568.97 1261.87 1564 Q1256.9 1559.04 1256.9 1550.57 Q1256.9 1541.82 1261.62 1536.69 Q1266.36 1531.54 1274.38 1531.54 Q1281.57 1531.54 1285.74 1536.18 Q1289.94 1540.8 1289.94 1548.76 M1284.09 1547.04 Q1284.02 1542.23 1281.38 1539.37 Q1278.77 1536.5 1274.44 1536.5 Q1269.54 1536.5 1266.58 1539.27 Q1263.65 1542.04 1263.21 1547.07 L1284.09 1547.04 Z" fill="#000000" fill-rule="nonzero" fill-opacity="1"></path><path clip-path="url(#clip070)" d="M1320.28 1532.4 L1326.13 1532.4 L1326.13 1568.04 L1320.28 1568.04 L1320.28 1532.4 M1320.28 1518.52 L1326.13 1518.52 L1326.13 1525.93 L1320.28 1525.93 L1320.28 1518.52 Z" fill="#000000" fill-rule="nonzero" fill-opacity="1"></path><path clip-path="url(#clip070)" d="M1368.02 1546.53 L1368.02 1568.04 L1362.16 1568.04 L1362.16 1546.72 Q1362.16 1541.66 1360.19 1539.14 Q1358.21 1536.63 1354.27 1536.63 Q1349.53 1536.63 1346.79 1539.65 Q1344.05 1542.68 1344.05 1547.9 L1344.05 1568.04 L1338.16 1568.04 L1338.16 1532.4 L1344.05 1532.4 L1344.05 1537.93 Q1346.15 1534.72 1348.98 1533.13 Q1351.85 1531.54 1355.57 1531.54 Q1361.72 1531.54 1364.87 1535.36 Q1368.02 1539.14 1368.02 1546.53 Z" fill="#000000" fill-rule="nonzero" fill-opacity="1"></path><path clip-path="url(#clip070)" d="M1423.14 1533.45 L1423.14 1538.98 Q1420.66 1537.71 1417.99 1537.07 Q1415.32 1536.44 1412.45 1536.44 Q1408.09 1536.44 1405.89 1537.77 Q1403.73 1539.11 1403.73 1541.79 Q1403.73 1543.82 1405.29 1545 Q1406.85 1546.15 1411.56 1547.2 L1413.56 1547.64 Q1419.8 1548.98 1422.41 1551.43 Q1425.05 1553.85 1425.05 1558.21 Q1425.05 1563.17 1421.11 1566.07 Q1417.19 1568.97 1410.32 1568.97 Q1407.45 1568.97 1404.33 1568.39 Q1401.25 1567.85 1397.81 1566.74 L1397.81 1560.69 Q1401.06 1562.38 1404.21 1563.24 Q1407.36 1564.07 1410.45 1564.07 Q1414.58 1564.07 1416.81 1562.66 Q1419.04 1561.23 1419.04 1558.65 Q1419.04 1556.27 1417.42 1554.99 Q1415.82 1553.72 1410.38 1552.54 L1408.34 1552.07 Q1402.9 1550.92 1400.48 1548.56 Q1398.06 1546.18 1398.06 1542.04 Q1398.06 1537.01 1401.63 1534.27 Q1405.19 1531.54 1411.75 1531.54 Q1415 1531.54 1417.86 1532.01 Q1420.73 1532.49 1423.14 1533.45 Z" fill="#000000" fill-rule="nonzero" fill-opacity="1"></path><polyline clip-path="url(#clip070)" style="stroke:#000000; stroke-linecap:round; stroke-linejoin:round; stroke-width:4; stroke-opacity:1; fill:none" points="220.19,1423.18 220.19,47.2441 "></polyline>
<polyline clip-path="url(#clip070)" style="stroke:#000000; stroke-linecap:round; stroke-linejoin:round; stroke-width:4; stroke-opacity:1; fill:none" points="220.19,1124.65 239.088,1124.65 "></polyline>
<polyline clip-path="url(#clip070)" style="stroke:#000000; stroke-linecap:round; stroke-linejoin:round; stroke-width:4; stroke-opacity:1; fill:none" points="220.19,803.42 239.088,803.42 "></polyline>
<polyline clip-path="url(#clip070)" style="stroke:#000000; stroke-linecap:round; stroke-linejoin:round; stroke-width:4; stroke-opacity:1; fill:none" points="220.19,482.195 239.088,482.195 "></polyline>
<polyline clip-path="url(#clip070)" style="stroke:#000000; stroke-linecap:round; stroke-linejoin:round; stroke-width:4; stroke-opacity:1; fill:none" points="220.19,160.969 239.088,160.969 "></polyline>
<path clip-path="url(#clip070)" d="M130.695 1123.29 Q134.052 1124.01 135.927 1126.28 Q137.825 1128.55 137.825 1131.88 Q137.825 1136.99 134.306 1139.8 Q130.788 1142.6 124.306 1142.6 Q122.13 1142.6 119.816 1142.16 Q117.524 1141.74 115.07 1140.88 L115.07 1136.37 Q117.015 1137.5 119.33 1138.08 Q121.644 1138.66 124.168 1138.66 Q128.566 1138.66 130.857 1136.93 Q133.172 1135.19 133.172 1131.88 Q133.172 1128.82 131.019 1127.11 Q128.89 1125.37 125.07 1125.37 L121.043 1125.37 L121.043 1121.53 L125.255 1121.53 Q128.705 1121.53 130.533 1120.17 Q132.362 1118.78 132.362 1116.18 Q132.362 1113.52 130.464 1112.11 Q128.589 1110.68 125.07 1110.68 Q123.149 1110.68 120.95 1111.09 Q118.751 1111.51 116.112 1112.39 L116.112 1108.22 Q118.774 1107.48 121.089 1107.11 Q123.427 1106.74 125.487 1106.74 Q130.811 1106.74 133.913 1109.17 Q137.015 1111.58 137.015 1115.7 Q137.015 1118.57 135.371 1120.56 Q133.728 1122.53 130.695 1123.29 Z" fill="#000000" fill-rule="nonzero" fill-opacity="1"></path><path clip-path="url(#clip070)" d="M146.691 1136.05 L151.575 1136.05 L151.575 1141.93 L146.691 1141.93 L146.691 1136.05 Z" fill="#000000" fill-rule="nonzero" fill-opacity="1"></path><path clip-path="url(#clip070)" d="M174.607 1111.44 L162.802 1129.89 L174.607 1129.89 L174.607 1111.44 M173.38 1107.37 L179.26 1107.37 L179.26 1129.89 L184.19 1129.89 L184.19 1133.78 L179.26 1133.78 L179.26 1141.93 L174.607 1141.93 L174.607 1133.78 L159.005 1133.78 L159.005 1129.26 L173.38 1107.37 Z" fill="#000000" fill-rule="nonzero" fill-opacity="1"></path><path clip-path="url(#clip070)" d="M131.019 802.066 Q134.376 802.783 136.251 805.052 Q138.149 807.32 138.149 810.654 Q138.149 815.769 134.63 818.57 Q131.112 821.371 124.63 821.371 Q122.455 821.371 120.14 820.931 Q117.848 820.515 115.394 819.658 L115.394 815.144 Q117.339 816.279 119.654 816.857 Q121.968 817.436 124.492 817.436 Q128.89 817.436 131.181 815.7 Q133.496 813.964 133.496 810.654 Q133.496 807.598 131.343 805.885 Q129.214 804.149 125.394 804.149 L121.367 804.149 L121.367 800.306 L125.58 800.306 Q129.029 800.306 130.857 798.941 Q132.686 797.552 132.686 794.959 Q132.686 792.297 130.788 790.885 Q128.913 789.45 125.394 789.45 Q123.473 789.45 121.274 789.867 Q119.075 790.283 116.436 791.163 L116.436 786.996 Q119.098 786.256 121.413 785.885 Q123.751 785.515 125.811 785.515 Q131.135 785.515 134.237 787.945 Q137.339 790.353 137.339 794.473 Q137.339 797.344 135.695 799.334 Q134.052 801.302 131.019 802.066 Z" fill="#000000" fill-rule="nonzero" fill-opacity="1"></path><path clip-path="url(#clip070)" d="M147.015 814.82 L151.899 814.82 L151.899 820.7 L147.015 820.7 L147.015 814.82 Z" fill="#000000" fill-rule="nonzero" fill-opacity="1"></path><path clip-path="url(#clip070)" d="M172.663 801.556 Q169.514 801.556 167.663 803.709 Q165.834 805.862 165.834 809.612 Q165.834 813.339 167.663 815.515 Q169.514 817.668 172.663 817.668 Q175.811 817.668 177.639 815.515 Q179.491 813.339 179.491 809.612 Q179.491 805.862 177.639 803.709 Q175.811 801.556 172.663 801.556 M181.945 786.904 L181.945 791.163 Q180.186 790.33 178.38 789.89 Q176.598 789.45 174.839 789.45 Q170.209 789.45 167.755 792.575 Q165.325 795.7 164.977 802.019 Q166.343 800.006 168.403 798.941 Q170.464 797.853 172.94 797.853 Q178.149 797.853 181.158 801.024 Q184.19 804.172 184.19 809.612 Q184.19 814.936 181.042 818.154 Q177.894 821.371 172.663 821.371 Q166.667 821.371 163.496 816.788 Q160.325 812.181 160.325 803.455 Q160.325 795.26 164.214 790.399 Q168.102 785.515 174.653 785.515 Q176.413 785.515 178.195 785.862 Q180.001 786.209 181.945 786.904 Z" fill="#000000" fill-rule="nonzero" fill-opacity="1"></path><path clip-path="url(#clip070)" d="M131.274 480.84 Q134.63 481.558 136.505 483.826 Q138.404 486.095 138.404 489.428 Q138.404 494.544 134.885 497.345 Q131.367 500.146 124.885 500.146 Q122.709 500.146 120.394 499.706 Q118.103 499.289 115.649 498.433 L115.649 493.919 Q117.593 495.053 119.908 495.632 Q122.223 496.211 124.746 496.211 Q129.144 496.211 131.436 494.475 Q133.751 492.738 133.751 489.428 Q133.751 486.373 131.598 484.66 Q129.468 482.924 125.649 482.924 L121.621 482.924 L121.621 479.081 L125.834 479.081 Q129.283 479.081 131.112 477.715 Q132.941 476.327 132.941 473.734 Q132.941 471.072 131.042 469.66 Q129.167 468.225 125.649 468.225 Q123.728 468.225 121.529 468.641 Q119.33 469.058 116.691 469.938 L116.691 465.771 Q119.353 465.03 121.668 464.66 Q124.005 464.29 126.066 464.29 Q131.39 464.29 134.492 466.72 Q137.593 469.127 137.593 473.248 Q137.593 476.118 135.95 478.109 Q134.306 480.077 131.274 480.84 Z" fill="#000000" fill-rule="nonzero" fill-opacity="1"></path><path clip-path="url(#clip070)" d="M147.269 493.595 L152.153 493.595 L152.153 499.475 L147.269 499.475 L147.269 493.595 Z" fill="#000000" fill-rule="nonzero" fill-opacity="1"></path><path clip-path="url(#clip070)" d="M172.339 483.063 Q169.005 483.063 167.084 484.845 Q165.186 486.627 165.186 489.752 Q165.186 492.877 167.084 494.66 Q169.005 496.442 172.339 496.442 Q175.672 496.442 177.593 494.66 Q179.514 492.854 179.514 489.752 Q179.514 486.627 177.593 484.845 Q175.695 483.063 172.339 483.063 M167.663 481.072 Q164.653 480.331 162.964 478.271 Q161.297 476.211 161.297 473.248 Q161.297 469.104 164.237 466.697 Q167.2 464.29 172.339 464.29 Q177.501 464.29 180.44 466.697 Q183.38 469.104 183.38 473.248 Q183.38 476.211 181.69 478.271 Q180.024 480.331 177.038 481.072 Q180.417 481.859 182.292 484.151 Q184.19 486.442 184.19 489.752 Q184.19 494.775 181.112 497.461 Q178.056 500.146 172.339 500.146 Q166.621 500.146 163.542 497.461 Q160.487 494.775 160.487 489.752 Q160.487 486.442 162.385 484.151 Q164.283 481.859 167.663 481.072 M165.95 473.688 Q165.95 476.373 167.616 477.877 Q169.306 479.382 172.339 479.382 Q175.348 479.382 177.038 477.877 Q178.751 476.373 178.751 473.688 Q178.751 471.002 177.038 469.498 Q175.348 467.993 172.339 467.993 Q169.306 467.993 167.616 469.498 Q165.95 471.002 165.95 473.688 Z" fill="#000000" fill-rule="nonzero" fill-opacity="1"></path><path clip-path="url(#clip070)" d="M129.862 147.763 L118.056 166.212 L129.862 166.212 L129.862 147.763 M128.635 143.689 L134.515 143.689 L134.515 166.212 L139.445 166.212 L139.445 170.101 L134.515 170.101 L134.515 178.249 L129.862 178.249 L129.862 170.101 L114.26 170.101 L114.26 165.587 L128.635 143.689 Z" fill="#000000" fill-rule="nonzero" fill-opacity="1"></path><path clip-path="url(#clip070)" d="M147.177 172.37 L152.061 172.37 L152.061 178.249 L147.177 178.249 L147.177 172.37 Z" fill="#000000" fill-rule="nonzero" fill-opacity="1"></path><path clip-path="url(#clip070)" d="M172.246 146.768 Q168.635 146.768 166.806 150.333 Q165.001 153.874 165.001 161.004 Q165.001 168.11 166.806 171.675 Q168.635 175.217 172.246 175.217 Q175.88 175.217 177.686 171.675 Q179.514 168.11 179.514 161.004 Q179.514 153.874 177.686 150.333 Q175.88 146.768 172.246 146.768 M172.246 143.064 Q178.056 143.064 181.112 147.671 Q184.19 152.254 184.19 161.004 Q184.19 169.731 181.112 174.337 Q178.056 178.92 172.246 178.92 Q166.436 178.92 163.357 174.337 Q160.302 169.731 160.302 161.004 Q160.302 152.254 163.357 147.671 Q166.436 143.064 172.246 143.064 Z" fill="#000000" fill-rule="nonzero" fill-opacity="1"></path><path clip-path="url(#clip070)" d="M46.0847 1033.97 Q46.0847 1041.07 47.7079 1043.81 Q49.3312 1046.54 53.2461 1046.54 Q56.3653 1046.54 58.2114 1044.51 Q60.0256 1042.44 60.0256 1038.9 Q60.0256 1034.03 56.5881 1031.11 Q53.1188 1028.15 47.3897 1028.15 L46.0847 1028.15 L46.0847 1033.97 M43.6657 1022.29 L64.0042 1022.29 L64.0042 1028.15 L58.5933 1028.15 Q61.8398 1030.15 63.3994 1033.14 Q64.9272 1036.13 64.9272 1040.46 Q64.9272 1045.94 61.8716 1049.18 Q58.7843 1052.4 53.6281 1052.4 Q47.6125 1052.4 44.5569 1048.39 Q41.5014 1044.35 41.5014 1036.36 L41.5014 1028.15 L40.9285 1028.15 Q36.8862 1028.15 34.6901 1030.82 Q32.4621 1033.46 32.4621 1038.27 Q32.4621 1041.32 33.1941 1044.22 Q33.9262 1047.12 35.3903 1049.79 L29.9795 1049.79 Q28.7381 1046.57 28.1334 1043.55 Q27.4968 1040.53 27.4968 1037.66 Q27.4968 1029.93 31.5072 1026.11 Q35.5176 1022.29 43.6657 1022.29 Z" fill="#000000" fill-rule="nonzero" fill-opacity="1"></path><path clip-path="url(#clip070)" d="M29.7248 984.573 L35.1993 984.573 Q33.8307 987.055 33.1623 989.57 Q32.4621 992.052 32.4621 994.599 Q32.4621 1000.3 36.0905 1003.45 Q39.6872 1006.6 46.212 1006.6 Q52.7369 1006.6 56.3653 1003.45 Q59.9619 1000.3 59.9619 994.599 Q59.9619 992.052 59.2935 989.57 Q58.5933 987.055 57.2247 984.573 L62.6355 984.573 Q63.7814 987.023 64.3543 989.665 Q64.9272 992.275 64.9272 995.235 Q64.9272 1003.29 59.8664 1008.03 Q54.8057 1012.77 46.212 1012.77 Q37.491 1012.77 32.4939 1008 Q27.4968 1003.19 27.4968 994.853 Q27.4968 992.148 28.0697 989.57 Q28.6108 986.992 29.7248 984.573 Z" fill="#000000" fill-rule="nonzero" fill-opacity="1"></path><path clip-path="url(#clip070)" d="M18.2347 968.595 L28.3562 968.595 L28.3562 956.532 L32.9077 956.532 L32.9077 968.595 L52.2594 968.595 Q56.6199 968.595 57.8613 967.417 Q59.1026 966.208 59.1026 962.547 L59.1026 956.532 L64.0042 956.532 L64.0042 962.547 Q64.0042 969.327 61.4897 971.905 Q58.9434 974.483 52.2594 974.483 L32.9077 974.483 L32.9077 978.78 L28.3562 978.78 L28.3562 974.483 L18.2347 974.483 L18.2347 968.595 Z" fill="#000000" fill-rule="nonzero" fill-opacity="1"></path><path clip-path="url(#clip070)" d="M28.3562 948.829 L28.3562 942.973 L64.0042 942.973 L64.0042 948.829 L28.3562 948.829 M14.479 948.829 L14.479 942.973 L21.895 942.973 L21.895 948.829 L14.479 948.829 Z" fill="#000000" fill-rule="nonzero" fill-opacity="1"></path><path clip-path="url(#clip070)" d="M28.3562 934.92 L28.3562 928.714 L58.275 917.574 L28.3562 906.434 L28.3562 900.227 L64.0042 913.595 L64.0042 921.552 L28.3562 934.92 Z" fill="#000000" fill-rule="nonzero" fill-opacity="1"></path><path clip-path="url(#clip070)" d="M44.7161 861.651 L47.5806 861.651 L47.5806 888.578 Q53.6281 888.196 56.8109 884.949 Q59.9619 881.671 59.9619 875.846 Q59.9619 872.473 59.1344 869.321 Q58.3069 866.139 56.6518 863.019 L62.1899 863.019 Q63.5267 866.17 64.227 869.481 Q64.9272 872.791 64.9272 876.196 Q64.9272 884.727 59.9619 889.724 Q54.9967 894.689 46.5303 894.689 Q37.7774 894.689 32.6531 889.978 Q27.4968 885.236 27.4968 877.215 Q27.4968 870.022 32.1438 865.852 Q36.7589 861.651 44.7161 861.651 M42.9973 867.507 Q38.1912 867.571 35.3266 870.213 Q32.4621 872.823 32.4621 877.151 Q32.4621 882.053 35.2312 885.013 Q38.0002 887.941 43.0292 888.387 L42.9973 867.507 Z" fill="#000000" fill-rule="nonzero" fill-opacity="1"></path><path clip-path="url(#clip070)" d="M58.657 825.653 L77.5631 825.653 L77.5631 831.541 L28.3562 831.541 L28.3562 825.653 L33.7671 825.653 Q30.5842 823.807 29.0564 821.006 Q27.4968 818.173 27.4968 814.258 Q27.4968 807.765 32.6531 803.723 Q37.8093 799.649 46.212 799.649 Q54.6147 799.649 59.771 803.723 Q64.9272 807.765 64.9272 814.258 Q64.9272 818.173 63.3994 821.006 Q61.8398 823.807 58.657 825.653 M46.212 805.728 Q39.7508 805.728 36.0905 808.402 Q32.3984 811.043 32.3984 815.69 Q32.3984 820.337 36.0905 823.011 Q39.7508 825.653 46.212 825.653 Q52.6732 825.653 56.3653 823.011 Q60.0256 820.337 60.0256 815.69 Q60.0256 811.043 56.3653 808.402 Q52.6732 805.728 46.212 805.728 Z" fill="#000000" fill-rule="nonzero" fill-opacity="1"></path><path clip-path="url(#clip070)" d="M32.4621 776.128 Q32.4621 780.838 36.1542 783.575 Q39.8145 786.313 46.212 786.313 Q52.6095 786.313 56.3017 783.607 Q59.9619 780.87 59.9619 776.128 Q59.9619 771.449 56.2698 768.711 Q52.5777 765.974 46.212 765.974 Q39.8781 765.974 36.186 768.711 Q32.4621 771.449 32.4621 776.128 M27.4968 776.128 Q27.4968 768.489 32.4621 764.128 Q37.4273 759.768 46.212 759.768 Q54.9649 759.768 59.9619 764.128 Q64.9272 768.489 64.9272 776.128 Q64.9272 783.798 59.9619 788.159 Q54.9649 792.487 46.212 792.487 Q37.4273 792.487 32.4621 788.159 Q27.4968 783.798 27.4968 776.128 Z" fill="#000000" fill-rule="nonzero" fill-opacity="1"></path><path clip-path="url(#clip070)" d="M28.3562 753.466 L28.3562 747.609 L56.1743 740.289 L28.3562 733 L28.3562 726.093 L56.1743 718.773 L28.3562 711.484 L28.3562 705.627 L64.0042 714.953 L64.0042 721.86 L34.7856 729.531 L64.0042 737.233 L64.0042 744.14 L28.3562 753.466 Z" fill="#000000" fill-rule="nonzero" fill-opacity="1"></path><path clip-path="url(#clip070)" d="M44.7161 666.255 L47.5806 666.255 L47.5806 693.182 Q53.6281 692.8 56.8109 689.554 Q59.9619 686.276 59.9619 680.451 Q59.9619 677.077 59.1344 673.926 Q58.3069 670.743 56.6518 667.624 L62.1899 667.624 Q63.5267 670.775 64.227 674.085 Q64.9272 677.395 64.9272 680.801 Q64.9272 689.331 59.9619 694.328 Q54.9967 699.293 46.5303 699.293 Q37.7774 699.293 32.6531 694.583 Q27.4968 689.84 27.4968 681.82 Q27.4968 674.626 32.1438 670.457 Q36.7589 666.255 44.7161 666.255 M42.9973 672.112 Q38.1912 672.176 35.3266 674.817 Q32.4621 677.427 32.4621 681.756 Q32.4621 686.658 35.2312 689.618 Q38.0002 692.546 43.0292 692.991 L42.9973 672.112 Z" fill="#000000" fill-rule="nonzero" fill-opacity="1"></path><path clip-path="url(#clip070)" d="M33.8307 635.987 Q33.2578 636.973 33.0032 638.151 Q32.7167 639.297 32.7167 640.697 Q32.7167 645.662 35.9632 648.336 Q39.1779 650.978 45.2253 650.978 L64.0042 650.978 L64.0042 656.866 L28.3562 656.866 L28.3562 650.978 L33.8944 650.978 Q30.6479 649.132 29.0883 646.172 Q27.4968 643.212 27.4968 638.978 Q27.4968 638.374 27.5923 637.642 Q27.656 636.91 27.8151 636.018 L33.8307 635.987 Z" fill="#000000" fill-rule="nonzero" fill-opacity="1"></path><path clip-path="url(#clip070)" d="M28.3562 609.123 L28.3562 603.267 L64.0042 603.267 L64.0042 609.123 L28.3562 609.123 M14.479 609.123 L14.479 603.267 L21.895 603.267 L21.895 609.123 L14.479 609.123 Z" fill="#000000" fill-rule="nonzero" fill-opacity="1"></path><path clip-path="url(#clip070)" d="M42.4881 561.38 L64.0042 561.38 L64.0042 567.237 L42.679 567.237 Q37.6183 567.237 35.1038 569.21 Q32.5894 571.184 32.5894 575.13 Q32.5894 579.873 35.6131 582.61 Q38.6368 585.347 43.8567 585.347 L64.0042 585.347 L64.0042 591.236 L28.3562 591.236 L28.3562 585.347 L33.8944 585.347 Q30.6797 583.247 29.0883 580.414 Q27.4968 577.549 27.4968 573.825 Q27.4968 567.682 31.3163 564.531 Q35.1038 561.38 42.4881 561.38 Z" fill="#000000" fill-rule="nonzero" fill-opacity="1"></path><path clip-path="url(#clip070)" d="M58.657 523.314 L77.5631 523.314 L77.5631 529.202 L28.3562 529.202 L28.3562 523.314 L33.7671 523.314 Q30.5842 521.467 29.0564 518.667 Q27.4968 515.834 27.4968 511.919 Q27.4968 505.426 32.6531 501.384 Q37.8093 497.31 46.212 497.31 Q54.6147 497.31 59.771 501.384 Q64.9272 505.426 64.9272 511.919 Q64.9272 515.834 63.3994 518.667 Q61.8398 521.467 58.657 523.314 M46.212 503.389 Q39.7508 503.389 36.0905 506.062 Q32.3984 508.704 32.3984 513.351 Q32.3984 517.998 36.0905 520.672 Q39.7508 523.314 46.212 523.314 Q52.6732 523.314 56.3653 520.672 Q60.0256 517.998 60.0256 513.351 Q60.0256 508.704 56.3653 506.062 Q52.6732 503.389 46.212 503.389 Z" fill="#000000" fill-rule="nonzero" fill-opacity="1"></path><path clip-path="url(#clip070)" d="M55.9197 486.774 L55.9197 480.059 L64.0042 480.059 L64.0042 486.774 L55.9197 486.774 Z" fill="#000000" fill-rule="nonzero" fill-opacity="1"></path><path clip-path="url(#clip070)" d="M49.9359 467.486 L28.3562 467.486 L28.3562 461.63 L49.7131 461.63 Q54.7739 461.63 57.3202 459.656 Q59.8346 457.683 59.8346 453.736 Q59.8346 448.994 56.8109 446.257 Q53.7872 443.488 48.5673 443.488 L28.3562 443.488 L28.3562 437.631 L64.0042 437.631 L64.0042 443.488 L58.5296 443.488 Q61.7762 445.62 63.3676 448.453 Q64.9272 451.254 64.9272 454.978 Q64.9272 461.121 61.1078 464.303 Q57.2883 467.486 49.9359 467.486 M27.4968 452.75 L27.4968 452.75 Z" fill="#000000" fill-rule="nonzero" fill-opacity="1"></path><path clip-path="url(#clip070)" d="M55.9197 424.741 L55.9197 418.025 L64.0042 418.025 L64.0042 424.741 L55.9197 424.741 Z" fill="#000000" fill-rule="nonzero" fill-opacity="1"></path><polyline clip-path="url(#clip072)" style="stroke:#009af9; stroke-linecap:round; stroke-linejoin:round; stroke-width:8; stroke-opacity:1; fill:none" points="280.546,806.244 284.57,806.244 288.593,806.244 292.617,806.244 296.641,806.244 300.665,806.244 304.688,806.244 308.712,806.244 312.736,806.244 316.759,806.244 320.783,806.244 324.807,806.244 328.83,806.244 332.854,806.244 336.878,806.244 340.902,806.244 344.925,806.244 348.949,806.244 352.973,806.244 356.996,806.244 361.02,806.244 365.044,806.244 369.068,806.244 373.091,806.244 377.115,806.244 381.139,806.244 385.162,806.244 389.186,806.244 393.21,806.244 397.234,806.244 401.257,806.244 405.281,806.244 409.305,806.244 413.328,806.244 417.352,806.244 421.376,806.244 425.399,806.244 429.423,806.244 433.447,806.244 437.471,806.244 441.494,806.244 445.518,806.244 449.542,806.244 453.565,806.244 457.589,806.244 461.613,806.244 465.637,806.244 469.66,806.244 473.684,806.244 477.708,806.244 481.731,806.244 485.755,86.1857 489.779,414.862 493.803,635.922 497.826,839.989 501.85,1020.31 505.874,1166.02 509.897,1269.19 513.921,1326.27 517.945,1337.29 521.968,1305.7 525.992,1237.88 530.016,1142.06 534.04,1027.73 538.063,904.718 542.087,782.572 546.111,669.904 550.134,573.896 554.158,499.714 558.182,450.641 562.206,427.926 566.229,430.928 570.253,457.327 574.277,503.573 578.3,565.096 582.324,636.85 586.348,713.589 590.372,790.311 594.395,862.382 598.419,925.928 602.443,977.883 606.466,1016.09 610.49,1039.41 614.514,1047.61 618.537,1041.33 622.561,1021.99 626.585,991.66 630.609,952.83 634.632,908.315 638.656,861.027 642.68,813.814 646.703,769.312 650.727,729.805 654.751,697.127 658.775,672.6 662.798,657.001 666.822,650.568 670.846,653.03 674.869,663.672 678.893,681.405 682.917,704.858 686.941,732.471 690.964,762.584 694.988,793.528 699.012,823.699 703.035,851.628 707.059,876.038 711.083,895.88 715.106,910.369 719.13,919.002 723.154,921.562 727.178,918.115 731.201,908.998 735.225,894.798 739.249,876.314 743.272,854.526 747.296,830.545 751.32,805.563 755.344,780.803 759.367,757.462 763.391,736.662 767.415,719.4 771.438,706.504 775.462,698.597 779.486,696.072 783.51,699.071 787.533,707.478 791.557,720.92 795.581,738.777 799.604,760.209 803.628,784.182 807.652,809.514 811.676,834.921 815.699,859.08 819.723,880.688 823.747,898.534 827.77,911.565 831.794,918.949 835.818,920.138 839.841,914.908 843.865,903.391 847.889,886.082 851.913,863.826 855.936,837.781 859.96,809.364 863.984,780.165 868.007,751.863 872.031,726.124 876.055,704.502 880.079,688.341 884.102,678.689 888.126,676.238 892.15,681.268 896.173,693.63 900.197,712.741 904.221,737.611 908.245,766.894 912.268,798.951 916.292,831.943 920.316,863.931 924.339,892.987 928.363,917.31 932.387,935.337 936.41,945.846 940.434,948.048 944.458,941.64 948.482,926.85 952.505,904.427 956.529,875.613 960.553,842.072 964.576,805.791 968.6,768.955 972.624,733.814 976.648,702.537 980.671,677.077 984.695,659.048 988.719,649.624 992.742,649.465 996.766,658.68 1000.79,676.813 1004.81,702.873 1008.84,735.384 1012.86,772.47 1016.88,811.959 1020.91,851.505 1024.93,888.723 1028.96,921.329 1032.98,947.282 1037,964.906 1041.03,973.008 1045.05,970.958 1049.07,958.745 1053.1,936.992 1057.12,906.923 1061.15,870.301 1065.17,829.319 1069.19,786.462 1073.22,744.35 1077.24,705.574 1081.26,672.53 1085.29,647.268 1089.31,631.369 1093.34,625.85 1097.36,631.104 1101.38,646.881 1105.41,672.304 1109.43,705.917 1113.45,745.775 1117.48,789.545 1121.5,834.645 1125.52,878.384 1129.55,918.12 1133.57,951.412 1137.6,976.173 1141.62,990.799 1145.64,994.279 1149.67,986.271 1153.69,967.139 1157.71,937.939 1161.74,900.371 1165.76,856.671 1169.79,809.478 1173.81,761.666 1177.83,716.157 1181.86,675.744 1185.88,642.908 1189.9,619.671 1193.93,607.473 1197.95,607.09 1201.98,618.596 1206,641.358 1210.02,674.081 1214.05,714.877 1218.07,761.378 1222.09,810.864 1226.12,860.415 1230.14,907.077 1234.16,948.028 1238.19,980.745 1242.21,1003.16 1246.24,1013.81 1250.26,1011.89 1254.28,997.393 1258.31,971.066 1262.33,934.407 1266.35,889.572 1270.38,839.248 1274.4,786.482 1278.43,734.489 1282.45,686.445 1286.47,645.29 1290.5,613.542 1294.52,593.148 1298.54,585.369 1302.57,590.716 1306.59,608.92 1310.62,638.958 1314.64,679.113 1318.66,727.071 1322.69,780.052 1326.71,834.959 1330.73,888.553 1334.76,937.632 1338.78,979.214 1342.81,1010.72 1346.83,1030.12 1350.85,1036.11 1354.88,1028.15 1358.9,1006.57 1362.92,972.546 1366.95,928.037 1370.97,875.684 1374.99,818.64 1379.02,760.368 1383.04,704.426 1387.07,654.233 1391.09,612.857 1395.11,582.828 1399.14,565.987 1403.16,563.383 1407.18,575.222 1411.21,600.858 1415.23,638.84 1419.26,686.996 1423.28,742.551 1427.3,802.287 1431.33,862.708 1435.35,920.242 1439.37,971.431 1443.4,1013.14 1447.42,1042.75 1451.45,1058.31 1455.47,1058.7 1459.49,1043.7 1463.52,1014.05 1467.54,971.399 1471.56,918.252 1475.59,857.782 1479.61,793.651 1483.63,729.771 1487.66,670.052 1491.68,618.147 1495.71,577.232 1499.73,549.806 1503.75,537.555 1507.78,541.255 1511.8,560.74 1515.82,594.922 1519.85,641.857 1523.87,698.857 1527.9,762.639 1531.92,829.498 1535.94,895.516 1539.97,956.768 1543.99,1009.55 1548.01,1050.59 1552.04,1077.25 1556.06,1087.74 1560.09,1081.19 1564.11,1057.78 1568.13,1018.75 1572.16,966.329 1576.18,903.62 1580.2,834.406 1584.23,762.907 1588.25,693.502 1592.27,630.448 1596.3,577.607 1600.32,538.208 1604.35,514.656 1608.37,508.397 1612.39,519.853 1616.42,548.399 1620.44,592.423 1624.46,649.412 1628.49,716.099 1632.51,788.638 1636.54,862.81 1640.56,934.251 1644.58,998.687 1648.61,1052.19 1652.63,1091.38 1656.65,1113.72 1660.68,1117.58 1664.7,1102.49 1668.73,1069.12 1672.75,1019.3 1676.77,955.948 1680.8,882.851 1684.82,804.455 1688.84,725.567 1692.87,651.034 1696.89,585.433 1700.92,532.776 1704.94,496.275 1708.96,478.149 1712.99,479.513 1717.01,500.333 1721.03,539.437 1725.06,594.601 1729.08,662.672 1733.1,739.748 1737.13,821.378 1741.15,902.807 1745.18,979.22 1749.2,1046.01 1753.22,1099.07 1757.25,1134.99 1761.27,1151.34 1765.29,1146.84 1769.32,1121.47 1773.34,1076.51 1777.37,1014.53 1781.39,939.178 1785.41,855.027 1789.44,767.229 1793.46,681.19 1797.48,602.207 1801.51,535.127 1805.53,484.044 1809.56,452.057 1813.58,441.101 1817.6,451.855 1821.63,483.726 1825.65,534.903 1829.67,602.467 1833.7,682.56 1837.72,770.59 1841.74,861.473 1845.77,949.895 1849.79,1030.6 1853.82,1098.69 1857.84,1149.89 1861.86,1180.86 1865.89,1189.39 1869.91,1174.61 1873.93,1137.11 1877.96,1078.9 1881.98,1003.37 1886.01,915.034 1890.03,819.307 1894.05,722.082 1898.08,629.365 1902.1,546.868 1906.12,479.642 1910.15,431.772 1914.17,406.14 1918.2,404.284 1922.22,426.335 1926.24,471.037 1930.27,535.839 1934.29,617.049 1938.31,710.036 1942.34,809.47 1946.36,909.6 1950.39,1004.55 1954.41,1088.64 1958.43,1156.7 1962.46,1204.38 1966.48,1228.46 1970.5,1227.07 1974.53,1199.91 1978.55,1148.28 1982.57,1075.07 1986.6,984.608 1990.62,882.396 1994.65,774.731 1998.67,668.279 2002.69,569.631 2006.72,484.854 2010.74,419.12 2014.76,376.393 2018.79,359.221 2022.81,368.615 2026.84,404.036 2030.86,463.45 2034.88,543.472 2038.91,639.548 2042.93,746.211 2046.95,857.348 2050.98,966.519 2055,1067.28 2059.03,1153.55 2063.05,1219.93 2067.07,1262.09 2071.1,1277.03 2075.12,1263.37 2079.14,1221.49 2083.17,1153.58 2087.19,1063.57 2091.21,956.858 2095.24,840.006 2099.26,720.271 2103.29,605.087 2107.31,501.596 2111.33,416.134 2115.36,353.89 2119.38,318.566 2123.4,312.244 2127.43,335.258 2131.45,386.281 2135.48,462.37 2139.5,559.214 2143.52,671.305 2147.55,792.289 2151.57,915.218 2155.59,1032.96 2159.62,1138.49 2163.64,1225.38 2167.67,1288.08 2171.69,1322.35 2175.71,1325.56 2179.74,1296.98 2183.76,1237.82 2187.78,1151.4 2191.81,1042.76 2195.83,918.605 2199.85,786.55 2203.88,654.948 2207.9,531.869 2211.93,425.063 2215.95,340.888 2219.97,284.554 2224,259.2 2228.02,266.435 2232.04,305.609 2236.07,374.63 2240.09,469.356 2244.12,584.616 2248.14,713.718 2252.16,849.494 2256.19,984.018 2260.21,1109.54 2264.23,1218.43 2268.26,1304.01 2272.28,1360.57 2276.31,1384.24 2280.33,1372.73 2284.35,1326.34 2288.38,1247.11 2292.4,1139.79 "></polyline>
<path clip-path="url(#clip070)" d="M291.276 196.789 L851.382 196.789 L851.382 93.1086 L291.276 93.1086  Z" fill="#ffffff" fill-rule="evenodd" fill-opacity="1"></path>
<polyline clip-path="url(#clip070)" style="stroke:#000000; stroke-linecap:round; stroke-linejoin:round; stroke-width:4; stroke-opacity:1; fill:none" points="291.276,196.789 851.382,196.789 851.382,93.1086 291.276,93.1086 291.276,196.789 "></polyline>
<polyline clip-path="url(#clip070)" style="stroke:#009af9; stroke-linecap:round; stroke-linejoin:round; stroke-width:8; stroke-opacity:1; fill:none" points="314.971,144.949 457.142,144.949 "></polyline>
<path clip-path="url(#clip070)" d="M485.513 131.511 L485.513 158.386 L491.161 158.386 Q498.314 158.386 501.624 155.145 Q504.957 151.905 504.957 144.914 Q504.957 137.969 501.624 134.752 Q498.314 131.511 491.161 131.511 L485.513 131.511 M480.837 127.669 L490.444 127.669 Q500.49 127.669 505.189 131.858 Q509.888 136.025 509.888 144.914 Q509.888 153.849 505.166 158.039 Q500.444 162.229 490.444 162.229 L480.837 162.229 L480.837 127.669 Z" fill="#000000" fill-rule="nonzero" fill-opacity="1"></path><path clip-path="url(#clip070)" d="M517.342 127.669 L539.193 127.669 L539.193 131.604 L522.018 131.604 L522.018 141.835 L538.476 141.835 L538.476 145.77 L522.018 145.77 L522.018 158.293 L539.61 158.293 L539.61 162.229 L517.342 162.229 L517.342 127.669 Z" fill="#000000" fill-rule="nonzero" fill-opacity="1"></path><path clip-path="url(#clip070)" d="M557.712 130.747 Q554.101 130.747 552.272 134.312 Q550.466 137.854 550.466 144.983 Q550.466 152.09 552.272 155.655 Q554.101 159.196 557.712 159.196 Q561.346 159.196 563.152 155.655 Q564.98 152.09 564.98 144.983 Q564.98 137.854 563.152 134.312 Q561.346 130.747 557.712 130.747 M557.712 127.044 Q563.522 127.044 566.578 131.65 Q569.656 136.233 569.656 144.983 Q569.656 153.71 566.578 158.317 Q563.522 162.9 557.712 162.9 Q551.902 162.9 548.823 158.317 Q545.767 153.71 545.767 144.983 Q545.767 136.233 548.823 131.65 Q551.902 127.044 557.712 127.044 Z" fill="#000000" fill-rule="nonzero" fill-opacity="1"></path><path clip-path="url(#clip070)" d="M602.943 130.747 Q599.332 130.747 597.503 134.312 Q595.698 137.854 595.698 144.983 Q595.698 152.09 597.503 155.655 Q599.332 159.196 602.943 159.196 Q606.577 159.196 608.383 155.655 Q610.212 152.09 610.212 144.983 Q610.212 137.854 608.383 134.312 Q606.577 130.747 602.943 130.747 M602.943 127.044 Q608.753 127.044 611.809 131.65 Q614.887 136.233 614.887 144.983 Q614.887 153.71 611.809 158.317 Q608.753 162.9 602.943 162.9 Q597.133 162.9 594.054 158.317 Q590.999 153.71 590.999 144.983 Q590.999 136.233 594.054 131.65 Q597.133 127.044 602.943 127.044 Z" fill="#000000" fill-rule="nonzero" fill-opacity="1"></path><path clip-path="url(#clip070)" d="M656.184 149.289 Q656.184 144.59 654.239 141.928 Q652.318 139.243 648.938 139.243 Q645.559 139.243 643.614 141.928 Q641.693 144.59 641.693 149.289 Q641.693 153.988 643.614 156.673 Q645.559 159.335 648.938 159.335 Q652.318 159.335 654.239 156.673 Q656.184 153.988 656.184 149.289 M641.693 140.238 Q643.035 137.923 645.072 136.812 Q647.133 135.678 649.98 135.678 Q654.702 135.678 657.642 139.428 Q660.605 143.178 660.605 149.289 Q660.605 155.4 657.642 159.15 Q654.702 162.9 649.98 162.9 Q647.133 162.9 645.072 161.789 Q643.035 160.655 641.693 158.34 L641.693 162.229 L637.41 162.229 L637.41 126.21 L641.693 126.21 L641.693 140.238 Z" fill="#000000" fill-rule="nonzero" fill-opacity="1"></path><path clip-path="url(#clip070)" d="M667.665 136.303 L671.924 136.303 L671.924 162.229 L667.665 162.229 L667.665 136.303 M667.665 126.21 L671.924 126.21 L671.924 131.604 L667.665 131.604 L667.665 126.21 Z" fill="#000000" fill-rule="nonzero" fill-opacity="1"></path><path clip-path="url(#clip070)" d="M690.882 139.289 Q687.457 139.289 685.466 141.974 Q683.475 144.636 683.475 149.289 Q683.475 153.942 685.443 156.627 Q687.433 159.289 690.882 159.289 Q694.285 159.289 696.276 156.604 Q698.267 153.918 698.267 149.289 Q698.267 144.682 696.276 141.997 Q694.285 139.289 690.882 139.289 M690.882 135.678 Q696.438 135.678 699.609 139.289 Q702.78 142.9 702.78 149.289 Q702.78 155.655 699.609 159.289 Q696.438 162.9 690.882 162.9 Q685.304 162.9 682.132 159.289 Q678.984 155.655 678.984 149.289 Q678.984 142.9 682.132 139.289 Q685.304 135.678 690.882 135.678 Z" fill="#000000" fill-rule="nonzero" fill-opacity="1"></path><path clip-path="url(#clip070)" d="M730.026 141.28 Q731.623 138.409 733.845 137.044 Q736.067 135.678 739.077 135.678 Q743.128 135.678 745.327 138.525 Q747.526 141.349 747.526 146.581 L747.526 162.229 L743.243 162.229 L743.243 146.719 Q743.243 142.993 741.924 141.187 Q740.604 139.382 737.896 139.382 Q734.586 139.382 732.665 141.581 Q730.743 143.78 730.743 147.576 L730.743 162.229 L726.461 162.229 L726.461 146.719 Q726.461 142.969 725.141 141.187 Q723.822 139.382 721.067 139.382 Q717.804 139.382 715.882 141.604 Q713.961 143.803 713.961 147.576 L713.961 162.229 L709.679 162.229 L709.679 136.303 L713.961 136.303 L713.961 140.331 Q715.419 137.946 717.456 136.812 Q719.493 135.678 722.294 135.678 Q725.118 135.678 727.086 137.113 Q729.077 138.548 730.026 141.28 Z" fill="#000000" fill-rule="nonzero" fill-opacity="1"></path><path clip-path="url(#clip070)" d="M767.803 149.196 Q762.641 149.196 760.651 150.377 Q758.66 151.557 758.66 154.405 Q758.66 156.673 760.141 158.016 Q761.646 159.335 764.215 159.335 Q767.757 159.335 769.887 156.835 Q772.039 154.312 772.039 150.145 L772.039 149.196 L767.803 149.196 M776.299 147.437 L776.299 162.229 L772.039 162.229 L772.039 158.293 Q770.581 160.655 768.405 161.789 Q766.229 162.9 763.081 162.9 Q759.1 162.9 756.739 160.678 Q754.401 158.432 754.401 154.682 Q754.401 150.307 757.317 148.085 Q760.257 145.863 766.067 145.863 L772.039 145.863 L772.039 145.446 Q772.039 142.507 770.095 140.909 Q768.174 139.289 764.678 139.289 Q762.456 139.289 760.35 139.821 Q758.243 140.354 756.299 141.419 L756.299 137.483 Q758.637 136.581 760.836 136.141 Q763.035 135.678 765.118 135.678 Q770.743 135.678 773.521 138.594 Q776.299 141.511 776.299 147.437 Z" fill="#000000" fill-rule="nonzero" fill-opacity="1"></path><path clip-path="url(#clip070)" d="M801.599 137.067 L801.599 141.094 Q799.794 140.169 797.849 139.706 Q795.905 139.243 793.822 139.243 Q790.65 139.243 789.053 140.215 Q787.479 141.187 787.479 143.131 Q787.479 144.613 788.613 145.469 Q789.748 146.303 793.174 147.067 L794.632 147.391 Q799.169 148.363 801.067 150.145 Q802.988 151.905 802.988 155.076 Q802.988 158.687 800.118 160.793 Q797.271 162.9 792.271 162.9 Q790.187 162.9 787.919 162.483 Q785.674 162.09 783.174 161.28 L783.174 156.881 Q785.535 158.108 787.826 158.733 Q790.118 159.335 792.363 159.335 Q795.373 159.335 796.993 158.317 Q798.613 157.275 798.613 155.4 Q798.613 153.664 797.433 152.738 Q796.275 151.812 792.317 150.956 L790.836 150.608 Q786.877 149.775 785.118 148.062 Q783.359 146.326 783.359 143.317 Q783.359 139.659 785.951 137.669 Q788.544 135.678 793.312 135.678 Q795.674 135.678 797.757 136.025 Q799.84 136.372 801.599 137.067 Z" fill="#000000" fill-rule="nonzero" fill-opacity="1"></path><path clip-path="url(#clip070)" d="M826.298 137.067 L826.298 141.094 Q824.493 140.169 822.548 139.706 Q820.604 139.243 818.521 139.243 Q815.349 139.243 813.752 140.215 Q812.178 141.187 812.178 143.131 Q812.178 144.613 813.312 145.469 Q814.447 146.303 817.872 147.067 L819.331 147.391 Q823.868 148.363 825.766 150.145 Q827.687 151.905 827.687 155.076 Q827.687 158.687 824.817 160.793 Q821.97 162.9 816.97 162.9 Q814.886 162.9 812.618 162.483 Q810.373 162.09 807.873 161.28 L807.873 156.881 Q810.234 158.108 812.525 158.733 Q814.817 159.335 817.062 159.335 Q820.072 159.335 821.692 158.317 Q823.312 157.275 823.312 155.4 Q823.312 153.664 822.132 152.738 Q820.974 151.812 817.016 150.956 L815.535 150.608 Q811.576 149.775 809.817 148.062 Q808.058 146.326 808.058 143.317 Q808.058 139.659 810.65 137.669 Q813.243 135.678 818.011 135.678 Q820.372 135.678 822.456 136.025 Q824.539 136.372 826.298 137.067 Z" fill="#000000" fill-rule="nonzero" fill-opacity="1"></path></svg>