<svg xmlns="http://www.w3.org/2000/svg" xmlns:xlink="http://www.w3.org/1999/xlink" width="600" height="400" viewBox="0 0 2400 1600">
<defs>
  <clipPath id="clip910">
    <rect x="0" y="0" width="2400" height="1600"></rect>
  </clipPath>
</defs>
<path clip-path="url(#clip910)" d="M0 1600 L2400 1600 L2400 0 L0 0  Z" fill="#ffffff" fill-rule="evenodd" fill-opacity="1"></path>
<defs>
  <clipPath id="clip911">
    <rect x="480" y="0" width="1681" height="1600"></rect>
  </clipPath>
</defs>
<path clip-path="url(#clip910)" d="M204.45 1423.18 L2352.76 1423.18 L2352.76 47.2441 L204.45 47.2441  Z" fill="#ffffff" fill-rule="evenodd" fill-opacity="1"></path>
<defs>
  <clipPath id="clip912">
    <rect x="204" y="47" width="2149" height="1377"></rect>
  </clipPath>
</defs>
<polyline clip-path="url(#clip912)" style="stroke:#000000; stroke-linecap:round; stroke-linejoin:round; stroke-width:2; stroke-opacity:0.1; fill:none" points="265.251,1423.18 265.251,47.2441 "></polyline>
<polyline clip-path="url(#clip912)" style="stroke:#000000; stroke-linecap:round; stroke-linejoin:round; stroke-width:2; stroke-opacity:0.1; fill:none" points="771.927,1423.18 771.927,47.2441 "></polyline>
<polyline clip-path="url(#clip912)" style="stroke:#000000; stroke-linecap:round; stroke-linejoin:round; stroke-width:2; stroke-opacity:0.1; fill:none" points="1278.6,1423.18 1278.6,47.2441 "></polyline>
<polyline clip-path="url(#clip912)" style="stroke:#000000; stroke-linecap:round; stroke-linejoin:round; stroke-width:2; stroke-opacity:0.1; fill:none" points="1785.28,1423.18 1785.28,47.2441 "></polyline>
<polyline clip-path="url(#clip912)" style="stroke:#000000; stroke-linecap:round; stroke-linejoin:round; stroke-width:2; stroke-opacity:0.1; fill:none" points="2291.95,1423.18 2291.95,47.2441 "></polyline>
<polyline clip-path="url(#clip912)" style="stroke:#000000; stroke-linecap:round; stroke-linejoin:round; stroke-width:2; stroke-opacity:0.1; fill:none" points="204.45,1318.44 2352.76,1318.44 "></polyline>
<polyline clip-path="url(#clip912)" style="stroke:#000000; stroke-linecap:round; stroke-linejoin:round; stroke-width:2; stroke-opacity:0.1; fill:none" points="204.45,1005.63 2352.76,1005.63 "></polyline>
<polyline clip-path="url(#clip912)" style="stroke:#000000; stroke-linecap:round; stroke-linejoin:round; stroke-width:2; stroke-opacity:0.1; fill:none" points="204.45,692.826 2352.76,692.826 "></polyline>
<polyline clip-path="url(#clip912)" style="stroke:#000000; stroke-linecap:round; stroke-linejoin:round; stroke-width:2; stroke-opacity:0.1; fill:none" points="204.45,380.019 2352.76,380.019 "></polyline>
<polyline clip-path="url(#clip912)" style="stroke:#000000; stroke-linecap:round; stroke-linejoin:round; stroke-width:2; stroke-opacity:0.1; fill:none" points="204.45,67.2126 2352.76,67.2126 "></polyline>
<polyline clip-path="url(#clip910)" style="stroke:#000000; stroke-linecap:round; stroke-linejoin:round; stroke-width:4; stroke-opacity:1; fill:none" points="204.45,1423.18 2352.76,1423.18 "></polyline>
<polyline clip-path="url(#clip910)" style="stroke:#000000; stroke-linecap:round; stroke-linejoin:round; stroke-width:4; stroke-opacity:1; fill:none" points="265.251,1423.18 265.251,1404.28 "></polyline>
<polyline clip-path="url(#clip910)" style="stroke:#000000; stroke-linecap:round; stroke-linejoin:round; stroke-width:4; stroke-opacity:1; fill:none" points="771.927,1423.18 771.927,1404.28 "></polyline>
<polyline clip-path="url(#clip910)" style="stroke:#000000; stroke-linecap:round; stroke-linejoin:round; stroke-width:4; stroke-opacity:1; fill:none" points="1278.6,1423.18 1278.6,1404.28 "></polyline>
<polyline clip-path="url(#clip910)" style="stroke:#000000; stroke-linecap:round; stroke-linejoin:round; stroke-width:4; stroke-opacity:1; fill:none" points="1785.28,1423.18 1785.28,1404.28 "></polyline>
<polyline clip-path="url(#clip910)" style="stroke:#000000; stroke-linecap:round; stroke-linejoin:round; stroke-width:4; stroke-opacity:1; fill:none" points="2291.95,1423.18 2291.95,1404.28 "></polyline>
<path clip-path="url(#clip910)" d="M242.635 1454.1 Q239.024 1454.1 237.195 1457.66 Q235.39 1461.2 235.39 1468.33 Q235.39 1475.44 237.195 1479.01 Q239.024 1482.55 242.635 1482.55 Q246.269 1482.55 248.075 1479.01 Q249.904 1475.44 249.904 1468.33 Q249.904 1461.2 248.075 1457.66 Q246.269 1454.1 242.635 1454.1 M242.635 1450.39 Q248.445 1450.39 251.501 1455 Q254.58 1459.58 254.58 1468.33 Q254.58 1477.06 251.501 1481.67 Q248.445 1486.25 242.635 1486.25 Q236.825 1486.25 233.746 1481.67 Q230.691 1477.06 230.691 1468.33 Q230.691 1459.58 233.746 1455 Q236.825 1450.39 242.635 1450.39 Z" fill="#000000" fill-rule="nonzero" fill-opacity="1"></path><path clip-path="url(#clip910)" d="M262.797 1479.7 L267.681 1479.7 L267.681 1485.58 L262.797 1485.58 L262.797 1479.7 Z" fill="#000000" fill-rule="nonzero" fill-opacity="1"></path><path clip-path="url(#clip910)" d="M287.866 1454.1 Q284.255 1454.1 282.427 1457.66 Q280.621 1461.2 280.621 1468.33 Q280.621 1475.44 282.427 1479.01 Q284.255 1482.55 287.866 1482.55 Q291.501 1482.55 293.306 1479.01 Q295.135 1475.44 295.135 1468.33 Q295.135 1461.2 293.306 1457.66 Q291.501 1454.1 287.866 1454.1 M287.866 1450.39 Q293.677 1450.39 296.732 1455 Q299.811 1459.58 299.811 1468.33 Q299.811 1477.06 296.732 1481.67 Q293.677 1486.25 287.866 1486.25 Q282.056 1486.25 278.978 1481.67 Q275.922 1477.06 275.922 1468.33 Q275.922 1459.58 278.978 1455 Q282.056 1450.39 287.866 1450.39 Z" fill="#000000" fill-rule="nonzero" fill-opacity="1"></path><path clip-path="url(#clip910)" d="M743.663 1481.64 L759.982 1481.64 L759.982 1485.58 L738.038 1485.58 L738.038 1481.64 Q740.7 1478.89 745.283 1474.26 Q749.89 1469.61 751.07 1468.27 Q753.316 1465.74 754.195 1464.01 Q755.098 1462.25 755.098 1460.56 Q755.098 1457.8 753.154 1456.07 Q751.232 1454.33 748.131 1454.33 Q745.932 1454.33 743.478 1455.09 Q741.047 1455.86 738.27 1457.41 L738.27 1452.69 Q741.094 1451.55 743.547 1450.97 Q746.001 1450.39 748.038 1450.39 Q753.408 1450.39 756.603 1453.08 Q759.797 1455.77 759.797 1460.26 Q759.797 1462.39 758.987 1464.31 Q758.2 1466.2 756.094 1468.8 Q755.515 1469.47 752.413 1472.69 Q749.311 1475.88 743.663 1481.64 Z" fill="#000000" fill-rule="nonzero" fill-opacity="1"></path><path clip-path="url(#clip910)" d="M769.797 1479.7 L774.681 1479.7 L774.681 1485.58 L769.797 1485.58 L769.797 1479.7 Z" fill="#000000" fill-rule="nonzero" fill-opacity="1"></path><path clip-path="url(#clip910)" d="M784.913 1451.02 L803.269 1451.02 L803.269 1454.96 L789.195 1454.96 L789.195 1463.43 Q790.214 1463.08 791.232 1462.92 Q792.251 1462.73 793.269 1462.73 Q799.056 1462.73 802.436 1465.9 Q805.816 1469.08 805.816 1474.49 Q805.816 1480.07 802.343 1483.17 Q798.871 1486.25 792.552 1486.25 Q790.376 1486.25 788.107 1485.88 Q785.862 1485.51 783.455 1484.77 L783.455 1480.07 Q785.538 1481.2 787.76 1481.76 Q789.982 1482.32 792.459 1482.32 Q796.464 1482.32 798.802 1480.21 Q801.14 1478.1 801.14 1474.49 Q801.14 1470.88 798.802 1468.77 Q796.464 1466.67 792.459 1466.67 Q790.584 1466.67 788.709 1467.08 Q786.857 1467.5 784.913 1468.38 L784.913 1451.02 Z" fill="#000000" fill-rule="nonzero" fill-opacity="1"></path><path clip-path="url(#clip910)" d="M1245.77 1451.02 L1264.12 1451.02 L1264.12 1454.96 L1250.05 1454.96 L1250.05 1463.43 Q1251.07 1463.08 1252.09 1462.92 Q1253.11 1462.73 1254.12 1462.73 Q1259.91 1462.73 1263.29 1465.9 Q1266.67 1469.08 1266.67 1474.49 Q1266.67 1480.07 1263.2 1483.17 Q1259.73 1486.25 1253.41 1486.25 Q1251.23 1486.25 1248.96 1485.88 Q1246.72 1485.51 1244.31 1484.77 L1244.31 1480.07 Q1246.39 1481.2 1248.61 1481.76 Q1250.84 1482.32 1253.31 1482.32 Q1257.32 1482.32 1259.66 1480.21 Q1261.99 1478.1 1261.99 1474.49 Q1261.99 1470.88 1259.66 1468.77 Q1257.32 1466.67 1253.31 1466.67 Q1251.44 1466.67 1249.56 1467.08 Q1247.71 1467.5 1245.77 1468.38 L1245.77 1451.02 Z" fill="#000000" fill-rule="nonzero" fill-opacity="1"></path><path clip-path="url(#clip910)" d="M1275.88 1479.7 L1280.77 1479.7 L1280.77 1485.58 L1275.88 1485.58 L1275.88 1479.7 Z" fill="#000000" fill-rule="nonzero" fill-opacity="1"></path><path clip-path="url(#clip910)" d="M1300.95 1454.1 Q1297.34 1454.1 1295.51 1457.66 Q1293.71 1461.2 1293.71 1468.33 Q1293.71 1475.44 1295.51 1479.01 Q1297.34 1482.55 1300.95 1482.55 Q1304.59 1482.55 1306.39 1479.01 Q1308.22 1475.44 1308.22 1468.33 Q1308.22 1461.2 1306.39 1457.66 Q1304.59 1454.1 1300.95 1454.1 M1300.95 1450.39 Q1306.76 1450.39 1309.82 1455 Q1312.9 1459.58 1312.9 1468.33 Q1312.9 1477.06 1309.82 1481.67 Q1306.76 1486.25 1300.95 1486.25 Q1295.14 1486.25 1292.06 1481.67 Q1289.01 1477.06 1289.01 1468.33 Q1289.01 1459.58 1292.06 1455 Q1295.14 1450.39 1300.95 1450.39 Z" fill="#000000" fill-rule="nonzero" fill-opacity="1"></path><path clip-path="url(#clip910)" d="M1751.6 1451.02 L1773.82 1451.02 L1773.82 1453.01 L1761.27 1485.58 L1756.39 1485.58 L1768.2 1454.96 L1751.6 1454.96 L1751.6 1451.02 Z" fill="#000000" fill-rule="nonzero" fill-opacity="1"></path><path clip-path="url(#clip910)" d="M1782.94 1479.7 L1787.83 1479.7 L1787.83 1485.58 L1782.94 1485.58 L1782.94 1479.7 Z" fill="#000000" fill-rule="nonzero" fill-opacity="1"></path><path clip-path="url(#clip910)" d="M1798.06 1451.02 L1816.41 1451.02 L1816.41 1454.96 L1802.34 1454.96 L1802.34 1463.43 Q1803.36 1463.08 1804.38 1462.92 Q1805.39 1462.73 1806.41 1462.73 Q1812.2 1462.73 1815.58 1465.9 Q1818.96 1469.08 1818.96 1474.49 Q1818.96 1480.07 1815.49 1483.17 Q1812.01 1486.25 1805.7 1486.25 Q1803.52 1486.25 1801.25 1485.88 Q1799.01 1485.51 1796.6 1484.77 L1796.6 1480.07 Q1798.68 1481.2 1800.9 1481.76 Q1803.13 1482.32 1805.6 1482.32 Q1809.61 1482.32 1811.95 1480.21 Q1814.28 1478.1 1814.28 1474.49 Q1814.28 1470.88 1811.95 1468.77 Q1809.61 1466.67 1805.6 1466.67 Q1803.73 1466.67 1801.85 1467.08 Q1800 1467.5 1798.06 1468.38 L1798.06 1451.02 Z" fill="#000000" fill-rule="nonzero" fill-opacity="1"></path><path clip-path="url(#clip910)" d="M2244.03 1481.64 L2251.67 1481.64 L2251.67 1455.28 L2243.36 1456.95 L2243.36 1452.69 L2251.62 1451.02 L2256.3 1451.02 L2256.3 1481.64 L2263.93 1481.64 L2263.93 1485.58 L2244.03 1485.58 L2244.03 1481.64 Z" fill="#000000" fill-rule="nonzero" fill-opacity="1"></path><path clip-path="url(#clip910)" d="M2283.38 1454.1 Q2279.77 1454.1 2277.94 1457.66 Q2276.13 1461.2 2276.13 1468.33 Q2276.13 1475.44 2277.94 1479.01 Q2279.77 1482.55 2283.38 1482.55 Q2287.01 1482.55 2288.82 1479.01 Q2290.65 1475.44 2290.65 1468.33 Q2290.65 1461.2 2288.82 1457.66 Q2287.01 1454.1 2283.38 1454.1 M2283.38 1450.39 Q2289.19 1450.39 2292.24 1455 Q2295.32 1459.58 2295.32 1468.33 Q2295.32 1477.06 2292.24 1481.67 Q2289.19 1486.25 2283.38 1486.25 Q2277.57 1486.25 2274.49 1481.67 Q2271.43 1477.06 2271.43 1468.33 Q2271.43 1459.58 2274.49 1455 Q2277.57 1450.39 2283.38 1450.39 Z" fill="#000000" fill-rule="nonzero" fill-opacity="1"></path><path clip-path="url(#clip910)" d="M2303.54 1479.7 L2308.42 1479.7 L2308.42 1485.58 L2303.54 1485.58 L2303.54 1479.7 Z" fill="#000000" fill-rule="nonzero" fill-opacity="1"></path><path clip-path="url(#clip910)" d="M2328.61 1454.1 Q2325 1454.1 2323.17 1457.66 Q2321.36 1461.2 2321.36 1468.33 Q2321.36 1475.44 2323.17 1479.01 Q2325 1482.55 2328.61 1482.55 Q2332.24 1482.55 2334.05 1479.01 Q2335.88 1475.44 2335.88 1468.33 Q2335.88 1461.2 2334.05 1457.66 Q2332.24 1454.1 2328.61 1454.1 M2328.61 1450.39 Q2334.42 1450.39 2337.48 1455 Q2340.55 1459.58 2340.55 1468.33 Q2340.55 1477.06 2337.48 1481.67 Q2334.42 1486.25 2328.61 1486.25 Q2322.8 1486.25 2319.72 1481.67 Q2316.67 1477.06 2316.67 1468.33 Q2316.67 1459.58 2319.72 1455 Q2322.8 1450.39 2328.61 1450.39 Z" fill="#000000" fill-rule="nonzero" fill-opacity="1"></path><path clip-path="url(#clip910)" d="M1150.21 1522.27 L1150.21 1532.4 L1162.27 1532.4 L1162.27 1536.95 L1150.21 1536.95 L1150.21 1556.3 Q1150.21 1560.66 1151.38 1561.9 Q1152.59 1563.14 1156.25 1563.14 L1162.27 1563.14 L1162.27 1568.04 L1156.25 1568.04 Q1149.47 1568.04 1146.9 1565.53 Q1144.32 1562.98 1144.32 1556.3 L1144.32 1536.95 L1140.02 1536.95 L1140.02 1532.4 L1144.32 1532.4 L1144.32 1522.27 L1150.21 1522.27 Z" fill="#000000" fill-rule="nonzero" fill-opacity="1"></path><path clip-path="url(#clip910)" d="M1169.97 1532.4 L1175.83 1532.4 L1175.83 1568.04 L1169.97 1568.04 L1169.97 1532.4 M1169.97 1518.52 L1175.83 1518.52 L1175.83 1525.93 L1169.97 1525.93 L1169.97 1518.52 Z" fill="#000000" fill-rule="nonzero" fill-opacity="1"></path><path clip-path="url(#clip910)" d="M1215.84 1539.24 Q1218.03 1535.29 1221.09 1533.41 Q1224.14 1531.54 1228.28 1531.54 Q1233.85 1531.54 1236.88 1535.45 Q1239.9 1539.33 1239.9 1546.53 L1239.9 1568.04 L1234.01 1568.04 L1234.01 1546.72 Q1234.01 1541.59 1232.2 1539.11 Q1230.38 1536.63 1226.66 1536.63 Q1222.11 1536.63 1219.47 1539.65 Q1216.82 1542.68 1216.82 1547.9 L1216.82 1568.04 L1210.94 1568.04 L1210.94 1546.72 Q1210.94 1541.56 1209.12 1539.11 Q1207.31 1536.63 1203.52 1536.63 Q1199.03 1536.63 1196.39 1539.68 Q1193.75 1542.71 1193.75 1547.9 L1193.75 1568.04 L1187.86 1568.04 L1187.86 1532.4 L1193.75 1532.4 L1193.75 1537.93 Q1195.75 1534.66 1198.55 1533.1 Q1201.35 1531.54 1205.21 1531.54 Q1209.09 1531.54 1211.79 1533.51 Q1214.53 1535.48 1215.84 1539.24 Z" fill="#000000" fill-rule="nonzero" fill-opacity="1"></path><path clip-path="url(#clip910)" d="M1282.07 1548.76 L1282.07 1551.62 L1255.15 1551.62 Q1255.53 1557.67 1258.77 1560.85 Q1262.05 1564 1267.88 1564 Q1271.25 1564 1274.4 1563.17 Q1277.58 1562.35 1280.7 1560.69 L1280.7 1566.23 Q1277.55 1567.57 1274.24 1568.27 Q1270.93 1568.97 1267.53 1568.97 Q1259 1568.97 1254 1564 Q1249.03 1559.04 1249.03 1550.57 Q1249.03 1541.82 1253.74 1536.69 Q1258.49 1531.54 1266.51 1531.54 Q1273.7 1531.54 1277.87 1536.18 Q1282.07 1540.8 1282.07 1548.76 M1276.22 1547.04 Q1276.15 1542.23 1273.51 1539.37 Q1270.9 1536.5 1266.57 1536.5 Q1261.67 1536.5 1258.71 1539.27 Q1255.78 1542.04 1255.34 1547.07 L1276.22 1547.04 Z" fill="#000000" fill-rule="nonzero" fill-opacity="1"></path><path clip-path="url(#clip910)" d="M1312.4 1532.4 L1318.26 1532.4 L1318.26 1568.04 L1312.4 1568.04 L1312.4 1532.4 M1312.4 1518.52 L1318.26 1518.52 L1318.26 1525.93 L1312.4 1525.93 L1312.4 1518.52 Z" fill="#000000" fill-rule="nonzero" fill-opacity="1"></path><path clip-path="url(#clip910)" d="M1360.15 1546.53 L1360.15 1568.04 L1354.29 1568.04 L1354.29 1546.72 Q1354.29 1541.66 1352.32 1539.14 Q1350.34 1536.63 1346.4 1536.63 Q1341.66 1536.63 1338.92 1539.65 Q1336.18 1542.68 1336.18 1547.9 L1336.18 1568.04 L1330.29 1568.04 L1330.29 1532.4 L1336.18 1532.4 L1336.18 1537.93 Q1338.28 1534.72 1341.11 1533.13 Q1343.98 1531.54 1347.7 1531.54 Q1353.85 1531.54 1357 1535.36 Q1360.15 1539.14 1360.15 1546.53 Z" fill="#000000" fill-rule="nonzero" fill-opacity="1"></path><path clip-path="url(#clip910)" d="M1415.27 1533.45 L1415.27 1538.98 Q1412.79 1537.71 1410.12 1537.07 Q1407.44 1536.44 1404.58 1536.44 Q1400.22 1536.44 1398.02 1537.77 Q1395.86 1539.11 1395.86 1541.79 Q1395.86 1543.82 1397.42 1545 Q1398.98 1546.15 1403.69 1547.2 L1405.69 1547.64 Q1411.93 1548.98 1414.54 1551.43 Q1417.18 1553.85 1417.18 1558.21 Q1417.18 1563.17 1413.24 1566.07 Q1409.32 1568.97 1402.45 1568.97 Q1399.58 1568.97 1396.46 1568.39 Q1393.38 1567.85 1389.94 1566.74 L1389.94 1560.69 Q1393.19 1562.38 1396.34 1563.24 Q1399.49 1564.07 1402.57 1564.07 Q1406.71 1564.07 1408.94 1562.66 Q1411.17 1561.23 1411.17 1558.65 Q1411.17 1556.27 1409.55 1554.99 Q1407.95 1553.72 1402.51 1552.54 L1400.47 1552.07 Q1395.03 1550.92 1392.61 1548.56 Q1390.19 1546.18 1390.19 1542.04 Q1390.19 1537.01 1393.76 1534.27 Q1397.32 1531.54 1403.88 1531.54 Q1407.13 1531.54 1409.99 1532.01 Q1412.86 1532.49 1415.27 1533.45 Z" fill="#000000" fill-rule="nonzero" fill-opacity="1"></path><polyline clip-path="url(#clip910)" style="stroke:#000000; stroke-linecap:round; stroke-linejoin:round; stroke-width:4; stroke-opacity:1; fill:none" points="204.45,1423.18 204.45,47.2441 "></polyline>
<polyline clip-path="url(#clip910)" style="stroke:#000000; stroke-linecap:round; stroke-linejoin:round; stroke-width:4; stroke-opacity:1; fill:none" points="204.45,1318.44 223.347,1318.44 "></polyline>
<polyline clip-path="url(#clip910)" style="stroke:#000000; stroke-linecap:round; stroke-linejoin:round; stroke-width:4; stroke-opacity:1; fill:none" points="204.45,1005.63 223.347,1005.63 "></polyline>
<polyline clip-path="url(#clip910)" style="stroke:#000000; stroke-linecap:round; stroke-linejoin:round; stroke-width:4; stroke-opacity:1; fill:none" points="204.45,692.826 223.347,692.826 "></polyline>
<polyline clip-path="url(#clip910)" style="stroke:#000000; stroke-linecap:round; stroke-linejoin:round; stroke-width:4; stroke-opacity:1; fill:none" points="204.45,380.019 223.347,380.019 "></polyline>
<polyline clip-path="url(#clip910)" style="stroke:#000000; stroke-linecap:round; stroke-linejoin:round; stroke-width:4; stroke-opacity:1; fill:none" points="204.45,67.2126 223.347,67.2126 "></polyline>
<path clip-path="url(#clip910)" d="M116.992 1331.78 L124.63 1331.78 L124.63 1305.42 L116.32 1307.08 L116.32 1302.83 L124.584 1301.16 L129.26 1301.16 L129.26 1331.78 L136.899 1331.78 L136.899 1335.72 L116.992 1335.72 L116.992 1331.78 Z" fill="#000000" fill-rule="nonzero" fill-opacity="1"></path><path clip-path="url(#clip910)" d="M156.922 1316.58 Q153.774 1316.58 151.922 1318.73 Q150.093 1320.88 150.093 1324.63 Q150.093 1328.36 151.922 1330.53 Q153.774 1332.69 156.922 1332.69 Q160.07 1332.69 161.899 1330.53 Q163.751 1328.36 163.751 1324.63 Q163.751 1320.88 161.899 1318.73 Q160.07 1316.58 156.922 1316.58 M166.204 1301.92 L166.204 1306.18 Q164.445 1305.35 162.64 1304.91 Q160.857 1304.47 159.098 1304.47 Q154.468 1304.47 152.015 1307.59 Q149.584 1310.72 149.237 1317.04 Q150.603 1315.02 152.663 1313.96 Q154.723 1312.87 157.2 1312.87 Q162.408 1312.87 165.417 1316.04 Q168.45 1319.19 168.45 1324.63 Q168.45 1329.96 165.302 1333.17 Q162.153 1336.39 156.922 1336.39 Q150.927 1336.39 147.755 1331.81 Q144.584 1327.2 144.584 1318.47 Q144.584 1310.28 148.473 1305.42 Q152.362 1300.53 158.913 1300.53 Q160.672 1300.53 162.454 1300.88 Q164.26 1301.23 166.204 1301.92 Z" fill="#000000" fill-rule="nonzero" fill-opacity="1"></path><path clip-path="url(#clip910)" d="M117.246 1018.98 L124.885 1018.98 L124.885 992.612 L116.575 994.278 L116.575 990.019 L124.839 988.352 L129.515 988.352 L129.515 1018.98 L137.154 1018.98 L137.154 1022.91 L117.246 1022.91 L117.246 1018.98 Z" fill="#000000" fill-rule="nonzero" fill-opacity="1"></path><path clip-path="url(#clip910)" d="M156.598 1006.5 Q153.265 1006.5 151.343 1008.28 Q149.445 1010.07 149.445 1013.19 Q149.445 1016.32 151.343 1018.1 Q153.265 1019.88 156.598 1019.88 Q159.931 1019.88 161.852 1018.1 Q163.774 1016.29 163.774 1013.19 Q163.774 1010.07 161.852 1008.28 Q159.954 1006.5 156.598 1006.5 M151.922 1004.51 Q148.913 1003.77 147.223 1001.71 Q145.556 999.649 145.556 996.686 Q145.556 992.542 148.496 990.135 Q151.459 987.727 156.598 987.727 Q161.76 987.727 164.7 990.135 Q167.64 992.542 167.64 996.686 Q167.64 999.649 165.95 1001.71 Q164.283 1003.77 161.297 1004.51 Q164.677 1005.3 166.552 1007.59 Q168.45 1009.88 168.45 1013.19 Q168.45 1018.21 165.371 1020.9 Q162.315 1023.58 156.598 1023.58 Q150.88 1023.58 147.802 1020.9 Q144.746 1018.21 144.746 1013.19 Q144.746 1009.88 146.644 1007.59 Q148.542 1005.3 151.922 1004.51 M150.209 997.126 Q150.209 999.811 151.876 1001.32 Q153.566 1002.82 156.598 1002.82 Q159.607 1002.82 161.297 1001.32 Q163.01 999.811 163.01 997.126 Q163.01 994.44 161.297 992.936 Q159.607 991.431 156.598 991.431 Q153.566 991.431 151.876 992.936 Q150.209 994.44 150.209 997.126 Z" fill="#000000" fill-rule="nonzero" fill-opacity="1"></path><path clip-path="url(#clip910)" d="M120.371 706.171 L136.691 706.171 L136.691 710.106 L114.746 710.106 L114.746 706.171 Q117.408 703.416 121.992 698.786 Q126.598 694.134 127.779 692.791 Q130.024 690.268 130.904 688.532 Q131.806 686.773 131.806 685.083 Q131.806 682.328 129.862 680.592 Q127.941 678.856 124.839 678.856 Q122.64 678.856 120.186 679.62 Q117.756 680.384 114.978 681.935 L114.978 677.212 Q117.802 676.078 120.255 675.5 Q122.709 674.921 124.746 674.921 Q130.117 674.921 133.311 677.606 Q136.505 680.291 136.505 684.782 Q136.505 686.912 135.695 688.833 Q134.908 690.731 132.802 693.324 Q132.223 693.995 129.121 697.212 Q126.019 700.407 120.371 706.171 Z" fill="#000000" fill-rule="nonzero" fill-opacity="1"></path><path clip-path="url(#clip910)" d="M156.505 678.625 Q152.894 678.625 151.066 682.189 Q149.26 685.731 149.26 692.861 Q149.26 699.967 151.066 703.532 Q152.894 707.073 156.505 707.073 Q160.14 707.073 161.945 703.532 Q163.774 699.967 163.774 692.861 Q163.774 685.731 161.945 682.189 Q160.14 678.625 156.505 678.625 M156.505 674.921 Q162.315 674.921 165.371 679.527 Q168.45 684.111 168.45 692.861 Q168.45 701.587 165.371 706.194 Q162.315 710.777 156.505 710.777 Q150.695 710.777 147.616 706.194 Q144.561 701.587 144.561 692.861 Q144.561 684.111 147.616 679.527 Q150.695 674.921 156.505 674.921 Z" fill="#000000" fill-rule="nonzero" fill-opacity="1"></path><path clip-path="url(#clip910)" d="M121.968 393.364 L138.288 393.364 L138.288 397.299 L116.343 397.299 L116.343 393.364 Q119.006 390.609 123.589 385.98 Q128.195 381.327 129.376 379.984 Q131.621 377.461 132.501 375.725 Q133.404 373.966 133.404 372.276 Q133.404 369.522 131.459 367.785 Q129.538 366.049 126.436 366.049 Q124.237 366.049 121.783 366.813 Q119.353 367.577 116.575 369.128 L116.575 364.406 Q119.399 363.272 121.853 362.693 Q124.306 362.114 126.343 362.114 Q131.714 362.114 134.908 364.799 Q138.103 367.485 138.103 371.975 Q138.103 374.105 137.292 376.026 Q136.505 377.924 134.399 380.517 Q133.82 381.188 130.718 384.406 Q127.617 387.6 121.968 393.364 Z" fill="#000000" fill-rule="nonzero" fill-opacity="1"></path><path clip-path="url(#clip910)" d="M152.13 393.364 L168.45 393.364 L168.45 397.299 L146.505 397.299 L146.505 393.364 Q149.167 390.609 153.751 385.98 Q158.357 381.327 159.538 379.984 Q161.783 377.461 162.663 375.725 Q163.565 373.966 163.565 372.276 Q163.565 369.522 161.621 367.785 Q159.7 366.049 156.598 366.049 Q154.399 366.049 151.945 366.813 Q149.515 367.577 146.737 369.128 L146.737 364.406 Q149.561 363.272 152.015 362.693 Q154.468 362.114 156.505 362.114 Q161.876 362.114 165.07 364.799 Q168.264 367.485 168.264 371.975 Q168.264 374.105 167.454 376.026 Q166.667 377.924 164.561 380.517 Q163.982 381.188 160.88 384.406 Q157.778 387.6 152.13 393.364 Z" fill="#000000" fill-rule="nonzero" fill-opacity="1"></path><path clip-path="url(#clip910)" d="M119.885 80.5574 L136.204 80.5574 L136.204 84.4926 L114.26 84.4926 L114.26 80.5574 Q116.922 77.8028 121.505 73.1732 Q126.112 68.5205 127.292 67.1779 Q129.538 64.6547 130.417 62.9186 Q131.32 61.1594 131.32 59.4696 Q131.32 56.715 129.376 54.9789 Q127.455 53.2428 124.353 53.2428 Q122.154 53.2428 119.7 54.0067 Q117.269 54.7705 114.492 56.3215 L114.492 51.5993 Q117.316 50.465 119.769 49.8863 Q122.223 49.3076 124.26 49.3076 Q129.63 49.3076 132.825 51.9928 Q136.019 54.6779 136.019 59.1687 Q136.019 61.2983 135.209 63.2196 Q134.422 65.1177 132.316 67.7103 Q131.737 68.3816 128.635 71.5992 Q125.533 74.7936 119.885 80.5574 Z" fill="#000000" fill-rule="nonzero" fill-opacity="1"></path><path clip-path="url(#clip910)" d="M158.866 54.0067 L147.061 72.4556 L158.866 72.4556 L158.866 54.0067 M157.64 49.9326 L163.519 49.9326 L163.519 72.4556 L168.45 72.4556 L168.45 76.3445 L163.519 76.3445 L163.519 84.4926 L158.866 84.4926 L158.866 76.3445 L143.265 76.3445 L143.265 71.8306 L157.64 49.9326 Z" fill="#000000" fill-rule="nonzero" fill-opacity="1"></path><path clip-path="url(#clip910)" d="M46.0847 1033.97 Q46.0847 1041.07 47.7079 1043.81 Q49.3312 1046.54 53.2461 1046.54 Q56.3653 1046.54 58.2114 1044.51 Q60.0256 1042.44 60.0256 1038.9 Q60.0256 1034.03 56.5881 1031.11 Q53.1188 1028.15 47.3897 1028.15 L46.0847 1028.15 L46.0847 1033.97 M43.6657 1022.29 L64.0042 1022.29 L64.0042 1028.15 L58.5933 1028.15 Q61.8398 1030.15 63.3994 1033.14 Q64.9272 1036.13 64.9272 1040.46 Q64.9272 1045.94 61.8716 1049.18 Q58.7843 1052.4 53.6281 1052.4 Q47.6125 1052.4 44.5569 1048.39 Q41.5014 1044.35 41.5014 1036.36 L41.5014 1028.15 L40.9285 1028.15 Q36.8862 1028.15 34.6901 1030.82 Q32.4621 1033.46 32.4621 1038.27 Q32.4621 1041.32 33.1941 1044.22 Q33.9262 1047.12 35.3903 1049.79 L29.9795 1049.79 Q28.7381 1046.57 28.1334 1043.55 Q27.4968 1040.53 27.4968 1037.66 Q27.4968 1029.93 31.5072 1026.11 Q35.5176 1022.29 43.6657 1022.29 Z" fill="#000000" fill-rule="nonzero" fill-opacity="1"></path><path clip-path="url(#clip910)" d="M29.7248 984.573 L35.1993 984.573 Q33.8307 987.055 33.1623 989.57 Q32.4621 992.052 32.4621 994.599 Q32.4621 1000.3 36.0905 1003.45 Q39.6872 1006.6 46.212 1006.6 Q52.7369 1006.6 56.3653 1003.45 Q59.9619 1000.3 59.9619 994.599 Q59.9619 992.052 59.2935 989.57 Q58.5933 987.055 57.2247 984.573 L62.6355 984.573 Q63.7814 987.023 64.3543 989.665 Q64.9272 992.275 64.9272 995.235 Q64.9272 1003.29 59.8664 1008.03 Q54.8057 1012.77 46.212 1012.77 Q37.491 1012.77 32.4939 1008 Q27.4968 1003.19 27.4968 994.853 Q27.4968 992.148 28.0697 989.57 Q28.6108 986.992 29.7248 984.573 Z" fill="#000000" fill-rule="nonzero" fill-opacity="1"></path><path clip-path="url(#clip910)" d="M18.2347 968.595 L28.3562 968.595 L28.3562 956.532 L32.9077 956.532 L32.9077 968.595 L52.2594 968.595 Q56.6199 968.595 57.8613 967.417 Q59.1026 966.208 59.1026 962.547 L59.1026 956.532 L64.0042 956.532 L64.0042 962.547 Q64.0042 969.327 61.4897 971.905 Q58.9434 974.483 52.2594 974.483 L32.9077 974.483 L32.9077 978.78 L28.3562 978.78 L28.3562 974.483 L18.2347 974.483 L18.2347 968.595 Z" fill="#000000" fill-rule="nonzero" fill-opacity="1"></path><path clip-path="url(#clip910)" d="M28.3562 948.829 L28.3562 942.973 L64.0042 942.973 L64.0042 948.829 L28.3562 948.829 M14.479 948.829 L14.479 942.973 L21.895 942.973 L21.895 948.829 L14.479 948.829 Z" fill="#000000" fill-rule="nonzero" fill-opacity="1"></path><path clip-path="url(#clip910)" d="M28.3562 934.92 L28.3562 928.714 L58.275 917.574 L28.3562 906.434 L28.3562 900.227 L64.0042 913.595 L64.0042 921.552 L28.3562 934.92 Z" fill="#000000" fill-rule="nonzero" fill-opacity="1"></path><path clip-path="url(#clip910)" d="M44.7161 861.651 L47.5806 861.651 L47.5806 888.578 Q53.6281 888.196 56.8109 884.949 Q59.9619 881.671 59.9619 875.846 Q59.9619 872.473 59.1344 869.321 Q58.3069 866.139 56.6518 863.019 L62.1899 863.019 Q63.5267 866.17 64.227 869.481 Q64.9272 872.791 64.9272 876.196 Q64.9272 884.727 59.9619 889.724 Q54.9967 894.689 46.5303 894.689 Q37.7774 894.689 32.6531 889.978 Q27.4968 885.236 27.4968 877.215 Q27.4968 870.022 32.1438 865.852 Q36.7589 861.651 44.7161 861.651 M42.9973 867.507 Q38.1912 867.571 35.3266 870.213 Q32.4621 872.823 32.4621 877.151 Q32.4621 882.053 35.2312 885.013 Q38.0002 887.941 43.0292 888.387 L42.9973 867.507 Z" fill="#000000" fill-rule="nonzero" fill-opacity="1"></path><path clip-path="url(#clip910)" d="M58.657 825.653 L77.5631 825.653 L77.5631 831.541 L28.3562 831.541 L28.3562 825.653 L33.7671 825.653 Q30.5842 823.807 29.0564 821.006 Q27.4968 818.173 27.4968 814.258 Q27.4968 807.765 32.6531 803.723 Q37.8093 799.649 46.212 799.649 Q54.6147 799.649 59.771 803.723 Q64.9272 807.765 64.9272 814.258 Q64.9272 818.173 63.3994 821.006 Q61.8398 823.807 58.657 825.653 M46.212 805.728 Q39.7508 805.728 36.0905 808.402 Q32.3984 811.043 32.3984 815.69 Q32.3984 820.337 36.0905 823.011 Q39.7508 825.653 46.212 825.653 Q52.6732 825.653 56.3653 823.011 Q60.0256 820.337 60.0256 815.69 Q60.0256 811.043 56.3653 808.402 Q52.6732 805.728 46.212 805.728 Z" fill="#000000" fill-rule="nonzero" fill-opacity="1"></path><path clip-path="url(#clip910)" d="M32.4621 776.128 Q32.4621 780.838 36.1542 783.575 Q39.8145 786.313 46.212 786.313 Q52.6095 786.313 56.3017 783.607 Q59.9619 780.87 59.9619 776.128 Q59.9619 771.449 56.2698 768.711 Q52.5777 765.974 46.212 765.974 Q39.8781 765.974 36.186 768.711 Q32.4621 771.449 32.4621 776.128 M27.4968 776.128 Q27.4968 768.489 32.4621 764.128 Q37.4273 759.768 46.212 759.768 Q54.9649 759.768 59.9619 764.128 Q64.9272 768.489 64.9272 776.128 Q64.9272 783.798 59.9619 788.159 Q54.9649 792.487 46.212 792.487 Q37.4273 792.487 32.4621 788.159 Q27.4968 783.798 27.4968 776.128 Z" fill="#000000" fill-rule="nonzero" fill-opacity="1"></path><path clip-path="url(#clip910)" d="M28.3562 753.466 L28.3562 747.609 L56.1743 740.289 L28.3562 733 L28.3562 726.093 L56.1743 718.773 L28.3562 711.484 L28.3562 705.627 L64.0042 714.953 L64.0042 721.86 L34.7856 729.531 L64.0042 737.233 L64.0042 744.14 L28.3562 753.466 Z" fill="#000000" fill-rule="nonzero" fill-opacity="1"></path><path clip-path="url(#clip910)" d="M44.7161 666.255 L47.5806 666.255 L47.5806 693.182 Q53.6281 692.8 56.8109 689.554 Q59.9619 686.276 59.9619 680.451 Q59.9619 677.077 59.1344 673.926 Q58.3069 670.743 56.6518 667.624 L62.1899 667.624 Q63.5267 670.775 64.227 674.085 Q64.9272 677.395 64.9272 680.801 Q64.9272 689.331 59.9619 694.328 Q54.9967 699.293 46.5303 699.293 Q37.7774 699.293 32.6531 694.583 Q27.4968 689.84 27.4968 681.82 Q27.4968 674.626 32.1438 670.457 Q36.7589 666.255 44.7161 666.255 M42.9973 672.112 Q38.1912 672.176 35.3266 674.817 Q32.4621 677.427 32.4621 681.756 Q32.4621 686.658 35.2312 689.618 Q38.0002 692.546 43.0292 692.991 L42.9973 672.112 Z" fill="#000000" fill-rule="nonzero" fill-opacity="1"></path><path clip-path="url(#clip910)" d="M33.8307 635.987 Q33.2578 636.973 33.0032 638.151 Q32.7167 639.297 32.7167 640.697 Q32.7167 645.662 35.9632 648.336 Q39.1779 650.978 45.2253 650.978 L64.0042 650.978 L64.0042 656.866 L28.3562 656.866 L28.3562 650.978 L33.8944 650.978 Q30.6479 649.132 29.0883 646.172 Q27.4968 643.212 27.4968 638.978 Q27.4968 638.374 27.5923 637.642 Q27.656 636.91 27.8151 636.018 L33.8307 635.987 Z" fill="#000000" fill-rule="nonzero" fill-opacity="1"></path><path clip-path="url(#clip910)" d="M28.3562 609.123 L28.3562 603.267 L64.0042 603.267 L64.0042 609.123 L28.3562 609.123 M14.479 609.123 L14.479 603.267 L21.895 603.267 L21.895 609.123 L14.479 609.123 Z" fill="#000000" fill-rule="nonzero" fill-opacity="1"></path><path clip-path="url(#clip910)" d="M42.4881 561.38 L64.0042 561.38 L64.0042 567.237 L42.679 567.237 Q37.6183 567.237 35.1038 569.21 Q32.5894 571.184 32.5894 575.13 Q32.5894 579.873 35.6131 582.61 Q38.6368 585.347 43.8567 585.347 L64.0042 585.347 L64.0042 591.236 L28.3562 591.236 L28.3562 585.347 L33.8944 585.347 Q30.6797 583.247 29.0883 580.414 Q27.4968 577.549 27.4968 573.825 Q27.4968 567.682 31.3163 564.531 Q35.1038 561.38 42.4881 561.38 Z" fill="#000000" fill-rule="nonzero" fill-opacity="1"></path><path clip-path="url(#clip910)" d="M58.657 523.314 L77.5631 523.314 L77.5631 529.202 L28.3562 529.202 L28.3562 523.314 L33.7671 523.314 Q30.5842 521.467 29.0564 518.667 Q27.4968 515.834 27.4968 511.919 Q27.4968 505.426 32.6531 501.384 Q37.8093 497.31 46.212 497.31 Q54.6147 497.31 59.771 501.384 Q64.9272 505.426 64.9272 511.919 Q64.9272 515.834 63.3994 518.667 Q61.8398 521.467 58.657 523.314 M46.212 503.389 Q39.7508 503.389 36.0905 506.062 Q32.3984 508.704 32.3984 513.351 Q32.3984 517.998 36.0905 520.672 Q39.7508 523.314 46.212 523.314 Q52.6732 523.314 56.3653 520.672 Q60.0256 517.998 60.0256 513.351 Q60.0256 508.704 56.3653 506.062 Q52.6732 503.389 46.212 503.389 Z" fill="#000000" fill-rule="nonzero" fill-opacity="1"></path><path clip-path="url(#clip910)" d="M55.9197 486.774 L55.9197 480.059 L64.0042 480.059 L64.0042 486.774 L55.9197 486.774 Z" fill="#000000" fill-rule="nonzero" fill-opacity="1"></path><path clip-path="url(#clip910)" d="M49.9359 467.486 L28.3562 467.486 L28.3562 461.63 L49.7131 461.63 Q54.7739 461.63 57.3202 459.656 Q59.8346 457.683 59.8346 453.736 Q59.8346 448.994 56.8109 446.257 Q53.7872 443.488 48.5673 443.488 L28.3562 443.488 L28.3562 437.631 L64.0042 437.631 L64.0042 443.488 L58.5296 443.488 Q61.7762 445.62 63.3676 448.453 Q64.9272 451.254 64.9272 454.978 Q64.9272 461.121 61.1078 464.303 Q57.2883 467.486 49.9359 467.486 M27.4968 452.75 L27.4968 452.75 Z" fill="#000000" fill-rule="nonzero" fill-opacity="1"></path><path clip-path="url(#clip910)" d="M55.9197 424.741 L55.9197 418.025 L64.0042 418.025 L64.0042 424.741 L55.9197 424.741 Z" fill="#000000" fill-rule="nonzero" fill-opacity="1"></path><polyline clip-path="url(#clip912)" style="stroke:#009af9; stroke-linecap:round; stroke-linejoin:round; stroke-width:8; stroke-opacity:1; fill:none" points="265.251,91.212 269.304,91.212 273.358,91.212 277.411,91.212 281.464,91.212 285.518,91.212 289.571,91.212 293.625,91.212 297.678,91.212 301.731,91.212 305.785,91.212 309.838,91.212 313.892,91.212 317.945,91.212 321.999,91.212 326.052,91.212 330.105,91.212 334.159,91.212 338.212,91.212 342.266,91.212 346.319,91.212 350.372,91.212 354.426,91.212 358.479,91.212 362.533,91.212 366.586,91.212 370.639,91.212 374.693,91.212 378.746,91.212 382.8,91.212 386.853,91.212 390.906,91.212 394.96,91.212 399.013,91.212 403.067,91.212 407.12,91.212 411.173,91.212 415.227,91.212 419.28,91.212 423.334,91.212 427.387,91.212 431.441,91.212 435.494,91.212 439.547,91.212 443.601,91.212 447.654,91.212 451.708,91.212 455.761,91.212 459.814,91.212 463.868,91.212 467.921,91.212 471.975,91.9645 476.028,88.6233 480.081,87.111 484.135,86.3234 488.188,86.1857 492.242,86.6142 496.295,87.4957 500.348,88.7473 504.402,90.1911 508.455,91.6904 512.509,93.0858 516.562,94.2763 520.616,95.1458 524.669,95.5896 528.722,95.5931 532.776,95.2344 536.829,94.5024 540.883,93.5552 544.936,92.363 548.989,90.7533 553.043,90.11 557.096,89.1777 561.15,88.2911 565.203,87.8948 569.256,87.6032 573.31,87.9286 577.363,88.1671 581.417,88.9599 585.47,89.7488 589.523,90.8358 593.577,91.9606 597.63,91.6724 601.684,92.7652 605.737,93.4413 609.79,93.5329 613.844,93.6861 617.897,93.5543 621.951,93.1911 626.004,92.6658 630.058,92.0902 634.111,91.3978 638.164,90.7775 642.218,90.062 646.271,89.6693 650.325,89.1146 654.378,89.0928 658.431,88.959 662.485,88.904 666.538,89.4209 670.592,89.2296 674.645,90.5456 678.698,89.8023 682.752,90.8341 686.805,91.4634 690.859,92.0239 694.912,92.7662 698.965,93.1701 703.019,93.4223 707.072,92.5361 711.126,93.3042 715.179,91.9964 719.232,93.4571 723.286,92.3469 727.339,91.5145 731.393,91.3148 735.446,89.7152 739.5,89.7622 743.553,89.118 747.606,90.2309 751.66,88.9574 755.713,91.011 759.767,90.2816 763.82,90.0215 767.873,90.6243 771.927,91.1599 775.98,90.9248 780.034,91.2614 784.087,91.5583 788.14,91.7985 792.194,91.9688 796.247,92.0699 800.301,92.0845 804.354,92.0486 808.407,91.9517 812.461,91.7976 816.514,91.5981 820.568,91.3683 824.621,91.1226 828.675,90.8789 832.728,90.6555 836.781,90.4681 840.835,90.3297 844.888,90.2498 848.942,90.233 852.995,90.2785 857.048,90.3814 861.102,90.5317 865.155,90.7172 869.209,90.9228 873.262,91.133 877.315,91.3321 881.369,91.5059 885.422,91.6424 889.476,91.733 893.529,91.7727 897.582,91.7608 901.636,91.6995 905.689,91.5953 909.743,91.4579 913.796,91.2972 917.849,91.1264 921.903,90.9587 925.956,90.8051 930.01,90.6748 934.063,90.5788 938.117,90.5236 942.17,90.5082 946.223,90.5324 950.277,90.5989 954.33,90.6976 958.384,90.8132 962.437,90.9456 966.49,91.0913 970.544,91.2215 974.597,91.3291 978.651,91.4338 982.704,91.5011 986.757,91.5084 990.811,91.5064 994.864,91.4931 998.918,91.4236 1002.97,91.3261 1007.02,91.2318 1011.08,91.1255 1015.13,91.0076 1019.18,90.9092 1023.24,90.8278 1027.29,90.7485 1031.34,90.6996 1035.4,90.7055 1039.45,90.7204 1043.51,90.7402 1047.56,90.8105 1051.61,90.8875 1055.67,90.965 1059.72,91.0571 1063.77,91.1507 1067.83,91.2277 1071.88,91.2918 1075.93,91.3434 1079.99,91.3689 1084.04,91.3653 1088.09,91.3497 1092.15,91.3207 1096.2,91.2598 1100.25,91.1887 1104.31,91.1275 1108.36,91.0559 1112.41,90.9675 1116.47,90.9092 1120.52,90.8857 1124.57,90.8462 1128.63,90.815 1132.68,90.8222 1136.73,90.8491 1140.79,90.8793 1144.84,90.9237 1148.89,90.9825 1152.95,91.0402 1157,91.0969 1161.05,91.1564 1165.11,91.2049 1169.16,91.2333 1173.21,91.2548 1177.27,91.2665 1181.32,91.2587 1185.37,91.2365 1189.43,91.2048 1193.48,91.1639 1197.53,91.1171 1201.59,91.0685 1205.64,91.0199 1209.69,90.9765 1213.75,90.9435 1217.8,90.9178 1221.86,90.8996 1225.91,90.8992 1229.96,90.9122 1234.02,90.93 1238.07,90.9573 1242.12,90.9946 1246.18,91.0337 1250.23,91.0718 1254.28,91.1116 1258.34,91.146 1262.39,91.1686 1266.44,91.1859 1270.5,91.2001 1274.55,91.198 1278.6,91.1828 1282.66,91.1657 1286.71,91.1423 1290.76,91.1104 1294.82,91.0774 1298.87,91.0463 1302.92,91.015 1306.98,90.9878 1311.03,90.9703 1315.08,90.9587 1319.14,90.9503 1323.19,90.9538 1327.24,90.9677 1331.3,90.9825 1335.35,91.0042 1339.4,91.0313 1343.46,91.0579 1347.51,91.0832 1351.56,91.1077 1355.62,91.1279 1359.67,91.1416 1363.72,91.1506 1367.78,91.1542 1371.83,91.1482 1375.88,91.1364 1379.94,91.1234 1383.99,91.104 1388.04,91.0804 1392.1,91.0588 1396.15,91.0386 1400.21,91.0185 1404.26,91.0029 1408.31,90.9934 1412.37,90.987 1416.42,90.9845 1420.47,90.9917 1424.53,91.0046 1428.58,91.0161 1432.63,91.0316 1436.69,91.0505 1440.74,91.069 1444.79,91.0856 1448.85,91.1008 1452.9,91.1132 1456.95,91.1208 1461.01,91.1239 1465.06,91.1233 1469.11,91.1178 1473.17,91.1072 1477.22,91.095 1481.27,91.0822 1485.33,91.0659 1489.38,91.0481 1493.43,91.0352 1497.49,91.025 1501.54,91.0154 1505.59,91.0091 1509.65,91.0081 1513.7,91.0105 1517.75,91.0154 1521.81,91.0244 1525.86,91.0361 1529.91,91.0473 1533.97,91.0593 1538.02,91.074 1542.07,91.0857 1546.13,91.0924 1550.18,91.0995 1554.23,91.1048 1558.29,91.1045 1562.34,91.1008 1566.39,91.0961 1570.45,91.0881 1574.5,91.0772 1578.55,91.0674 1582.61,91.0583 1586.66,91.0462 1590.72,91.0351 1594.77,91.03 1598.82,91.0259 1602.88,91.0231 1606.93,91.0235 1610.98,91.0271 1615.04,91.0323 1619.09,91.0391 1623.14,91.0478 1627.2,91.0572 1631.25,91.0653 1635.3,91.0735 1639.36,91.0821 1643.41,91.0874 1647.46,91.0891 1651.52,91.0905 1655.57,91.0903 1659.62,91.0866 1663.68,91.081 1667.73,91.0751 1671.78,91.0676 1675.84,91.0592 1679.89,91.0524 1683.94,91.0468 1688,91.0401 1692.05,91.0354 1696.1,91.0351 1700.16,91.0346 1704.21,91.0349 1708.26,91.0386 1712.32,91.0441 1716.37,91.0487 1720.42,91.0545 1724.48,91.0631 1728.53,91.0693 1732.58,91.0715 1736.64,91.0759 1740.69,91.0807 1744.74,91.081 1748.8,91.0804 1752.85,91.0795 1756.9,91.0761 1760.96,91.0704 1765.01,91.0662 1769.07,91.062 1773.12,91.0555 1777.17,91.0498 1781.23,91.0478 1785.28,91.0443 1789.33,91.0413 1793.39,91.0411 1797.44,91.0428 1801.49,91.0446 1805.55,91.047 1809.6,91.0511 1813.65,91.0558 1817.71,91.0599 1821.76,91.0643 1825.81,91.0686 1829.87,91.0713 1833.92,91.0728 1837.97,91.0748 1842.03,91.0753 1846.08,91.073 1850.13,91.0712 1854.19,91.0693 1858.24,91.0656 1862.29,91.0614 1866.35,91.0583 1870.4,91.0554 1874.45,91.0513 1878.51,91.0494 1882.56,91.0489 1886.61,91.0469 1890.67,91.0463 1894.72,91.0495 1898.77,91.0512 1902.83,91.0524 1906.88,91.0558 1910.93,91.0597 1914.99,91.0618 1919.04,91.0638 1923.09,91.0682 1927.15,91.0704 1931.2,91.069 1935.25,91.0712 1939.31,91.0721 1943.36,91.0685 1947.42,91.0665 1951.47,91.0649 1955.52,91.062 1959.58,91.059 1963.63,91.0573 1967.68,91.0553 1971.74,91.0522 1975.79,91.051 1979.84,91.0523 1983.9,91.0521 1987.95,91.0513 1992,91.0528 1996.06,91.0553 2000.11,91.0569 2004.16,91.0585 2008.22,91.0613 2012.27,91.0637 2016.32,91.0641 2020.38,91.0651 2024.43,91.0675 2028.48,91.067 2032.54,91.0664 2036.59,91.0663 2040.64,91.0653 2044.7,91.0634 2048.75,91.0618 2052.8,91.0603 2056.86,91.0584 2060.91,91.0565 2064.96,91.0557 2069.02,91.0552 2073.07,91.0538 2077.12,91.0534 2081.18,91.0551 2085.23,91.0553 2089.28,91.056 2093.34,91.0575 2097.39,91.0593 2101.44,91.0605 2105.5,91.0617 2109.55,91.0633 2113.6,91.0643 2117.66,91.0644 2121.71,91.0648 2125.77,91.0656 2129.82,91.065 2133.87,91.0636 2137.93,91.0629 2141.98,91.0622 2146.03,91.0607 2150.09,91.0593 2154.14,91.0586 2158.19,91.0579 2162.25,91.0564 2166.3,91.056 2170.35,91.057 2174.41,91.057 2178.46,91.0565 2182.51,91.0574 2186.57,91.0588 2190.62,91.0594 2194.67,91.0601 2198.73,91.0616 2202.78,91.0627 2206.83,91.0625 2210.89,91.0629 2214.94,91.0641 2218.99,91.0642 2223.05,91.0634 2227.1,91.0632 2231.15,91.063 2235.21,91.0618 2239.26,91.0607 2243.31,91.0608 2247.37,91.0603 2251.42,91.0581 2255.47,91.0576 2259.53,91.0586 2263.58,91.0583 2267.63,91.0575 2271.69,91.0581 2275.74,91.059 2279.79,91.059 2283.85,91.0592 2287.9,91.0607 2291.95,91.0613 "></polyline>
<polyline clip-path="url(#clip912)" style="stroke:#e26f46; stroke-linecap:round; stroke-linejoin:round; stroke-width:8; stroke-opacity:1; fill:none" points="265.251,1380.6 269.304,1380.6 273.358,1380.6 277.411,1380.6 281.464,1380.6 285.518,1380.6 289.571,1380.6 293.625,1380.6 297.678,1380.6 301.731,1380.6 305.785,1380.6 309.838,1380.6 313.892,1380.6 317.945,1380.6 321.999,1380.6 326.052,1380.6 330.105,1380.6 334.159,1380.6 338.212,1380.6 342.266,1380.6 346.319,1380.6 350.372,1380.6 354.426,1380.6 358.479,1380.6 362.533,1380.6 366.586,1380.6 370.639,1380.6 374.693,1380.6 378.746,1380.6 382.8,1380.6 386.853,1380.6 390.906,1380.6 394.96,1380.6 399.013,1380.6 403.067,1380.6 407.12,1380.6 411.173,1380.6 415.227,1380.6 419.28,1380.6 423.334,1380.6 427.387,1380.6 431.441,1380.6 435.494,1380.6 439.547,1380.6 443.601,1380.6 447.654,1380.6 451.708,1380.6 455.761,1380.6 459.814,1380.6 463.868,1380.6 467.921,1380.6 471.975,1382.83 476.028,1380.05 480.081,1378.71 484.135,1377.82 488.188,1377.24 492.242,1376.96 496.295,1376.97 500.348,1377.27 504.402,1377.83 508.455,1378.6 512.509,1379.53 516.562,1380.55 520.616,1381.59 524.669,1382.52 528.722,1383.29 532.776,1383.86 536.829,1384.18 540.883,1384.24 544.936,1383.97 548.989,1383.26 553.043,1382.84 557.096,1382.01 561.15,1381.01 565.203,1380.08 569.256,1379.15 573.31,1378.45 577.363,1377.81 581.417,1377.5 585.47,1377.39 589.523,1377.6 593.577,1378.05 597.63,1378.19 601.684,1379.04 605.737,1379.89 609.79,1380.61 613.844,1381.41 617.897,1382.08 621.951,1382.59 626.004,1382.91 630.058,1383.05 634.111,1382.96 638.164,1382.7 642.218,1382.22 646.271,1381.71 650.325,1381.01 654.378,1380.42 658.431,1379.77 662.485,1379.18 666.538,1378.84 670.592,1378.38 674.645,1378.57 678.698,1378.21 682.752,1378.59 686.805,1378.99 690.859,1379.48 694.912,1380.13 698.965,1380.71 703.019,1381.26 707.072,1381.41 711.126,1382.06 715.179,1381.93 719.232,1382.62 723.286,1382.34 727.339,1382.04 731.393,1381.84 735.446,1381.09 739.5,1380.82 743.553,1380.29 747.606,1380.3 751.66,1379.57 755.713,1379.94 759.767,1379.49 763.82,1379.26 767.873,1379.39 771.927,1379.57 775.98,1379.6 780.034,1379.87 784.087,1380.15 788.14,1380.42 792.194,1380.67 796.247,1380.89 800.301,1381.04 804.354,1381.16 808.407,1381.22 812.461,1381.23 816.514,1381.17 820.568,1381.07 824.621,1380.94 828.675,1380.77 832.728,1380.59 836.781,1380.42 840.835,1380.26 844.888,1380.13 848.942,1380.04 852.995,1379.99 857.048,1379.98 861.102,1380.02 865.155,1380.09 869.209,1380.19 873.262,1380.31 877.315,1380.43 881.369,1380.55 885.422,1380.66 889.476,1380.75 893.529,1380.81 897.582,1380.84 901.636,1380.84 905.689,1380.81 909.743,1380.76 913.796,1380.69 917.849,1380.62 921.903,1380.54 925.956,1380.46 930.01,1380.4 934.063,1380.35 938.117,1380.31 942.17,1380.3 946.223,1380.31 950.277,1380.32 954.33,1380.35 958.384,1380.4 962.437,1380.45 966.49,1380.49 970.544,1380.53 974.597,1380.57 978.651,1380.58 982.704,1380.59 986.757,1380.61 990.811,1380.61 994.864,1380.57 998.918,1380.55 1002.97,1380.54 1007.02,1380.51 1011.08,1380.48 1015.13,1380.46 1019.18,1380.45 1023.24,1380.44 1027.29,1380.44 1031.34,1380.46 1035.4,1380.47 1039.45,1380.47 1043.51,1380.5 1047.56,1380.51 1051.61,1380.52 1055.67,1380.53 1059.72,1380.54 1063.77,1380.53 1067.83,1380.52 1071.88,1380.51 1075.93,1380.5 1079.99,1380.48 1084.04,1380.46 1088.09,1380.46 1092.15,1380.45 1096.2,1380.43 1100.25,1380.45 1104.31,1380.45 1108.36,1380.46 1112.41,1380.49 1116.47,1380.51 1120.52,1380.52 1124.57,1380.53 1128.63,1380.56 1132.68,1380.57 1136.73,1380.56 1140.79,1380.56 1144.84,1380.56 1148.89,1380.54 1152.95,1380.52 1157,1380.5 1161.05,1380.48 1165.11,1380.44 1169.16,1380.43 1173.21,1380.42 1177.27,1380.4 1181.32,1380.4 1185.37,1380.42 1189.43,1380.43 1193.48,1380.44 1197.53,1380.47 1201.59,1380.49 1205.64,1380.51 1209.69,1380.54 1213.75,1380.57 1217.8,1380.58 1221.86,1380.58 1225.91,1380.58 1229.96,1380.58 1234.02,1380.57 1238.07,1380.54 1242.12,1380.52 1246.18,1380.5 1250.23,1380.47 1254.28,1380.44 1258.34,1380.43 1262.39,1380.41 1266.44,1380.4 1270.5,1380.4 1274.55,1380.41 1278.6,1380.42 1282.66,1380.44 1286.71,1380.47 1290.76,1380.49 1294.82,1380.51 1298.87,1380.54 1302.92,1380.56 1306.98,1380.57 1311.03,1380.58 1315.08,1380.58 1319.14,1380.57 1323.19,1380.56 1327.24,1380.54 1331.3,1380.52 1335.35,1380.5 1339.4,1380.47 1343.46,1380.45 1347.51,1380.43 1351.56,1380.42 1355.62,1380.41 1359.67,1380.41 1363.72,1380.41 1367.78,1380.43 1371.83,1380.44 1375.88,1380.46 1379.94,1380.48 1383.99,1380.51 1388.04,1380.53 1392.1,1380.54 1396.15,1380.56 1400.21,1380.56 1404.26,1380.57 1408.31,1380.56 1412.37,1380.55 1416.42,1380.54 1420.47,1380.52 1424.53,1380.5 1428.58,1380.48 1432.63,1380.46 1436.69,1380.45 1440.74,1380.44 1444.79,1380.43 1448.85,1380.43 1452.9,1380.43 1456.95,1380.44 1461.01,1380.45 1465.06,1380.46 1469.11,1380.48 1473.17,1380.5 1477.22,1380.51 1481.27,1380.53 1485.33,1380.54 1489.38,1380.54 1493.43,1380.55 1497.49,1380.54 1501.54,1380.54 1505.59,1380.53 1509.65,1380.52 1513.7,1380.5 1517.75,1380.49 1521.81,1380.48 1525.86,1380.46 1529.91,1380.45 1533.97,1380.45 1538.02,1380.44 1542.07,1380.44 1546.13,1380.45 1550.18,1380.46 1554.23,1380.47 1558.29,1380.48 1562.34,1380.49 1566.39,1380.5 1570.45,1380.51 1574.5,1380.52 1578.55,1380.53 1582.61,1380.53 1586.66,1380.53 1590.72,1380.53 1594.77,1380.52 1598.82,1380.51 1602.88,1380.5 1606.93,1380.49 1610.98,1380.48 1615.04,1380.48 1619.09,1380.47 1623.14,1380.46 1627.2,1380.46 1631.25,1380.46 1635.3,1380.46 1639.36,1380.46 1643.41,1380.47 1647.46,1380.48 1651.52,1380.49 1655.57,1380.49 1659.62,1380.5 1663.68,1380.51 1667.73,1380.51 1671.78,1380.51 1675.84,1380.51 1679.89,1380.51 1683.94,1380.51 1688,1380.51 1692.05,1380.5 1696.1,1380.5 1700.16,1380.49 1704.21,1380.48 1708.26,1380.48 1712.32,1380.47 1716.37,1380.47 1720.42,1380.47 1724.48,1380.47 1728.53,1380.47 1732.58,1380.48 1736.64,1380.48 1740.69,1380.48 1744.74,1380.49 1748.8,1380.49 1752.85,1380.5 1756.9,1380.5 1760.96,1380.5 1765.01,1380.5 1769.07,1380.5 1773.12,1380.5 1777.17,1380.5 1781.23,1380.5 1785.28,1380.5 1789.33,1380.49 1793.39,1380.49 1797.44,1380.49 1801.49,1380.48 1805.55,1380.48 1809.6,1380.48 1813.65,1380.48 1817.71,1380.48 1821.76,1380.48 1825.81,1380.48 1829.87,1380.48 1833.92,1380.49 1837.97,1380.49 1842.03,1380.49 1846.08,1380.49 1850.13,1380.5 1854.19,1380.5 1858.24,1380.5 1862.29,1380.5 1866.35,1380.5 1870.4,1380.5 1874.45,1380.49 1878.51,1380.49 1882.56,1380.49 1886.61,1380.49 1890.67,1380.49 1894.72,1380.49 1898.77,1380.48 1902.83,1380.48 1906.88,1380.48 1910.93,1380.48 1914.99,1380.49 1919.04,1380.49 1923.09,1380.49 1927.15,1380.49 1931.2,1380.49 1935.25,1380.49 1939.31,1380.49 1943.36,1380.49 1947.42,1380.49 1951.47,1380.49 1955.52,1380.49 1959.58,1380.49 1963.63,1380.49 1967.68,1380.49 1971.74,1380.49 1975.79,1380.49 1979.84,1380.49 1983.9,1380.49 1987.95,1380.49 1992,1380.49 1996.06,1380.49 2000.11,1380.49 2004.16,1380.49 2008.22,1380.49 2012.27,1380.49 2016.32,1380.49 2020.38,1380.49 2024.43,1380.49 2028.48,1380.49 2032.54,1380.49 2036.59,1380.49 2040.64,1380.49 2044.7,1380.49 2048.75,1380.49 2052.8,1380.49 2056.86,1380.49 2060.91,1380.49 2064.96,1380.49 2069.02,1380.49 2073.07,1380.49 2077.12,1380.49 2081.18,1380.49 2085.23,1380.49 2089.28,1380.49 2093.34,1380.49 2097.39,1380.49 2101.44,1380.49 2105.5,1380.49 2109.55,1380.49 2113.6,1380.49 2117.66,1380.49 2121.71,1380.49 2125.77,1380.49 2129.82,1380.49 2133.87,1380.49 2137.93,1380.49 2141.98,1380.49 2146.03,1380.49 2150.09,1380.49 2154.14,1380.49 2158.19,1380.49 2162.25,1380.49 2166.3,1380.49 2170.35,1380.49 2174.41,1380.49 2178.46,1380.49 2182.51,1380.49 2186.57,1380.49 2190.62,1380.49 2194.67,1380.49 2198.73,1380.49 2202.78,1380.49 2206.83,1380.49 2210.89,1380.49 2214.94,1380.49 2218.99,1380.49 2223.05,1380.49 2227.1,1380.49 2231.15,1380.49 2235.21,1380.49 2239.26,1380.49 2243.31,1380.49 2247.37,1380.49 2251.42,1380.49 2255.47,1380.49 2259.53,1380.49 2263.58,1380.49 2267.63,1380.49 2271.69,1380.49 2275.74,1380.49 2279.79,1380.49 2283.85,1380.49 2287.9,1380.49 2291.95,1380.49 "></polyline>
<path clip-path="url(#clip910)" d="M276.06 248.629 L837.741 248.629 L837.741 93.1086 L276.06 93.1086  Z" fill="#ffffff" fill-rule="evenodd" fill-opacity="1"></path>
<polyline clip-path="url(#clip910)" style="stroke:#000000; stroke-linecap:round; stroke-linejoin:round; stroke-width:4; stroke-opacity:1; fill:none" points="276.06,248.629 837.741,248.629 837.741,93.1086 276.06,93.1086 276.06,248.629 "></polyline>
<polyline clip-path="url(#clip910)" style="stroke:#009af9; stroke-linecap:round; stroke-linejoin:round; stroke-width:8; stroke-opacity:1; fill:none" points="299.93,144.949 443.15,144.949 "></polyline>
<path clip-path="url(#clip910)" d="M471.696 131.511 L471.696 158.386 L477.344 158.386 Q484.497 158.386 487.807 155.145 Q491.141 151.905 491.141 144.914 Q491.141 137.969 487.807 134.752 Q484.497 131.511 477.344 131.511 L471.696 131.511 M467.02 127.669 L476.627 127.669 Q486.673 127.669 491.372 131.858 Q496.071 136.025 496.071 144.914 Q496.071 153.849 491.349 158.039 Q486.627 162.229 476.627 162.229 L467.02 162.229 L467.02 127.669 Z" fill="#000000" fill-rule="nonzero" fill-opacity="1"></path><path clip-path="url(#clip910)" d="M503.525 127.669 L525.377 127.669 L525.377 131.604 L508.201 131.604 L508.201 141.835 L524.659 141.835 L524.659 145.77 L508.201 145.77 L508.201 158.293 L525.793 158.293 L525.793 162.229 L503.525 162.229 L503.525 127.669 Z" fill="#000000" fill-rule="nonzero" fill-opacity="1"></path><path clip-path="url(#clip910)" d="M543.895 130.747 Q540.284 130.747 538.455 134.312 Q536.65 137.854 536.65 144.983 Q536.65 152.09 538.455 155.655 Q540.284 159.196 543.895 159.196 Q547.529 159.196 549.335 155.655 Q551.164 152.09 551.164 144.983 Q551.164 137.854 549.335 134.312 Q547.529 130.747 543.895 130.747 M543.895 127.044 Q549.705 127.044 552.761 131.65 Q555.839 136.233 555.839 144.983 Q555.839 153.71 552.761 158.317 Q549.705 162.9 543.895 162.9 Q538.085 162.9 535.006 158.317 Q531.951 153.71 531.951 144.983 Q531.951 136.233 535.006 131.65 Q538.085 127.044 543.895 127.044 Z" fill="#000000" fill-rule="nonzero" fill-opacity="1"></path><path clip-path="url(#clip910)" d="M591.973 131.743 L580.168 150.192 L591.973 150.192 L591.973 131.743 M590.747 127.669 L596.626 127.669 L596.626 150.192 L601.557 150.192 L601.557 154.081 L596.626 154.081 L596.626 162.229 L591.973 162.229 L591.973 154.081 L576.372 154.081 L576.372 149.567 L590.747 127.669 Z" fill="#000000" fill-rule="nonzero" fill-opacity="1"></path><path clip-path="url(#clip910)" d="M642.367 149.289 Q642.367 144.59 640.422 141.928 Q638.501 139.243 635.121 139.243 Q631.742 139.243 629.797 141.928 Q627.876 144.59 627.876 149.289 Q627.876 153.988 629.797 156.673 Q631.742 159.335 635.121 159.335 Q638.501 159.335 640.422 156.673 Q642.367 153.988 642.367 149.289 M627.876 140.238 Q629.219 137.923 631.256 136.812 Q633.316 135.678 636.163 135.678 Q640.885 135.678 643.825 139.428 Q646.788 143.178 646.788 149.289 Q646.788 155.4 643.825 159.15 Q640.885 162.9 636.163 162.9 Q633.316 162.9 631.256 161.789 Q629.219 160.655 627.876 158.34 L627.876 162.229 L623.594 162.229 L623.594 126.21 L627.876 126.21 L627.876 140.238 Z" fill="#000000" fill-rule="nonzero" fill-opacity="1"></path><path clip-path="url(#clip910)" d="M653.848 136.303 L658.107 136.303 L658.107 162.229 L653.848 162.229 L653.848 136.303 M653.848 126.21 L658.107 126.21 L658.107 131.604 L653.848 131.604 L653.848 126.21 Z" fill="#000000" fill-rule="nonzero" fill-opacity="1"></path><path clip-path="url(#clip910)" d="M677.066 139.289 Q673.64 139.289 671.649 141.974 Q669.658 144.636 669.658 149.289 Q669.658 153.942 671.626 156.627 Q673.617 159.289 677.066 159.289 Q680.468 159.289 682.459 156.604 Q684.45 153.918 684.45 149.289 Q684.45 144.682 682.459 141.997 Q680.468 139.289 677.066 139.289 M677.066 135.678 Q682.621 135.678 685.792 139.289 Q688.964 142.9 688.964 149.289 Q688.964 155.655 685.792 159.289 Q682.621 162.9 677.066 162.9 Q671.487 162.9 668.316 159.289 Q665.168 155.655 665.168 149.289 Q665.168 142.9 668.316 139.289 Q671.487 135.678 677.066 135.678 Z" fill="#000000" fill-rule="nonzero" fill-opacity="1"></path><path clip-path="url(#clip910)" d="M716.209 141.28 Q717.806 138.409 720.028 137.044 Q722.251 135.678 725.26 135.678 Q729.311 135.678 731.51 138.525 Q733.709 141.349 733.709 146.581 L733.709 162.229 L729.426 162.229 L729.426 146.719 Q729.426 142.993 728.107 141.187 Q726.788 139.382 724.079 139.382 Q720.769 139.382 718.848 141.581 Q716.927 143.78 716.927 147.576 L716.927 162.229 L712.644 162.229 L712.644 146.719 Q712.644 142.969 711.325 141.187 Q710.005 139.382 707.251 139.382 Q703.987 139.382 702.065 141.604 Q700.144 143.803 700.144 147.576 L700.144 162.229 L695.862 162.229 L695.862 136.303 L700.144 136.303 L700.144 140.331 Q701.603 137.946 703.64 136.812 Q705.677 135.678 708.477 135.678 Q711.302 135.678 713.269 137.113 Q715.26 138.548 716.209 141.28 Z" fill="#000000" fill-rule="nonzero" fill-opacity="1"></path><path clip-path="url(#clip910)" d="M753.986 149.196 Q748.824 149.196 746.834 150.377 Q744.843 151.557 744.843 154.405 Q744.843 156.673 746.325 158.016 Q747.829 159.335 750.399 159.335 Q753.94 159.335 756.07 156.835 Q758.223 154.312 758.223 150.145 L758.223 149.196 L753.986 149.196 M762.482 147.437 L762.482 162.229 L758.223 162.229 L758.223 158.293 Q756.764 160.655 754.588 161.789 Q752.412 162.9 749.264 162.9 Q745.283 162.9 742.922 160.678 Q740.584 158.432 740.584 154.682 Q740.584 150.307 743.5 148.085 Q746.44 145.863 752.25 145.863 L758.223 145.863 L758.223 145.446 Q758.223 142.507 756.278 140.909 Q754.357 139.289 750.862 139.289 Q748.639 139.289 746.533 139.821 Q744.426 140.354 742.482 141.419 L742.482 137.483 Q744.82 136.581 747.019 136.141 Q749.218 135.678 751.301 135.678 Q756.926 135.678 759.704 138.594 Q762.482 141.511 762.482 147.437 Z" fill="#000000" fill-rule="nonzero" fill-opacity="1"></path><path clip-path="url(#clip910)" d="M787.783 137.067 L787.783 141.094 Q785.977 140.169 784.033 139.706 Q782.088 139.243 780.005 139.243 Q776.834 139.243 775.236 140.215 Q773.662 141.187 773.662 143.131 Q773.662 144.613 774.797 145.469 Q775.931 146.303 779.357 147.067 L780.815 147.391 Q785.352 148.363 787.25 150.145 Q789.171 151.905 789.171 155.076 Q789.171 158.687 786.301 160.793 Q783.454 162.9 778.454 162.9 Q776.371 162.9 774.102 162.483 Q771.857 162.09 769.357 161.28 L769.357 156.881 Q771.718 158.108 774.01 158.733 Q776.301 159.335 778.547 159.335 Q781.556 159.335 783.176 158.317 Q784.797 157.275 784.797 155.4 Q784.797 153.664 783.616 152.738 Q782.459 151.812 778.5 150.956 L777.019 150.608 Q773.06 149.775 771.301 148.062 Q769.542 146.326 769.542 143.317 Q769.542 139.659 772.135 137.669 Q774.727 135.678 779.496 135.678 Q781.857 135.678 783.94 136.025 Q786.023 136.372 787.783 137.067 Z" fill="#000000" fill-rule="nonzero" fill-opacity="1"></path><path clip-path="url(#clip910)" d="M812.482 137.067 L812.482 141.094 Q810.676 140.169 808.732 139.706 Q806.787 139.243 804.704 139.243 Q801.533 139.243 799.935 140.215 Q798.361 141.187 798.361 143.131 Q798.361 144.613 799.496 145.469 Q800.63 146.303 804.056 147.067 L805.514 147.391 Q810.051 148.363 811.949 150.145 Q813.87 151.905 813.87 155.076 Q813.87 158.687 811 160.793 Q808.153 162.9 803.153 162.9 Q801.07 162.9 798.801 162.483 Q796.556 162.09 794.056 161.28 L794.056 156.881 Q796.417 158.108 798.708 158.733 Q801 159.335 803.245 159.335 Q806.255 159.335 807.875 158.317 Q809.495 157.275 809.495 155.4 Q809.495 153.664 808.315 152.738 Q807.158 151.812 803.199 150.956 L801.718 150.608 Q797.759 149.775 796 148.062 Q794.241 146.326 794.241 143.317 Q794.241 139.659 796.833 137.669 Q799.426 135.678 804.195 135.678 Q806.556 135.678 808.639 136.025 Q810.722 136.372 812.482 137.067 Z" fill="#000000" fill-rule="nonzero" fill-opacity="1"></path><polyline clip-path="url(#clip910)" style="stroke:#e26f46; stroke-linecap:round; stroke-linejoin:round; stroke-width:8; stroke-opacity:1; fill:none" points="299.93,196.789 443.15,196.789 "></polyline>
<path clip-path="url(#clip910)" d="M471.696 183.351 L471.696 210.226 L477.344 210.226 Q484.497 210.226 487.807 206.985 Q491.141 203.745 491.141 196.754 Q491.141 189.809 487.807 186.592 Q484.497 183.351 477.344 183.351 L471.696 183.351 M467.02 179.509 L476.627 179.509 Q486.673 179.509 491.372 183.698 Q496.071 187.865 496.071 196.754 Q496.071 205.689 491.349 209.879 Q486.627 214.069 476.627 214.069 L467.02 214.069 L467.02 179.509 Z" fill="#000000" fill-rule="nonzero" fill-opacity="1"></path><path clip-path="url(#clip910)" d="M503.525 179.509 L525.377 179.509 L525.377 183.444 L508.201 183.444 L508.201 193.675 L524.659 193.675 L524.659 197.61 L508.201 197.61 L508.201 210.133 L525.793 210.133 L525.793 214.069 L503.525 214.069 L503.525 179.509 Z" fill="#000000" fill-rule="nonzero" fill-opacity="1"></path><path clip-path="url(#clip910)" d="M543.895 182.587 Q540.284 182.587 538.455 186.152 Q536.65 189.694 536.65 196.823 Q536.65 203.93 538.455 207.495 Q540.284 211.036 543.895 211.036 Q547.529 211.036 549.335 207.495 Q551.164 203.93 551.164 196.823 Q551.164 189.694 549.335 186.152 Q547.529 182.587 543.895 182.587 M543.895 178.884 Q549.705 178.884 552.761 183.49 Q555.839 188.073 555.839 196.823 Q555.839 205.55 552.761 210.157 Q549.705 214.74 543.895 214.74 Q538.085 214.74 535.006 210.157 Q531.951 205.55 531.951 196.823 Q531.951 188.073 535.006 183.49 Q538.085 178.884 543.895 178.884 Z" fill="#000000" fill-rule="nonzero" fill-opacity="1"></path><path clip-path="url(#clip910)" d="M583.154 210.133 L599.473 210.133 L599.473 214.069 L577.529 214.069 L577.529 210.133 Q580.191 207.379 584.774 202.749 Q589.381 198.096 590.561 196.754 Q592.807 194.231 593.686 192.495 Q594.589 190.735 594.589 189.046 Q594.589 186.291 592.645 184.555 Q590.723 182.819 587.622 182.819 Q585.423 182.819 582.969 183.583 Q580.538 184.347 577.761 185.897 L577.761 181.175 Q580.585 180.041 583.038 179.462 Q585.492 178.884 587.529 178.884 Q592.899 178.884 596.094 181.569 Q599.288 184.254 599.288 188.745 Q599.288 190.874 598.478 192.796 Q597.691 194.694 595.585 197.286 Q595.006 197.958 591.904 201.175 Q588.802 204.37 583.154 210.133 Z" fill="#000000" fill-rule="nonzero" fill-opacity="1"></path><path clip-path="url(#clip910)" d="M642.367 201.129 Q642.367 196.43 640.422 193.768 Q638.501 191.083 635.121 191.083 Q631.742 191.083 629.797 193.768 Q627.876 196.43 627.876 201.129 Q627.876 205.828 629.797 208.513 Q631.742 211.175 635.121 211.175 Q638.501 211.175 640.422 208.513 Q642.367 205.828 642.367 201.129 M627.876 192.078 Q629.219 189.763 631.256 188.652 Q633.316 187.518 636.163 187.518 Q640.885 187.518 643.825 191.268 Q646.788 195.018 646.788 201.129 Q646.788 207.24 643.825 210.99 Q640.885 214.74 636.163 214.74 Q633.316 214.74 631.256 213.629 Q629.219 212.495 627.876 210.18 L627.876 214.069 L623.594 214.069 L623.594 178.05 L627.876 178.05 L627.876 192.078 Z" fill="#000000" fill-rule="nonzero" fill-opacity="1"></path><path clip-path="url(#clip910)" d="M653.848 188.143 L658.107 188.143 L658.107 214.069 L653.848 214.069 L653.848 188.143 M653.848 178.05 L658.107 178.05 L658.107 183.444 L653.848 183.444 L653.848 178.05 Z" fill="#000000" fill-rule="nonzero" fill-opacity="1"></path><path clip-path="url(#clip910)" d="M677.066 191.129 Q673.64 191.129 671.649 193.814 Q669.658 196.476 669.658 201.129 Q669.658 205.782 671.626 208.467 Q673.617 211.129 677.066 211.129 Q680.468 211.129 682.459 208.444 Q684.45 205.758 684.45 201.129 Q684.45 196.522 682.459 193.837 Q680.468 191.129 677.066 191.129 M677.066 187.518 Q682.621 187.518 685.792 191.129 Q688.964 194.74 688.964 201.129 Q688.964 207.495 685.792 211.129 Q682.621 214.74 677.066 214.74 Q671.487 214.74 668.316 211.129 Q665.168 207.495 665.168 201.129 Q665.168 194.74 668.316 191.129 Q671.487 187.518 677.066 187.518 Z" fill="#000000" fill-rule="nonzero" fill-opacity="1"></path><path clip-path="url(#clip910)" d="M716.209 193.12 Q717.806 190.249 720.028 188.884 Q722.251 187.518 725.26 187.518 Q729.311 187.518 731.51 190.365 Q733.709 193.189 733.709 198.421 L733.709 214.069 L729.426 214.069 L729.426 198.559 Q729.426 194.833 728.107 193.027 Q726.788 191.222 724.079 191.222 Q720.769 191.222 718.848 193.421 Q716.927 195.62 716.927 199.416 L716.927 214.069 L712.644 214.069 L712.644 198.559 Q712.644 194.809 711.325 193.027 Q710.005 191.222 707.251 191.222 Q703.987 191.222 702.065 193.444 Q700.144 195.643 700.144 199.416 L700.144 214.069 L695.862 214.069 L695.862 188.143 L700.144 188.143 L700.144 192.171 Q701.603 189.786 703.64 188.652 Q705.677 187.518 708.477 187.518 Q711.302 187.518 713.269 188.953 Q715.26 190.388 716.209 193.12 Z" fill="#000000" fill-rule="nonzero" fill-opacity="1"></path><path clip-path="url(#clip910)" d="M753.986 201.036 Q748.824 201.036 746.834 202.217 Q744.843 203.397 744.843 206.245 Q744.843 208.513 746.325 209.856 Q747.829 211.175 750.399 211.175 Q753.94 211.175 756.07 208.675 Q758.223 206.152 758.223 201.985 L758.223 201.036 L753.986 201.036 M762.482 199.277 L762.482 214.069 L758.223 214.069 L758.223 210.133 Q756.764 212.495 754.588 213.629 Q752.412 214.74 749.264 214.74 Q745.283 214.74 742.922 212.518 Q740.584 210.272 740.584 206.522 Q740.584 202.147 743.5 199.925 Q746.44 197.703 752.25 197.703 L758.223 197.703 L758.223 197.286 Q758.223 194.347 756.278 192.749 Q754.357 191.129 750.862 191.129 Q748.639 191.129 746.533 191.661 Q744.426 192.194 742.482 193.259 L742.482 189.323 Q744.82 188.421 747.019 187.981 Q749.218 187.518 751.301 187.518 Q756.926 187.518 759.704 190.434 Q762.482 193.351 762.482 199.277 Z" fill="#000000" fill-rule="nonzero" fill-opacity="1"></path><path clip-path="url(#clip910)" d="M787.783 188.907 L787.783 192.934 Q785.977 192.009 784.033 191.546 Q782.088 191.083 780.005 191.083 Q776.834 191.083 775.236 192.055 Q773.662 193.027 773.662 194.971 Q773.662 196.453 774.797 197.309 Q775.931 198.143 779.357 198.907 L780.815 199.231 Q785.352 200.203 787.25 201.985 Q789.171 203.745 789.171 206.916 Q789.171 210.527 786.301 212.633 Q783.454 214.74 778.454 214.74 Q776.371 214.74 774.102 214.323 Q771.857 213.93 769.357 213.12 L769.357 208.721 Q771.718 209.948 774.01 210.573 Q776.301 211.175 778.547 211.175 Q781.556 211.175 783.176 210.157 Q784.797 209.115 784.797 207.24 Q784.797 205.504 783.616 204.578 Q782.459 203.652 778.5 202.796 L777.019 202.448 Q773.06 201.615 771.301 199.902 Q769.542 198.166 769.542 195.157 Q769.542 191.499 772.135 189.509 Q774.727 187.518 779.496 187.518 Q781.857 187.518 783.94 187.865 Q786.023 188.212 787.783 188.907 Z" fill="#000000" fill-rule="nonzero" fill-opacity="1"></path><path clip-path="url(#clip910)" d="M812.482 188.907 L812.482 192.934 Q810.676 192.009 808.732 191.546 Q806.787 191.083 804.704 191.083 Q801.533 191.083 799.935 192.055 Q798.361 193.027 798.361 194.971 Q798.361 196.453 799.496 197.309 Q800.63 198.143 804.056 198.907 L805.514 199.231 Q810.051 200.203 811.949 201.985 Q813.87 203.745 813.87 206.916 Q813.87 210.527 811 212.633 Q808.153 214.74 803.153 214.74 Q801.07 214.74 798.801 214.323 Q796.556 213.93 794.056 213.12 L794.056 208.721 Q796.417 209.948 798.708 210.573 Q801 211.175 803.245 211.175 Q806.255 211.175 807.875 210.157 Q809.495 209.115 809.495 207.24 Q809.495 205.504 808.315 204.578 Q807.158 203.652 803.199 202.796 L801.718 202.448 Q797.759 201.615 796 199.902 Q794.241 198.166 794.241 195.157 Q794.241 191.499 796.833 189.509 Q799.426 187.518 804.195 187.518 Q806.556 187.518 808.639 187.865 Q810.722 188.212 812.482 188.907 Z" fill="#000000" fill-rule="nonzero" fill-opacity="1"></path></svg>